<svg width="176" height="176" viewBox="0 0 176 176" fill="none" xmlns="http://www.w3.org/2000/svg">
<g clip-path="url(#clip0_10729_4368)">
<path d="M0.115234 87.627C0.115234 110.866 9.34692 133.153 25.7794 149.586C42.2119 166.018 64.4992 175.25 87.7383 175.25C110.977 175.25 133.265 166.018 149.697 149.586C166.13 133.153 175.361 110.866 175.361 87.627C175.361 64.3879 166.13 42.1006 149.697 25.6681C133.265 9.2356 110.977 0.00390625 87.7383 0.00390625C64.4992 0.00390625 42.2119 9.2356 25.7794 25.6681C9.34692 42.1006 0.115234 64.3879 0.115234 87.627Z" fill="#FF4D6C"/>
<path d="M112.852 120.664C110.852 120.664 108.854 119.9 107.328 118.375L57.498 68.5469C54.4473 65.4961 54.4473 60.5488 57.498 57.498C60.5488 54.4473 65.4961 54.4473 68.5469 57.498L118.375 107.326C121.426 110.377 121.426 115.324 118.375 118.375C116.85 119.9 114.852 120.664 112.852 120.664Z" fill="white"/>
<path d="M63.0234 120.664C61.0234 120.664 59.0254 119.9 57.5 118.375C54.4492 115.324 54.4492 110.377 57.5 107.326L107.328 57.498C110.379 54.4473 115.326 54.4473 118.377 57.498C121.428 60.5488 121.428 65.4961 118.377 68.5469L68.5469 118.375C67.0215 119.9 65.0215 120.664 63.0234 120.664Z" fill="white"/>
</g>
<defs>
<clipPath id="clip0_10729_4368">
<rect width="176" height="176" fill="white"/>
</clipPath>
</defs>
</svg>
