<svg width="140" height="24" viewBox="0 0 140 24" fill="none" xmlns="http://www.w3.org/2000/svg">
<path fill-rule="evenodd" clip-rule="evenodd" d="M12.1286 1.37165C11.8144 1.78851 11.6884 2.3342 11.4364 3.4256L9.25941 12.8552C9.00744 13.9466 8.88145 14.4923 9.0032 14.9092C9.11029 15.2759 9.34743 15.574 9.68062 15.7608C10.0594 15.9732 10.6195 15.9732 11.7396 15.9732H18.8541C19.9742 15.9732 20.5343 15.9732 21.0111 15.7608C21.4306 15.574 21.8054 15.2759 22.0818 14.9092C22.396 14.4923 22.522 13.9466 22.774 12.8552L24.951 3.4256C25.2029 2.3342 25.3289 1.78851 25.2072 1.37165C25.1001 1.00497 24.8629 0.706849 24.5298 0.520017C24.151 0.307617 23.5909 0.307617 22.4708 0.307617H15.3563C14.2361 0.307617 13.6761 0.307617 13.1992 0.520017C12.7798 0.706849 12.405 1.00497 12.1286 1.37165ZM14.4997 5.23128C14.1855 5.64814 14.0595 6.19384 13.8076 7.28524L13.4127 8.99559C13.1607 10.087 13.0347 10.6327 13.1565 11.0495C13.2636 11.4162 13.5007 11.7143 13.8339 11.9012C14.2127 12.1136 14.7727 12.1136 15.8929 12.1136H16.2501C17.3702 12.1136 17.9303 12.1136 18.4072 11.9012C18.8266 11.7143 19.2014 11.4162 19.4778 11.0495C19.792 10.6327 19.918 10.087 20.17 8.99558L20.5648 7.28524C20.8168 6.19384 20.9428 5.64814 20.821 5.23128C20.714 4.8646 20.4768 4.56648 20.1436 4.37965C19.7648 4.16725 19.2048 4.16725 18.0847 4.16725H17.7274C16.6073 4.16725 16.0472 4.16725 15.5704 4.37965C15.1509 4.56648 14.7761 4.8646 14.4997 5.23128Z" fill="#7B61FF"/>
<path fill-rule="evenodd" clip-rule="evenodd" d="M3.58928 9.09089C3.27505 9.50774 3.14907 10.0534 2.8971 11.1448L0.720099 20.5745C0.46813 21.6659 0.342145 22.2116 0.463893 22.6284C0.570985 22.9951 0.80812 23.2932 1.14131 23.4801C1.5201 23.6925 2.08015 23.6925 3.20026 23.6925H10.3148C11.4349 23.6925 11.995 23.6925 12.4718 23.4801C12.8913 23.2932 13.2661 22.9951 13.5425 22.6284C13.8567 22.2116 13.9827 21.6659 14.2347 20.5745L16.4117 11.1448C16.6636 10.0534 16.7896 9.50774 16.6679 9.09089C16.5608 8.72421 16.3236 8.42609 15.9904 8.23926C15.6117 8.02686 15.0516 8.02686 13.9315 8.02686H6.81694C5.69684 8.02686 5.13679 8.02686 4.65993 8.23926C4.24047 8.42609 3.86568 8.72421 3.58928 9.09089ZM5.96034 12.9505C5.64612 13.3674 5.52013 13.9131 5.26816 15.0045L4.8733 16.7148C4.62133 17.8062 4.49534 18.3519 4.61709 18.7688C4.72418 19.1355 4.96132 19.4336 5.29451 19.6204C5.6733 19.8328 6.23335 19.8328 7.35346 19.8328H7.71073C8.83084 19.8328 9.39089 19.8328 9.86775 19.6204C10.2872 19.4336 10.662 19.1355 10.9384 18.7688C11.2526 18.3519 11.3786 17.8062 11.6306 16.7148L12.0254 15.0045L12.0254 15.0045C12.2774 13.9131 12.4034 13.3674 12.2816 12.9505C12.1746 12.5839 11.9374 12.2857 11.6042 12.0989C11.2254 11.8865 10.6654 11.8865 9.54529 11.8865H9.18801C8.0679 11.8865 7.50785 11.8865 7.03099 12.0989C6.61153 12.2857 6.23674 12.5839 5.96034 12.9505Z" fill="#FF48B5"/>
<path d="M9.48291 11.8865H22.9975C22.9569 12.0621 22.9366 12.15 22.9166 12.2242C22.3669 14.2601 20.3145 15.8927 18.2071 15.9703C18.1302 15.9732 18.0401 15.9732 17.8598 15.9732H12.7336C12.5533 15.9732 12.4632 15.9732 12.3876 15.9703C10.3161 15.8927 9.01752 14.2601 9.40784 12.2242C9.42208 12.15 9.44235 12.0621 9.48291 11.8865Z" fill="#7B61FF"/>
<path d="M29.8964 18.8206L33.1684 4.64799H39.1769C40.2659 4.64799 41.1616 4.83945 41.8639 5.22237C42.572 5.60068 43.0595 6.14507 43.3263 6.85555C43.5942 7.56141 43.6164 8.39876 43.3927 9.3676C43.1658 10.3503 42.7529 11.1853 42.1538 11.8727C41.5558 12.5555 40.8105 13.0768 39.9178 13.4367C39.0261 13.7919 38.0263 13.9696 36.9183 13.9696H33.1186L33.7417 11.2707H36.888C37.4183 11.2707 37.8764 11.2038 38.2625 11.07C38.6543 10.9316 38.9744 10.724 39.223 10.4472C39.4726 10.1657 39.648 9.80588 39.7492 9.3676C39.8504 8.92932 39.8417 8.56716 39.7231 8.28112C39.6055 7.99047 39.3833 7.77364 39.0565 7.63062C38.7307 7.48299 38.3051 7.40917 37.7795 7.40917H36.0465L33.412 18.8206H29.8964ZM39.5807 12.3433L41.7074 18.8206H37.8722L35.8165 12.3433H39.5807ZM46.1723 19.0006C45.4763 19.0006 44.8845 18.8875 44.3969 18.6615C43.9151 18.4308 43.5712 18.0848 43.3652 17.6234C43.165 17.1575 43.1459 16.5739 43.3078 15.8726C43.4441 15.2821 43.6657 14.7838 43.9725 14.3779C44.2793 13.9719 44.649 13.642 45.0816 13.3883C45.5143 13.1345 45.9893 12.9431 46.5069 12.8139C47.0254 12.6801 47.567 12.5901 48.1317 12.544C48.7647 12.4886 49.2776 12.431 49.6702 12.371C50.0639 12.3064 50.3593 12.2164 50.5564 12.1011C50.7592 11.9811 50.8857 11.8127 50.9358 11.5959L50.9438 11.5613C51.0258 11.2061 50.9637 10.9316 50.7575 10.7378C50.5512 10.544 50.2351 10.4472 49.8089 10.4472C49.3497 10.4472 48.958 10.544 48.6339 10.7378C48.3098 10.9316 48.0705 11.1992 47.9159 11.5406L44.7383 11.4298C44.9821 10.7839 45.3591 10.2073 45.8693 9.69977C46.3852 9.18767 47.0224 8.7863 47.7808 8.49565C48.545 8.20038 49.4148 8.05275 50.3901 8.05275C51.0862 8.05275 51.7091 8.13349 52.2589 8.29496C52.8098 8.45182 53.268 8.68249 53.6333 8.98698C53.9996 9.28686 54.2506 9.65594 54.3862 10.0942C54.5265 10.5325 54.5316 11.0331 54.4017 11.5959L52.7337 18.8206H49.4667L49.8086 17.3397H49.7233C49.4461 17.6996 49.1273 18.0041 48.7667 18.2532C48.4109 18.5023 48.015 18.6892 47.5791 18.8137C47.1478 18.9383 46.6789 19.0006 46.1723 19.0006ZM47.756 16.7861C48.13 16.7861 48.4833 16.7123 48.8156 16.5646C49.1528 16.417 49.4411 16.214 49.6807 15.9557C49.9213 15.6927 50.0816 15.3882 50.1614 15.0422L50.3947 14.0318C50.2836 14.0826 50.1522 14.1287 50.0005 14.1702C49.8536 14.2118 49.6931 14.251 49.5188 14.2879C49.3446 14.3248 49.1667 14.3571 48.9851 14.3848C48.8035 14.4125 48.6296 14.4378 48.4633 14.4609C48.1248 14.5116 47.8274 14.5901 47.5709 14.6962C47.3191 14.8023 47.112 14.9407 46.9494 15.1114C46.7927 15.2775 46.6877 15.4759 46.6345 15.7065C46.5535 16.0572 46.6196 16.3247 46.8327 16.5093C47.0505 16.6938 47.3583 16.7861 47.756 16.7861ZM59.7299 12.7585L58.3303 18.8206H54.8573L57.3113 8.19116H60.6139L60.1633 10.1427H60.2841C60.6757 9.49216 61.2053 8.98237 61.8729 8.61329C62.5416 8.2396 63.2784 8.05275 64.0833 8.05275C64.8504 8.05275 65.4767 8.22114 65.9624 8.55793C66.4539 8.8901 66.7867 9.35606 66.9607 9.95582C67.1406 10.551 67.136 11.2476 66.947 12.0457L65.3829 18.8206H61.9099L63.3206 12.7101C63.4617 12.1195 63.4143 11.6582 63.1785 11.326C62.9474 10.9939 62.5572 10.8278 62.008 10.8278C61.6434 10.8278 61.3033 10.9062 60.9878 11.0631C60.678 11.2153 60.4143 11.4344 60.1968 11.7205C59.984 12.0065 59.8283 12.3525 59.7299 12.7585ZM71.4823 18.9729C70.6774 18.9729 69.9927 18.7699 69.4283 18.3639C68.8639 17.9579 68.4789 17.3489 68.2734 16.537C68.0678 15.725 68.1041 14.7169 68.3821 13.5128C68.6707 12.2626 69.1118 11.2338 69.7054 10.4264C70.299 9.61903 70.9696 9.02159 71.7172 8.63405C72.4696 8.24652 73.2269 8.05275 73.9892 8.05275C74.5621 8.05275 75.0298 8.14964 75.3923 8.3434C75.7558 8.53256 76.0355 8.77707 76.2315 9.07695C76.4274 9.37682 76.5567 9.68824 76.6195 10.0112H76.6905L77.9287 4.64799H81.4017L78.1297 18.8206H74.6922L75.09 17.0975H74.9835C74.7611 17.4251 74.4819 17.7319 74.146 18.0179C73.81 18.3039 73.4182 18.5346 72.9706 18.7099C72.5276 18.8852 72.0316 18.9729 71.4823 18.9729ZM73.2984 16.3363C73.7198 16.3363 74.1063 16.2209 74.4578 15.9903C74.8104 15.755 75.1162 15.4251 75.3752 15.0007C75.6342 14.5762 75.8297 14.078 75.9618 13.5059C76.096 12.9246 76.1311 12.424 76.067 12.0042C76.0077 11.5844 75.8526 11.2614 75.6018 11.0354C75.3557 10.8093 75.0219 10.6963 74.6005 10.6963C74.1696 10.6963 73.7784 10.8116 73.4269 11.0423C73.0753 11.273 72.773 11.5982 72.5198 12.0181C72.2713 12.4379 72.0811 12.9338 71.949 13.5059C71.8169 14.078 71.78 14.5762 71.8383 15.0007C71.8965 15.4251 72.0453 15.755 72.2845 15.9903C72.5296 16.2209 72.8675 16.3363 73.2984 16.3363ZM90.4793 8.89702C90.5491 8.38954 90.4295 7.99508 90.1204 7.71366C89.8171 7.42762 89.3222 7.2846 88.6357 7.2846C88.1811 7.2846 87.789 7.34227 87.4594 7.45761C87.1297 7.57295 86.8657 7.73211 86.6673 7.93511C86.47 8.13349 86.3391 8.36186 86.2748 8.62021C86.2163 8.83243 86.2158 9.01928 86.2732 9.18075C86.3353 9.34222 86.4444 9.48524 86.6003 9.60981C86.762 9.72976 86.9647 9.83587 87.2086 9.92814C87.4524 10.0204 87.7321 10.1011 88.0476 10.1703L89.2337 10.4472C89.9182 10.5994 90.5058 10.8024 90.9965 11.0561C91.4919 11.3099 91.8861 11.6121 92.1792 11.9627C92.4771 12.3133 92.6703 12.717 92.759 13.1737C92.8477 13.6305 92.8289 14.1426 92.7026 14.71C92.4913 15.605 92.0819 16.3732 91.4746 17.0145C90.8672 17.6557 90.0933 18.1471 89.1527 18.4885C88.2169 18.8299 87.1429 19.0006 85.9308 19.0006C84.714 19.0006 83.6944 18.823 82.872 18.4677C82.0497 18.1125 81.4712 17.5727 81.1365 16.8484C80.8018 16.1241 80.7552 15.2083 80.9966 14.101H84.3631C84.2861 14.5578 84.3237 14.9384 84.4759 15.2429C84.6281 15.5474 84.8803 15.778 85.2323 15.9349C85.5891 16.0918 86.0256 16.1702 86.5416 16.1702C87.0151 16.1702 87.432 16.1079 87.7922 15.9833C88.1571 15.8588 88.4551 15.6858 88.6861 15.4643C88.9172 15.2429 89.0681 14.9891 89.1389 14.7031C89.1959 14.4355 89.1634 14.2072 89.0414 14.018C88.9204 13.8242 88.703 13.6581 88.3893 13.5197C88.0815 13.3767 87.6762 13.2452 87.1736 13.1253L85.7336 12.7793C84.5391 12.4979 83.6521 12.0434 83.0725 11.416C82.494 10.7839 82.3312 9.93044 82.5841 8.8555C82.7817 7.97894 83.2005 7.21079 83.8405 6.55106C84.4805 5.89133 85.274 5.37692 86.221 5.00785C87.1679 4.63877 88.193 4.45423 89.2962 4.45423C90.4231 4.45423 91.3577 4.64107 92.1 5.01476C92.8482 5.38384 93.3746 5.90286 93.6795 6.57182C93.9843 7.24078 94.0398 8.01584 93.8458 8.89702H90.4793ZM95.5675 18.8206L95.1806 8.19116H98.6678L98.5659 15.0007H98.6582L101.807 8.19116H105.209L105.267 14.9522H105.36L108.348 8.19116H111.835L106.533 18.8206H102.819L102.544 12.627H102.424L99.2891 18.8206H95.5675ZM113.809 19.0006C113.113 19.0006 112.521 18.8875 112.034 18.6615C111.552 18.4308 111.208 18.0848 111.002 17.6234C110.802 17.1575 110.783 16.5739 110.945 15.8726C111.081 15.2821 111.302 14.7838 111.609 14.3779C111.916 13.9719 112.286 13.642 112.718 13.3883C113.151 13.1345 113.626 12.9431 114.144 12.8139C114.662 12.6801 115.204 12.5901 115.768 12.544C116.401 12.4886 116.914 12.431 117.307 12.371C117.701 12.3064 117.996 12.2164 118.193 12.1011C118.396 11.9811 118.522 11.8127 118.572 11.5959L118.58 11.5613C118.662 11.2061 118.6 10.9316 118.394 10.7378C118.188 10.544 117.872 10.4472 117.446 10.4472C116.986 10.4472 116.595 10.544 116.271 10.7378C115.947 10.9316 115.707 11.1992 115.553 11.5406L112.375 11.4298C112.619 10.7839 112.996 10.2073 113.506 9.69977C114.022 9.18767 114.659 8.7863 115.418 8.49565C116.182 8.20038 117.051 8.05275 118.027 8.05275C118.723 8.05275 119.346 8.13349 119.896 8.29496C120.447 8.45182 120.905 8.68249 121.27 8.98698C121.636 9.28686 121.887 9.65594 122.023 10.0942C122.163 10.5325 122.168 11.0331 122.038 11.5959L120.37 18.8206H117.103L117.445 17.3397H117.36C117.083 17.6996 116.764 18.0041 116.403 18.2532C116.048 18.5023 115.652 18.6892 115.216 18.8137C114.785 18.9383 114.316 19.0006 113.809 19.0006ZM115.393 16.7861C115.767 16.7861 116.12 16.7123 116.452 16.5646C116.789 16.417 117.078 16.214 117.317 15.9557C117.558 15.6927 117.718 15.3882 117.798 15.0422L118.031 14.0318C117.92 14.0826 117.789 14.1287 117.637 14.1702C117.49 14.2118 117.33 14.251 117.156 14.2879C116.981 14.3248 116.803 14.3571 116.622 14.3848C116.44 14.4125 116.266 14.4378 116.1 14.4609C115.762 14.5116 115.464 14.5901 115.208 14.6962C114.956 14.8023 114.749 14.9407 114.586 15.1114C114.429 15.2775 114.324 15.4759 114.271 15.7065C114.19 16.0572 114.256 16.3247 114.469 16.5093C114.687 16.6938 114.995 16.7861 115.393 16.7861ZM121.574 22.8067L124.948 8.19116H128.386L127.965 10.0112H128.072C128.288 9.68824 128.562 9.37682 128.891 9.07695C129.226 8.77707 129.618 8.53256 130.069 8.3434C130.526 8.14964 131.041 8.05275 131.614 8.05275C132.371 8.05275 133.034 8.24652 133.603 8.63405C134.176 9.02159 134.573 9.61903 134.794 10.4264C135.015 11.2338 134.981 12.2626 134.692 13.5128C134.414 14.7169 133.985 15.725 133.405 16.537C132.829 17.3489 132.163 17.9579 131.406 18.3639C130.654 18.7699 129.876 18.9729 129.071 18.9729C128.522 18.9729 128.066 18.8852 127.704 18.7099C127.342 18.5346 127.057 18.3039 126.848 18.0179C126.645 17.7319 126.507 17.4251 126.436 17.0975H126.365L125.047 22.8067H121.574ZM127.123 13.5059C126.991 14.078 126.954 14.5762 127.012 15.0007C127.075 15.4251 127.229 15.755 127.473 15.9903C127.723 16.2209 128.058 16.3363 128.48 16.3363C128.906 16.3363 129.294 16.2209 129.646 15.9903C129.999 15.755 130.3 15.4251 130.549 15.0007C130.803 14.5762 130.997 14.078 131.129 13.5059C131.261 12.9338 131.297 12.4379 131.238 12.0181C131.183 11.5982 131.033 11.273 130.788 11.0423C130.548 10.8116 130.212 10.6963 129.782 10.6963C129.355 10.6963 128.967 10.8093 128.617 11.0354C128.266 11.2614 127.962 11.5844 127.704 12.0042C127.451 12.424 127.257 12.9246 127.123 13.5059Z" fill="#7B61FF"/>
</svg>
