<svg width="16" height="16" viewBox="0 0 16 16" fill="none" xmlns="http://www.w3.org/2000/svg">
<g clip-path="url(#clip0_71_7829)">
<path d="M6.74398 12.36C3.47198 12.36 0.807983 9.69604 0.807983 6.42404C0.807983 3.15204 3.47198 0.488037 6.74398 0.488037C10.016 0.488037 12.68 3.15204 12.68 6.42404C12.68 9.69604 10.016 12.36 6.74398 12.36ZM6.74398 1.52804C4.04798 1.52804 1.84798 3.72004 1.84798 6.42404C1.84798 9.12004 4.03998 11.32 6.74398 11.32C9.43998 11.32 11.64 9.12804 11.64 6.42404C11.64 3.72804 9.43998 1.52804 6.74398 1.52804Z" fill="#7D7D7D"/>
<path d="M10.5759 10.32L14.9279 14.672C15.1279 14.872 15.1279 15.208 14.9279 15.408C14.7279 15.608 14.3919 15.608 14.1919 15.408L9.83994 11.056C9.63994 10.856 9.63994 10.52 9.83994 10.32C10.0399 10.12 10.3759 10.12 10.5759 10.32Z" fill="#7D7D7D"/>
</g>
<defs>
<clipPath id="clip0_71_7829">
<rect width="16" height="16" fill="white"/>
</clipPath>
</defs>
</svg>
