<svg width="14" height="16" viewBox="0 0 14 16" fill="none" xmlns="http://www.w3.org/2000/svg">
<path d="M13.2204 2.75096L7.01025 0.0479255C6.93824 0.0163192 6.86046 0 6.78182 0C6.70318 0 6.6254 0.0163192 6.55339 0.0479255L0.344241 2.75096C0.241964 2.79532 0.154884 2.86861 0.093711 2.96181C0.0325377 3.05501 -6.10485e-05 3.16405 -7.62939e-05 3.27554V8.29245C-7.62939e-05 13.3761 6.33783 15.8588 6.60775 15.9618C6.67357 15.9866 6.74319 16 6.81186 16C6.8834 16 6.95398 15.9866 7.0217 15.9599C7.28876 15.855 13.5637 13.3237 13.5637 8.29245V3.27554C13.5638 3.16415 13.5314 3.05516 13.4704 2.96196C13.4094 2.86876 13.3225 2.79542 13.2204 2.75096Z" fill="#3370FF"/>
<path d="M3.2147 8.2935C3.0638 8.15565 3.05076 7.91906 3.18862 7.76631L3.37676 7.55953C3.51462 7.40864 3.7512 7.39746 3.90209 7.53531L5.64946 9.1262C5.80035 9.26405 6.03693 9.25287 6.17479 9.10198L9.45715 5.48803C9.595 5.33713 9.83159 5.32409 9.98434 5.46195L10.1911 5.6501C10.342 5.78795 10.3551 6.02453 10.2172 6.17729L6.2493 10.5494C6.11145 10.7003 5.87486 10.7134 5.72397 10.5755L3.2147 8.2935Z" fill="white"/>
</svg>
