<svg width="128" height="45" viewBox="0 0 128 45" fill="none" xmlns="http://www.w3.org/2000/svg">
<path d="M16.8394 37.3429C25.0701 36.7682 28.4727 31.019 29.9431 26.594L27.3297 22.1672L0.568549 18.914C-1.76751 31.1544 7.65567 37.3916 15.1786 37.421C15.5728 37.4189 15.9633 37.4014 16.3496 37.3691C16.5124 37.3631 16.6757 37.3543 16.8394 37.3429Z" fill="#F2EFFF"/>
<path d="M5.20615 25.6771C5.81272 25.8689 6.46834 26.0351 7.16908 26.1673C7.13959 26.1497 7.11031 26.1281 7.08515 26.1107C6.42337 25.9805 5.79765 25.8239 5.22097 25.6416C2.75222 24.8558 1.07191 23.5866 0.200455 21.8593C0.199027 21.8874 0.197599 21.9155 0.196375 21.9396C1.07771 23.6433 2.75884 24.8964 5.20615 25.6771Z" fill="#7B61FF" stroke="#7B61FF" stroke-width="0.00749999"/>
<path d="M23.4317 22.8694C23.447 22.8704 23.4619 22.8706 23.4767 22.8723C23.0913 23.0509 22.6832 23.2308 22.256 23.4094C20.0468 24.3305 17.5635 25.1347 15.0753 25.7336C15.0863 25.7241 15.0979 25.7153 15.1095 25.7063C15.1247 25.6945 15.1402 25.6824 15.1544 25.6692L15.1534 25.6682C18.2906 24.8939 21.1815 23.8659 23.3712 22.8635C23.3924 22.8661 23.4124 22.8681 23.4317 22.8694Z" fill="#7B61FF" stroke="#7B61FF" stroke-width="0.00628591"/>
<path d="M13.2806 27.724C13.2689 27.7398 13.261 27.7516 13.2493 27.7674C15.9954 27.4319 18.8551 26.7609 21.4563 25.8175C23.5482 25.0596 25.217 24.2149 26.263 23.4097C26.2512 23.4058 26.2356 23.3979 26.2238 23.3939C25.1818 24.1873 23.5247 25.0241 21.4445 25.778C18.8551 26.7175 16.015 27.3885 13.2806 27.724Z" fill="#7B61FF" stroke="#7B61FF" stroke-width="0.00749999"/>
<path d="M3.50353 26.5797C4.75349 27.1804 6.24832 27.5773 7.96243 27.7668C7.95878 27.756 7.95512 27.7417 7.95512 27.731C4.90699 27.3985 1.84424 26.3437 0.26535 23.7156C0.269005 23.737 0.269005 23.7621 0.27266 23.7835C1.00363 24.9635 2.0818 25.9003 3.50353 26.5797Z" fill="#7B61FF" stroke="#7B61FF" stroke-width="0.015"/>
<path d="M21.7709 28.1961C18.5531 29.4384 14.9263 30.1766 11.5696 30.2878C11.5619 30.2997 11.5503 30.3156 11.5426 30.3275C14.9109 30.2163 18.5531 29.4781 21.7863 28.2318C24.6954 27.1085 26.8561 25.7233 27.8631 24.3738C27.8515 24.3659 27.8438 24.3579 27.8322 24.3539C26.8291 25.6955 24.6723 27.0728 21.7709 28.1961Z" fill="#7B61FF" stroke="#7B61FF" stroke-width="0.00749999"/>
<path d="M0.561394 25.861C2.18701 28.112 4.86818 29.5917 8.44518 30.1843C8.44371 30.1895 8.44306 30.1953 8.44225 30.2009C8.44145 30.2064 8.4396 30.2118 8.43835 30.2165C6.55055 29.9065 4.90418 29.3485 3.51842 28.5495C2.4686 27.947 1.58852 27.2101 0.878777 26.3483L0.585808 25.9714C0.581952 25.9508 0.576874 25.9303 0.572136 25.9099C0.568366 25.8936 0.564699 25.8773 0.561394 25.861Z" fill="#7B61FF" stroke="#7B61FF" stroke-width="0.00628591"/>
<path d="M3.41968 30.5028C4.59004 31.2774 5.94652 31.8602 7.47479 32.2475C7.47837 32.2331 7.48195 32.2186 7.48911 32.2041C5.41323 31.6756 3.19777 30.6766 1.51559 28.8341C1.52991 28.863 1.54065 28.8956 1.55496 28.9246C2.09899 29.5146 2.72175 30.0395 3.41968 30.5028Z" fill="#7B61FF" stroke="#7B61FF" stroke-width="0.00749999"/>
<path d="M22.2992 30.4791C18.5186 31.9872 14.1123 32.7203 10.2096 32.4874C10.1295 32.4836 10.0532 32.4759 9.97305 32.4721C9.96161 32.4836 9.95398 32.495 9.94254 32.5065C10.0303 32.5141 10.1218 32.5179 10.2096 32.5256C10.6865 32.5523 11.171 32.5676 11.6631 32.5676C15.1843 32.5676 18.9916 31.8421 22.3145 30.5173C25.6411 29.1886 28.0331 27.4514 29.0365 25.6607C29.0288 25.6531 29.0174 25.6416 29.0097 25.634C28.014 27.417 25.6259 29.1542 22.2992 30.4791Z" fill="#7B61FF" stroke="#7B61FF" stroke-width="0.00749999"/>
<path d="M22.2945 32.5871C18.2436 34.0836 13.4672 34.7787 9.19213 34.4985C8.14883 34.4311 6.93028 34.2893 5.64653 34.0162C5.618 34.0233 5.59355 34.0269 5.5691 34.034C6.71429 34.2822 7.92468 34.4489 9.18805 34.534C9.81159 34.5765 10.4433 34.5943 11.0831 34.5943C14.8447 34.5943 18.8386 33.8992 22.3068 32.6191C24.2956 31.885 25.995 31.0091 27.3643 30.0126C28.1957 29.4098 28.8722 28.7786 29.398 28.1332C29.4183 28.0836 29.4428 28.0339 29.4632 27.9807C28.0938 29.7431 25.5752 31.3779 22.2945 32.5871Z" fill="#7B61FF" stroke="#7B61FF" stroke-width="0.00749999"/>
<path d="M11.9364 36.4342C12.5814 36.4888 13.2375 36.5143 13.8974 36.5143C15.3141 36.5143 16.7569 36.3868 18.2109 36.1391C20.28 35.782 22.2633 35.1881 24.1013 34.3792C24.7015 34.1132 25.2757 33.8326 25.8237 33.5302C25.8647 33.4938 25.902 33.4573 25.943 33.4209C25.3577 33.7488 24.7388 34.0549 24.0864 34.3427C20.362 35.9824 15.9367 36.733 11.9401 36.3941C10.6688 36.2884 9.46838 36.0771 8.34248 35.771C8.39468 35.7966 8.44687 35.8221 8.49907 35.8476C9.58768 36.1391 10.7397 36.3358 11.9364 36.4342Z" fill="#7B61FF" stroke="#7B61FF" stroke-width="0.00749999"/>
<path d="M29.9431 26.6474C28.4727 31.0723 25.0701 36.7682 16.8394 37.3429C16.6757 37.3543 16.5124 37.3631 16.3496 37.3691C15.9633 37.4014 15.5728 37.4189 15.1786 37.421C7.65567 37.3916 -1.76751 31.1544 0.56855 18.914" stroke="#7B61FF" stroke-width="0.0345" stroke-linecap="round"/>
<path d="M29.1157 23.1621C28.5828 22.0987 27.9103 21.1202 27.0321 20.2944C25.2319 18.5961 22.8607 17.6522 20.3569 17.6401C19.0427 17.6337 17.7639 17.8811 16.5608 18.3718C12.7976 19.8824 11.776 19.9453 11.2853 19.9786C11.2487 19.982 11.2157 19.9819 11.1828 19.9853C9.86086 20.0717 8.63287 19.6586 7.7181 18.8218C6.77418 17.9564 6.23844 16.7107 6.24479 15.4034C6.25654 12.9815 8.1103 10.4187 11.522 10.4352C11.5147 10.4316 11.5037 10.4315 11.4964 10.4279C10.7908 10.2352 9.90523 10.1737 8.80307 10.2327C7.0345 10.3277 5.52337 10.9312 4.30637 12.0255C2.68027 13.6893 1.44045 15.7158 0.737638 17.97C0.707903 18.0627 0.681845 18.1519 0.65577 18.2446C-0.374351 22.3189 1.99967 23.4378 4.297 24.517C4.91426 24.8057 5.52055 25.0909 6.05339 25.4257C6.07894 25.4401 6.10448 25.4581 6.12637 25.4725C6.92923 25.9872 7.55577 26.626 7.80738 27.581C7.81099 27.5917 7.81458 27.606 7.81453 27.6167C7.83606 27.7062 7.85759 27.7956 7.87178 27.8885C7.93493 28.4532 7.89928 29.0103 7.80884 29.5421C7.80513 29.5528 7.80506 29.5671 7.80135 29.5778C7.68838 30.2273 7.50237 30.8408 7.33133 31.3865C7.3276 31.4008 7.32387 31.415 7.31648 31.4293C7.31273 31.4471 7.30534 31.4614 7.30159 31.4792C7.06733 32.2282 6.874 32.8417 6.98196 33.2244C6.98557 33.2352 6.98916 33.2495 6.99277 33.2602C7.01083 33.3103 7.03257 33.3568 7.058 33.3963C7.16343 33.5468 7.34605 33.6334 7.62047 33.6598C7.62047 33.6598 7.63145 33.6598 7.65342 33.6599C7.72297 33.6602 7.90603 33.654 8.16259 33.5909C8.18459 33.5839 8.21023 33.5805 8.23223 33.5734C8.3825 33.5349 8.55483 33.4785 8.74558 33.3973C9.13809 33.2278 9.53097 32.9832 9.90588 32.6707C10.1595 32.4611 10.4096 32.2195 10.6488 31.9491C10.6599 31.9385 10.6672 31.9278 10.6783 31.9171C10.8734 31.6966 11.0649 31.4546 11.2492 31.1948C11.5846 30.7249 11.8979 30.2763 12.1855 29.8598C12.1929 29.8491 12.2039 29.8349 12.2113 29.8242C12.3182 29.6711 12.4214 29.5252 12.5173 29.3792C12.9928 28.6921 13.4131 28.0833 13.8037 27.5529C13.8148 27.5387 13.8221 27.528 13.8332 27.5138C14.3417 26.8268 14.7983 26.2718 15.2654 25.8347C15.6295 25.4793 16.0081 25.1561 16.4012 24.8651C16.4233 24.8473 16.449 24.8296 16.471 24.8154C18.1793 23.5734 20.1628 22.9294 22.286 22.9397C22.469 22.9406 22.6483 22.945 22.8277 22.9566C22.8569 22.9567 22.8862 22.9605 22.9191 22.9642C23.9767 23.0336 24.9969 23.2708 25.9505 23.654C25.9615 23.6576 25.9761 23.6649 25.987 23.6685C26.5753 23.9071 27.1376 24.2063 27.663 24.5554C27.6739 24.5625 27.6812 24.5697 27.6922 24.5734C28.1447 24.8756 28.5749 25.2206 28.9721 25.5976C28.9794 25.6048 28.9903 25.6156 28.9976 25.6227C29.3438 25.953 29.6665 26.2573 29.9648 26.6409C29.9721 26.6445 29.9786 24.8845 29.1157 23.1621Z" fill="#7B61FF"/>
<path d="M11.4523 10.543C11.4596 10.5466 11.4706 10.5466 11.4779 10.5501C11.9421 10.6789 12.3295 10.8612 12.6474 11.1044C13.3674 11.6514 13.6562 12.4273 13.9632 13.2497C14.1861 13.8469 14.4164 14.4619 14.8257 15.0125C15.2899 15.6347 15.9258 16.0888 16.7701 16.3999L16.7811 16.4035L16.7774 16.3927C16.1195 14.5906 17.004 13.804 17.8556 13.0388C18.6341 12.3415 19.3723 11.6836 18.7108 10.3034C20.4286 11.2402 21.2875 10.9363 22.1171 10.6395C22.9066 10.3606 23.6521 10.096 25.0702 10.8898C25.0666 10.8862 25.0666 10.8862 25.0629 10.8827C25.052 10.8719 25.041 10.8648 25.03 10.8541C22.3145 8.69437 18.8862 7.50011 15.3666 7.50011C11.0539 7.50011 7.15057 9.25932 4.37289 12.0877C4.34365 12.1198 4.31076 12.1484 4.28152 12.1806C5.49127 11.0793 6.99706 10.4679 8.76235 10.3606C9.86245 10.2963 10.7469 10.3535 11.4523 10.543Z" fill="#7B61FF"/>
<path d="M22.9175 15.3343C23.6583 15.3343 24.2588 14.7468 24.2588 14.022C24.2588 13.2973 23.6583 12.7097 22.9175 12.7097C22.1767 12.7097 21.5762 13.2973 21.5762 14.022C21.5762 14.7468 22.1767 15.3343 22.9175 15.3343Z" fill="#7B61FF"/>
<path d="M26.0691 17.0432C26.3075 16.81 26.3075 16.432 26.0691 16.1988C25.8308 15.9656 25.4443 15.9656 25.2059 16.1988C24.9676 16.432 24.9676 16.81 25.2059 17.0432C25.4443 17.2764 25.8307 17.2764 26.0691 17.0432Z" fill="#7B61FF"/>
<path d="M18.4189 22.4321C18.6598 22.4321 18.855 22.2411 18.855 22.0055C18.855 21.7699 18.6598 21.5789 18.4189 21.5789C18.1781 21.5789 17.9828 21.7699 17.9828 22.0055C17.9828 22.2411 18.1781 22.4321 18.4189 22.4321Z" fill="white"/>
<path d="M45.11 23.77C44.23 23.47 43.43 23.17 42.71 22.87C41.99 22.55 41.37 22.17 40.85 21.73C40.33 21.29 39.92 20.77 39.62 20.17C39.34 19.55 39.2 18.8 39.2 17.92C39.2 16.22 39.85 14.86 41.15 13.84C42.47 12.82 44.31 12.31 46.67 12.31C47.53 12.31 48.33 12.37 49.07 12.49C49.81 12.61 50.44 12.8 50.96 13.06C51.5 13.3 51.92 13.62 52.22 14.02C52.52 14.4 52.67 14.85 52.67 15.37C52.67 15.89 52.55 16.34 52.31 16.72C52.07 17.08 51.78 17.39 51.44 17.65C51 17.37 50.41 17.13 49.67 16.93C48.93 16.71 48.12 16.6 47.24 16.6C46.34 16.6 45.68 16.73 45.26 16.99C44.84 17.23 44.63 17.54 44.63 17.92C44.63 18.22 44.76 18.47 45.02 18.67C45.28 18.85 45.67 19.02 46.19 19.18L47.78 19.69C49.66 20.29 51.1 21.06 52.1 22C53.12 22.92 53.63 24.18 53.63 25.78C53.63 27.48 52.96 28.86 51.62 29.92C50.28 30.96 48.31 31.48 45.71 31.48C44.79 31.48 43.93 31.4 43.13 31.24C42.35 31.1 41.66 30.89 41.06 30.61C40.48 30.31 40.02 29.95 39.68 29.53C39.36 29.09 39.2 28.59 39.2 28.03C39.2 27.45 39.37 26.96 39.71 26.56C40.05 26.14 40.42 25.82 40.82 25.6C41.38 26.04 42.06 26.42 42.86 26.74C43.68 27.06 44.57 27.22 45.53 27.22C46.51 27.22 47.2 27.07 47.6 26.77C48 26.47 48.2 26.12 48.2 25.72C48.2 25.32 48.04 25.02 47.72 24.82C47.4 24.6 46.95 24.39 46.37 24.19L45.11 23.77ZM71.2321 23.71C71.2321 24.95 71.0421 26.06 70.6621 27.04C70.2821 28 69.7421 28.81 69.0421 29.47C68.3621 30.13 67.5421 30.63 66.5821 30.97C65.6221 31.31 64.5521 31.48 63.3721 31.48C62.1921 31.48 61.1221 31.3 60.1621 30.94C59.2021 30.58 58.3721 30.07 57.6721 29.41C56.9921 28.73 56.4621 27.91 56.0821 26.95C55.7021 25.99 55.5121 24.91 55.5121 23.71C55.5121 22.53 55.7021 21.46 56.0821 20.5C56.4621 19.54 56.9921 18.73 57.6721 18.07C58.3721 17.39 59.2021 16.87 60.1621 16.51C61.1221 16.15 62.1921 15.97 63.3721 15.97C64.5521 15.97 65.6221 16.16 66.5821 16.54C67.5421 16.9 68.3621 17.42 69.0421 18.1C69.7421 18.76 70.2821 19.57 70.6621 20.53C71.0421 21.49 71.2321 22.55 71.2321 23.71ZM60.7321 23.71C60.7321 24.93 60.9621 25.87 61.4221 26.53C61.9021 27.17 62.5621 27.49 63.4021 27.49C64.2421 27.49 64.8821 27.16 65.3221 26.5C65.7821 25.84 66.0121 24.91 66.0121 23.71C66.0121 22.51 65.7821 21.59 65.3221 20.95C64.8621 20.29 64.2121 19.96 63.3721 19.96C62.5321 19.96 61.8821 20.29 61.4221 20.95C60.9621 21.59 60.7321 22.51 60.7321 23.71ZM78.8202 30.97C78.6202 31.03 78.3002 31.09 77.8602 31.15C77.4402 31.21 77.0002 31.24 76.5402 31.24C76.1002 31.24 75.7002 31.21 75.3402 31.15C75.0002 31.09 74.7102 30.97 74.4702 30.79C74.2302 30.61 74.0402 30.37 73.9002 30.07C73.7802 29.75 73.7202 29.34 73.7202 28.84V19.84C73.7202 19.38 73.8002 18.99 73.9602 18.67C74.1402 18.33 74.3902 18.03 74.7102 17.77C75.0302 17.51 75.4202 17.28 75.8802 17.08C76.3602 16.86 76.8702 16.67 77.4102 16.51C77.9502 16.35 78.5102 16.23 79.0902 16.15C79.6702 16.05 80.2502 16 80.8302 16C81.7902 16 82.5502 16.19 83.1102 16.57C83.6702 16.93 83.9502 17.53 83.9502 18.37C83.9502 18.65 83.9102 18.93 83.8302 19.21C83.7502 19.47 83.6502 19.71 83.5302 19.93C83.1102 19.93 82.6802 19.95 82.2402 19.99C81.8002 20.03 81.3702 20.09 80.9502 20.17C80.5302 20.25 80.1302 20.34 79.7502 20.44C79.3902 20.52 79.0802 20.62 78.8202 20.74V30.97ZM91.1542 25.99C91.1542 26.51 91.3142 26.88 91.6342 27.1C91.9742 27.32 92.4442 27.43 93.0442 27.43C93.3442 27.43 93.6542 27.41 93.9742 27.37C94.2942 27.31 94.5742 27.24 94.8142 27.16C94.9942 27.38 95.1442 27.63 95.2642 27.91C95.4042 28.17 95.4742 28.49 95.4742 28.87C95.4742 29.63 95.1842 30.25 94.6042 30.73C94.0442 31.21 93.0442 31.45 91.6042 31.45C89.8442 31.45 88.4842 31.05 87.5242 30.25C86.5842 29.45 86.1142 28.15 86.1142 26.35V13.51C86.3342 13.45 86.6442 13.39 87.0442 13.33C87.4642 13.25 87.9042 13.21 88.3642 13.21C89.2442 13.21 89.9242 13.37 90.4042 13.69C90.9042 13.99 91.1542 14.64 91.1542 15.64V17.56H95.0842C95.2042 17.78 95.3142 18.06 95.4142 18.4C95.5342 18.72 95.5942 19.08 95.5942 19.48C95.5942 20.18 95.4342 20.69 95.1142 21.01C94.8142 21.31 94.4042 21.46 93.8842 21.46H91.1542V25.99ZM105.6 31.48C104.42 31.48 103.32 31.32 102.3 31C101.3 30.66 100.42 30.16 99.6601 29.5C98.9201 28.84 98.3301 28.01 97.8901 27.01C97.4701 26.01 97.2601 24.84 97.2601 23.5C97.2601 22.18 97.4701 21.05 97.8901 20.11C98.3301 19.15 98.9001 18.37 99.6001 17.77C100.3 17.15 101.1 16.7 102 16.42C102.9 16.12 103.82 15.97 104.76 15.97C105.82 15.97 106.78 16.13 107.64 16.45C108.52 16.77 109.27 17.21 109.89 17.77C110.53 18.33 111.02 19 111.36 19.78C111.72 20.56 111.9 21.41 111.9 22.33C111.9 23.01 111.71 23.53 111.33 23.89C110.95 24.25 110.42 24.48 109.74 24.58L102.33 25.69C102.55 26.35 103 26.85 103.68 27.19C104.36 27.51 105.14 27.67 106.02 27.67C106.84 27.67 107.61 27.57 108.33 27.37C109.07 27.15 109.67 26.9 110.13 26.62C110.45 26.82 110.72 27.1 110.94 27.46C111.16 27.82 111.27 28.2 111.27 28.6C111.27 29.5 110.85 30.17 110.01 30.61C109.37 30.95 108.65 31.18 107.85 31.3C107.05 31.42 106.3 31.48 105.6 31.48ZM104.76 19.69C104.28 19.69 103.86 19.77 103.5 19.93C103.16 20.09 102.88 20.3 102.66 20.56C102.44 20.8 102.27 21.08 102.15 21.4C102.05 21.7 101.99 22.01 101.97 22.33L107.1 21.49C107.04 21.09 106.82 20.69 106.44 20.29C106.06 19.89 105.5 19.69 104.76 19.69ZM126.655 26.65C126.655 28.17 126.085 29.36 124.945 30.22C123.805 31.08 122.125 31.51 119.905 31.51C119.065 31.51 118.285 31.45 117.565 31.33C116.845 31.21 116.225 31.03 115.705 30.79C115.205 30.53 114.805 30.21 114.505 29.83C114.225 29.45 114.085 29 114.085 28.48C114.085 28 114.185 27.6 114.385 27.28C114.585 26.94 114.825 26.66 115.105 26.44C115.685 26.76 116.345 27.05 117.085 27.31C117.845 27.55 118.715 27.67 119.695 27.67C120.315 27.67 120.785 27.58 121.105 27.4C121.445 27.22 121.615 26.98 121.615 26.68C121.615 26.4 121.495 26.18 121.255 26.02C121.015 25.86 120.615 25.73 120.055 25.63L119.155 25.45C117.415 25.11 116.115 24.58 115.255 23.86C114.415 23.12 113.995 22.07 113.995 20.71C113.995 19.97 114.155 19.3 114.475 18.7C114.795 18.1 115.245 17.6 115.825 17.2C116.405 16.8 117.095 16.49 117.895 16.27C118.715 16.05 119.615 15.94 120.595 15.94C121.335 15.94 122.025 16 122.665 16.12C123.325 16.22 123.895 16.38 124.375 16.6C124.855 16.82 125.235 17.11 125.515 17.47C125.795 17.81 125.935 18.22 125.935 18.7C125.935 19.16 125.845 19.56 125.665 19.9C125.505 20.22 125.295 20.49 125.035 20.71C124.875 20.61 124.635 20.51 124.315 20.41C123.995 20.29 123.645 20.19 123.265 20.11C122.885 20.01 122.495 19.93 122.095 19.87C121.715 19.81 121.365 19.78 121.045 19.78C120.385 19.78 119.875 19.86 119.515 20.02C119.155 20.16 118.975 20.39 118.975 20.71C118.975 20.93 119.075 21.11 119.275 21.25C119.475 21.39 119.855 21.52 120.415 21.64L121.345 21.85C123.265 22.29 124.625 22.9 125.425 23.68C126.245 24.44 126.655 25.43 126.655 26.65Z" fill="#7B61FF"/>
</svg>
