<svg width="152" height="54" viewBox="0 0 152 54" fill="none" xmlns="http://www.w3.org/2000/svg">
<path d="M34.9511 27.9286C34.3035 26.6486 33.4885 25.472 32.4269 24.4807C30.2507 22.4422 27.3917 21.3173 24.3785 21.3173C22.797 21.3173 21.2595 21.6233 19.8146 22.2224C15.2948 24.067 14.0657 24.1489 13.4754 24.192C13.4314 24.1963 13.3917 24.1963 13.3521 24.2006C11.7618 24.3127 10.2816 23.8213 9.17587 22.8172C8.03491 21.7785 7.38293 20.2787 7.38293 18.7013C7.38293 15.7792 9.59878 12.6762 13.7045 12.6762C13.6957 12.6719 13.6825 12.6719 13.6736 12.6675C12.8234 12.4391 11.7574 12.3702 10.4314 12.4477C8.30363 12.5727 6.48866 13.3097 5.03051 14.6371C3.08339 16.6541 1.60322 19.1064 0.770621 21.8302C0.735379 21.9423 0.704542 22.05 0.673705 22.1621C-0.542149 27.0839 2.32127 28.4199 5.09219 29.7085C5.83668 30.0533 6.56795 30.3938 7.21112 30.7946C7.24196 30.8119 7.2728 30.8334 7.29923 30.8506C8.26839 31.4669 9.02609 32.2341 9.33446 33.3848C9.33887 33.3977 9.34327 33.415 9.34327 33.4279C9.3697 33.5357 9.39614 33.6434 9.41376 33.7555C9.49305 34.4364 9.4534 35.1087 9.34768 35.7509C9.34327 35.7638 9.34327 35.7811 9.33887 35.794C9.20671 36.5784 8.98644 37.3197 8.7838 37.9791C8.7794 37.9963 8.77499 38.0136 8.76618 38.0308C8.76178 38.0523 8.75297 38.0696 8.74856 38.0911C8.47103 38.9962 8.24196 39.7375 8.37411 40.1986C8.37852 40.2116 8.38292 40.2288 8.38733 40.2417C8.40936 40.3021 8.43579 40.3581 8.46662 40.4055C8.59438 40.5865 8.81464 40.6899 9.14503 40.7201C9.14503 40.7201 9.15825 40.7201 9.18468 40.7201C9.26838 40.7201 9.48865 40.7115 9.79701 40.6339C9.82345 40.6253 9.85428 40.621 9.88071 40.6124C10.0613 40.565 10.2684 40.496 10.4975 40.3969C10.9688 40.19 11.4402 39.8926 11.8895 39.5134C12.1935 39.2591 12.493 38.966 12.7794 38.6385C12.7926 38.6255 12.8014 38.6126 12.8146 38.5997C13.0481 38.3325 13.2772 38.0394 13.4974 37.7248C13.8983 37.1559 14.2728 36.6129 14.6164 36.1086C14.6252 36.0957 14.6384 36.0784 14.6472 36.0655C14.775 35.8802 14.8983 35.7035 15.0129 35.5268C15.5811 34.695 16.0833 33.958 16.5503 33.3159C16.5635 33.2986 16.5723 33.2857 16.5855 33.2684C17.1935 32.4367 17.7397 31.7643 18.2992 31.2342C18.7353 30.8032 19.189 30.411 19.6604 30.0576C19.6868 30.0361 19.7177 30.0145 19.7441 29.9973C21.7926 28.4889 24.1758 27.7002 26.7309 27.7002C26.9511 27.7002 27.167 27.7045 27.3828 27.7174C27.4181 27.7174 27.4533 27.7217 27.493 27.726C28.7661 27.8036 29.9952 28.0837 31.1449 28.5406C31.1582 28.5449 31.1758 28.5535 31.189 28.5578C31.8982 28.8423 32.5767 29.2 33.211 29.618C33.2242 29.6267 33.233 29.6353 33.2463 29.6396C33.7925 30.0016 34.3123 30.4154 34.7925 30.8679C34.8013 30.8765 34.8145 30.8894 34.8233 30.8981C35.2418 31.2946 35.6295 31.7255 35.9907 32.1867C35.9995 32.191 35.9995 30.0016 34.9511 27.9286Z" fill="white"/>
<path d="M19.665 30.0663C19.1936 30.4197 18.7399 30.8119 18.3037 31.2429C17.7443 31.7687 17.198 32.4453 16.5901 33.2771C19.6606 32.9108 22.8588 32.1781 25.7707 31.1524C28.1099 30.3292 29.9733 29.4155 31.1451 28.5492C29.9953 28.0924 28.7662 27.8123 27.4931 27.7347C27.1319 27.8812 26.753 28.0277 26.3478 28.1743C24.2949 28.9156 21.9821 29.5707 19.665 30.0663Z" fill="white" fill-opacity="0.7"/>
<path d="M8.7886 37.9837C8.99125 37.3243 9.21151 36.583 9.34367 35.7986C7.20711 35.4495 5.34368 34.8203 3.77541 33.9195C2.41859 33.1394 1.31286 32.1697 0.462646 31.0104C0.700531 32.0318 1.03093 33.0231 1.43621 33.9712C3.50669 36.1649 6.22914 37.3501 8.7886 37.9837Z" fill="white" fill-opacity="0.7"/>
<path d="M26.7358 27.7043C24.1807 27.7043 21.7975 28.493 19.749 30.0015C22.6653 29.3722 25.3569 28.5361 27.3878 27.7216C27.1719 27.713 26.956 27.7043 26.7358 27.7043Z" fill="white" fill-opacity="0.7"/>
<path d="M9.33476 33.385C9.02639 32.2343 8.26428 31.4715 7.29953 30.8509C6.58147 30.7474 5.90746 30.6052 5.28192 30.4328C2.7577 29.7303 0.98678 28.4805 0.00440527 26.7048C0.00440527 26.804 0 26.8988 0 26.9979C0 27.5194 0.0220263 28.0323 0.066079 28.5408C1.96915 31.7128 5.66077 32.9842 9.33476 33.385Z" fill="white" fill-opacity="0.7"/>
<path d="M5.29512 30.3937C5.88983 30.5575 6.5286 30.6954 7.21141 30.7945C6.56824 30.3937 5.83697 30.0533 5.09248 29.7085C2.32157 28.4198 -0.541859 27.0881 0.673995 22.162C0.268711 23.5842 0.0352314 25.0754 0.00439453 26.6183C0.977959 28.4198 2.74888 29.6869 5.29512 30.3937Z" fill="white" fill-opacity="0.7"/>
<path d="M9.34804 35.7512C9.45377 35.1091 9.49341 34.4367 9.41412 33.7558C9.3965 33.6437 9.37007 33.536 9.34363 33.4282C7.27756 33.1998 5.47581 32.7214 3.96921 31.9974C2.25556 31.1742 0.956005 30.045 0.0749512 28.6228C0.145435 29.3856 0.264378 30.1312 0.427373 30.8639C2.26437 33.411 5.2996 35.0832 9.34804 35.7512Z" fill="white" fill-opacity="0.7"/>
<path d="M21.7838 43.5045C20.0702 43.8019 18.3609 43.9484 16.6869 43.9484C15.9072 43.9484 15.1319 43.9182 14.3698 43.8536C12.9557 43.7329 11.5945 43.5002 10.3037 43.164C12.7486 44.3406 15.4931 45 18.3962 45C23.1847 45 27.5107 43.3278 30.775 40.423C30.1318 40.7764 29.4534 41.1125 28.7398 41.4272C26.568 42.3796 24.2288 43.0821 21.7838 43.5045Z" fill="white" fill-opacity="0.7"/>
<path d="M26.3127 33.8333C22.6255 35.1866 18.4625 35.9925 14.6167 36.1089C14.2731 36.6088 13.8986 37.1519 13.4978 37.7251C13.2775 38.0397 13.0484 38.3328 12.8149 38.6C12.9075 38.6043 13 38.6129 13.0881 38.6172C17.5947 38.8801 22.6827 38.0526 27.0484 36.3503C30.8898 34.8548 33.6475 32.8895 34.7928 30.8768C34.3082 30.42 33.7928 30.0105 33.2466 29.6485C32.1012 31.1095 29.6343 32.6137 26.3127 33.8333Z" fill="white" fill-opacity="0.7"/>
<path d="M34.8328 30.9067C33.6786 32.928 30.9121 34.8933 27.0707 36.3888C23.2337 37.8843 18.8417 38.7031 14.7712 38.7031C14.2029 38.7031 13.6434 38.6859 13.0928 38.6557C12.9915 38.6514 12.8857 38.6428 12.7844 38.6342C12.4981 38.9617 12.1985 39.2548 11.8945 39.5091C11.4408 39.8883 10.9738 40.1857 10.5025 40.3926C10.2734 40.4917 10.0664 40.5607 9.88574 40.6081C11.2734 40.9399 12.5906 41.108 13.7183 41.1942C18.3395 41.5347 23.5024 40.69 27.8813 38.8712C31.4231 37.4016 34.15 35.4191 35.6345 33.2728C35.7667 32.9194 35.89 32.5616 36.0002 32.1953V32.191C35.6389 31.7342 35.2469 31.3032 34.8328 30.9067Z" fill="white" fill-opacity="0.7"/>
<path d="M16.5549 33.3203C16.088 33.9625 15.5858 34.6951 15.0175 35.5312C14.8985 35.7036 14.7752 35.8847 14.6519 36.07C18.4844 35.9493 22.6254 35.1477 26.2994 33.7987C29.6121 32.579 32.0747 31.0835 33.2157 29.6268C32.5769 29.2088 31.9029 28.851 31.1936 28.5666C30.0174 29.4415 28.1408 30.3638 25.7884 31.1956C22.8589 32.2213 19.643 32.954 16.5549 33.3203Z" fill="white" fill-opacity="0.7"/>
<path d="M8.75308 38.0914C8.75748 38.0698 8.76629 38.0526 8.7707 38.0311C6.88965 37.5699 5.22005 36.876 3.77953 35.9537C2.9205 35.4021 2.15399 34.7771 1.47998 34.0746C2.10553 35.5012 2.91169 36.8286 3.87645 38.0354C5.30816 39.0223 6.85881 39.7119 8.37863 40.1946C8.24647 39.7334 8.47555 38.9965 8.75308 38.0914Z" fill="white" fill-opacity="0.7"/>
<path d="M28.7225 41.384C29.4934 41.0435 30.2247 40.6815 30.9163 40.2936C32.9295 38.4576 34.5287 36.1475 35.5595 33.4625C34.9912 34.2512 34.2599 35.0141 33.3613 35.7467C31.8811 36.9578 30.0441 38.0223 27.8943 38.9144C24.1454 40.4703 19.8283 41.315 15.7622 41.315C15.0706 41.315 14.3834 41.2891 13.7138 41.2417C12.3481 41.1426 11.0398 40.9357 9.80189 40.6341C9.48911 40.7073 9.27326 40.7202 9.18956 40.7202C9.16312 40.7202 9.14991 40.7202 9.14991 40.7202C8.81951 40.6901 8.59925 40.591 8.4715 40.4056C8.43625 40.3582 8.40982 40.3022 8.3922 40.2419C6.73582 39.7161 5.23803 39.0006 3.93848 38.1128C5.59926 40.1772 7.70939 41.8753 10.1235 43.0691C11.4539 43.4311 12.8768 43.6811 14.3746 43.8061C19.0926 44.2069 24.3216 43.3234 28.7225 41.384Z" fill="white" fill-opacity="0.7"/>
<path d="M30.088 13.0816C30.0704 13.073 30.0572 13.0643 30.0396 13.0557C30.0528 13.0687 30.066 13.0773 30.0792 13.0902L30.088 13.0816Z" fill="#17343E"/>
<path d="M13.6785 12.6677C13.6873 12.672 13.7006 12.672 13.7094 12.6763C14.2688 12.8314 14.7358 13.0512 15.1191 13.3443C15.9869 14.0037 16.3349 14.9389 16.705 15.9302C16.9737 16.6499 17.2512 17.3912 17.7446 18.0549C18.3041 18.8048 19.0706 19.3522 20.0882 19.7271L20.1014 19.7314L20.097 19.7185C19.3041 17.5464 20.3701 16.5982 21.3966 15.6759C22.3349 14.8355 23.2248 14.0425 22.4274 12.3789C24.4979 13.5081 25.5331 13.1417 26.5331 12.784C27.4846 12.4479 28.3833 12.1289 30.0926 13.0857C30.0882 13.0814 30.0882 13.0814 30.0838 13.0771C30.0705 13.0642 30.0573 13.0555 30.0441 13.0426C26.771 10.4395 22.6389 9 18.3966 9C13.1984 9 8.49354 11.1204 5.14553 14.5295C5.11029 14.5683 5.07064 14.6028 5.0354 14.6415C6.49354 13.3141 8.30851 12.5771 10.4363 12.4479C11.7622 12.3703 12.8283 12.4392 13.6785 12.6677Z" fill="white"/>
<path d="M30.0881 13.0816C30.0881 13.0862 30.0927 13.0862 30.0973 13.0907C30.0973 13.0862 30.0927 13.0816 30.0881 13.0816Z" fill="#17343E"/>
<path d="M30.0924 13.0993L30.097 13.0901C30.0924 13.0901 30.0924 13.0856 30.0878 13.0856L30.0833 13.0947C30.0833 13.0901 30.0878 13.0947 30.0924 13.0993Z" fill="#17343E"/>
<path d="M22.0757 26.9979C22.3659 26.9979 22.6013 26.7676 22.6013 26.4836C22.6013 26.1996 22.3659 25.9694 22.0757 25.9694C21.7854 25.9694 21.55 26.1996 21.55 26.4836C21.55 26.7676 21.7854 26.9979 22.0757 26.9979Z" fill="#3370FF"/>
<path d="M5.28191 30.4327C5.90745 30.605 6.58146 30.7473 7.29952 30.8507C7.26868 30.8335 7.23784 30.8119 7.21141 30.7947C6.533 30.6912 5.88983 30.5576 5.29512 30.3939C2.74888 29.6871 0.977959 28.42 0.00439453 26.6185C0.00439453 26.6486 0.00439453 26.6788 0.00439453 26.7047C0.986769 28.4803 2.75769 29.7302 5.28191 30.4327Z" fill="#3370FF"/>
<path d="M26.352 28.1658C26.7529 28.0192 27.1361 27.8727 27.4974 27.7261C27.4621 27.7218 27.4269 27.7218 27.3872 27.7175C25.352 28.5321 22.6648 29.3682 19.7485 29.9974C19.7221 30.019 19.6912 30.0362 19.6648 30.0578C21.982 29.5707 24.2947 28.9157 26.352 28.1658Z" fill="#3370FF"/>
<path d="M16.5904 33.2729C16.5772 33.2901 16.5684 33.3031 16.5552 33.3203C19.6433 32.954 22.8591 32.2213 25.7842 31.1913C28.1366 30.3638 30.0133 29.4415 31.1895 28.5623C31.1763 28.558 31.1586 28.5494 31.1454 28.545C29.9736 29.4113 28.1102 30.325 25.771 31.1482C22.8591 32.1739 19.6653 32.9066 16.5904 33.2729Z" fill="#3370FF"/>
<path d="M3.96923 31.9972C5.47583 32.7213 7.27759 33.1996 9.34366 33.4281C9.33925 33.4151 9.33485 33.3979 9.33485 33.385C5.66085 32.9841 1.96924 31.7128 0.0661621 28.545C0.0705674 28.5709 0.0705674 28.6011 0.0749726 28.6269C0.956026 30.0492 2.25558 31.1783 3.96923 31.9972Z" fill="#3370FF"/>
<path d="M26.2995 33.794C22.6255 35.143 18.4845 35.9446 14.6519 36.0653C14.6431 36.0782 14.6299 36.0955 14.6211 36.1084C18.4669 35.9877 22.6255 35.1861 26.3171 33.8328C29.6387 32.6131 32.1056 31.109 33.2554 29.6437C33.2422 29.6351 33.2334 29.6264 33.2201 29.6221C32.0748 31.0788 29.6122 32.5744 26.2995 33.794Z" fill="#3370FF"/>
<path d="M3.77525 33.915C5.34352 34.8158 7.20695 35.445 9.34351 35.7941C9.34791 35.7812 9.34791 35.7639 9.35232 35.751C5.29947 35.083 2.26424 33.4108 0.427246 30.868C0.436057 30.9154 0.449272 30.9628 0.458083 31.0102C1.3127 32.1652 2.41843 33.1393 3.77525 33.915Z" fill="#3370FF"/>
<path d="M3.77964 35.9534C5.22016 36.8757 6.88976 37.5696 8.77081 38.0307C8.77521 38.0135 8.77962 37.9962 8.78843 37.979C6.23337 37.3498 3.50651 36.1602 1.43604 33.9666C1.45366 34.001 1.46687 34.0398 1.48449 34.0743C2.15409 34.7768 2.92061 35.4017 3.77964 35.9534Z" fill="#3370FF"/>
<path d="M27.0531 36.3499C22.6875 38.0523 17.5994 38.8798 13.0928 38.6169C13.0003 38.6125 12.9122 38.6039 12.8197 38.5996C12.8064 38.6125 12.7976 38.6255 12.7844 38.6384C12.8857 38.647 12.9915 38.6513 13.0928 38.6599C13.6435 38.6901 14.2029 38.7074 14.7712 38.7074C18.8373 38.7074 23.2337 37.8885 27.0707 36.393C30.9121 34.8932 33.6742 32.9322 34.8328 30.9109C34.824 30.9023 34.8108 30.8894 34.802 30.8807C33.6522 32.8934 30.8945 34.8544 27.0531 36.3499Z" fill="#3370FF"/>
<path d="M8.37865 40.1991C6.85883 39.7164 5.31258 39.0268 3.87646 38.0399C3.89409 38.0657 3.91611 38.0873 3.93373 38.1131C5.23329 39.0009 6.73548 39.7164 8.38746 40.2422C8.38746 40.2292 8.38305 40.212 8.37865 40.1991Z" fill="#3370FF"/>
<path d="M27.8763 38.8755C23.4975 40.6942 18.3345 41.5389 13.7134 41.1985C12.5857 41.1166 11.2685 40.9442 9.88082 40.6123C9.84998 40.621 9.82355 40.6253 9.79712 40.6339C11.035 40.9356 12.3434 41.1381 13.709 41.2416C14.383 41.2933 15.0658 41.3148 15.7574 41.3148C19.8235 41.3148 24.1407 40.4701 27.8896 38.9143C30.0393 38.0221 31.8763 36.9576 33.3565 35.7466C34.2552 35.0139 34.9864 34.2467 35.5547 33.4624C35.5767 33.402 35.6032 33.3417 35.6252 33.277C34.145 35.419 31.4226 37.4058 27.8763 38.8755Z" fill="#3370FF"/>
<path d="M14.37 43.8492C15.1321 43.9138 15.9074 43.944 16.6871 43.944C18.3611 43.944 20.066 43.7932 21.784 43.5001C24.229 43.0777 26.5726 42.3752 28.7444 41.4185C29.4536 41.1038 30.132 40.772 30.7796 40.4143C30.828 40.3712 30.8721 40.3281 30.9206 40.285C30.2289 40.6729 29.4977 41.0349 28.7267 41.3754C24.3259 43.3148 19.0968 44.2026 14.3744 43.8018C12.8722 43.6768 11.4537 43.4268 10.1233 43.0648C10.185 43.095 10.2466 43.1251 10.3083 43.1553C11.5947 43.5001 12.9559 43.7328 14.37 43.8492Z" fill="#3370FF"/>
<path d="M27.4978 18.4427C28.3907 18.4427 29.1146 17.7345 29.1146 16.861C29.1146 15.9874 28.3907 15.2793 27.4978 15.2793C26.6049 15.2793 25.8811 15.9874 25.8811 16.861C25.8811 17.7345 26.6049 18.4427 27.4978 18.4427Z" fill="white"/>
<path d="M31.2964 20.5027C31.5837 20.2216 31.5837 19.7659 31.2964 19.4848C31.0091 19.2038 30.5433 19.2038 30.256 19.4848C29.9687 19.7659 29.9687 20.2216 30.256 20.5027C30.5433 20.7838 31.0091 20.7838 31.2964 20.5027Z" fill="white"/>
<path d="M52.532 29.324C51.476 28.964 50.516 28.604 49.652 28.244C48.788 27.86 48.044 27.404 47.42 26.876C46.796 26.348 46.304 25.724 45.944 25.004C45.608 24.26 45.44 23.36 45.44 22.304C45.44 20.264 46.22 18.632 47.78 17.408C49.364 16.184 51.572 15.572 54.404 15.572C55.436 15.572 56.396 15.644 57.284 15.788C58.172 15.932 58.928 16.16 59.552 16.472C60.2 16.76 60.704 17.144 61.064 17.624C61.424 18.08 61.604 18.62 61.604 19.244C61.604 19.868 61.46 20.408 61.172 20.864C60.884 21.296 60.536 21.668 60.128 21.98C59.6 21.644 58.892 21.356 58.004 21.116C57.116 20.852 56.144 20.72 55.088 20.72C54.008 20.72 53.216 20.876 52.712 21.188C52.208 21.476 51.956 21.848 51.956 22.304C51.956 22.664 52.112 22.964 52.424 23.204C52.736 23.42 53.204 23.624 53.828 23.816L55.736 24.428C57.992 25.148 59.72 26.072 60.92 27.2C62.144 28.304 62.756 29.816 62.756 31.736C62.756 33.776 61.952 35.432 60.344 36.704C58.736 37.952 56.372 38.576 53.252 38.576C52.148 38.576 51.116 38.48 50.156 38.288C49.22 38.12 48.392 37.868 47.672 37.532C46.976 37.172 46.424 36.74 46.016 36.236C45.632 35.708 45.44 35.108 45.44 34.436C45.44 33.74 45.644 33.152 46.052 32.672C46.46 32.168 46.904 31.784 47.384 31.52C48.056 32.048 48.872 32.504 49.832 32.888C50.816 33.272 51.884 33.464 53.036 33.464C54.212 33.464 55.04 33.284 55.52 32.924C56 32.564 56.24 32.144 56.24 31.664C56.24 31.184 56.048 30.824 55.664 30.584C55.28 30.32 54.74 30.068 54.044 29.828L52.532 29.324ZM83.8784 29.252C83.8784 30.74 83.6504 32.072 83.1944 33.248C82.7384 34.4 82.0904 35.372 81.2504 36.164C80.4344 36.956 79.4504 37.556 78.2984 37.964C77.1464 38.372 75.8624 38.576 74.4464 38.576C73.0304 38.576 71.7464 38.36 70.5944 37.928C69.4424 37.496 68.4464 36.884 67.6064 36.092C66.7904 35.276 66.1544 34.292 65.6984 33.14C65.2424 31.988 65.0144 30.692 65.0144 29.252C65.0144 27.836 65.2424 26.552 65.6984 25.4C66.1544 24.248 66.7904 23.276 67.6064 22.484C68.4464 21.668 69.4424 21.044 70.5944 20.612C71.7464 20.18 73.0304 19.964 74.4464 19.964C75.8624 19.964 77.1464 20.192 78.2984 20.648C79.4504 21.08 80.4344 21.704 81.2504 22.52C82.0904 23.312 82.7384 24.284 83.1944 25.436C83.6504 26.588 83.8784 27.86 83.8784 29.252ZM71.2784 29.252C71.2784 30.716 71.5544 31.844 72.1064 32.636C72.6824 33.404 73.4744 33.788 74.4824 33.788C75.4904 33.788 76.2584 33.392 76.7864 32.6C77.3384 31.808 77.6144 30.692 77.6144 29.252C77.6144 27.812 77.3384 26.708 76.7864 25.94C76.2344 25.148 75.4544 24.752 74.4464 24.752C73.4384 24.752 72.6584 25.148 72.1064 25.94C71.5544 26.708 71.2784 27.812 71.2784 29.252ZM92.9842 37.964C92.7442 38.036 92.3602 38.108 91.8322 38.18C91.3282 38.252 90.8002 38.288 90.2482 38.288C89.7202 38.288 89.2402 38.252 88.8082 38.18C88.4002 38.108 88.0522 37.964 87.7642 37.748C87.4762 37.532 87.2482 37.244 87.0802 36.884C86.9362 36.5 86.8642 36.008 86.8642 35.408V24.608C86.8642 24.056 86.9602 23.588 87.1522 23.204C87.3682 22.796 87.6682 22.436 88.0522 22.124C88.4362 21.812 88.9042 21.536 89.4562 21.296C90.0322 21.032 90.6442 20.804 91.2922 20.612C91.9402 20.42 92.6122 20.276 93.3082 20.18C94.0042 20.06 94.7002 20 95.3962 20C96.5482 20 97.4602 20.228 98.1322 20.684C98.8042 21.116 99.1402 21.836 99.1402 22.844C99.1402 23.18 99.0922 23.516 98.9962 23.852C98.9002 24.164 98.7802 24.452 98.6362 24.716C98.1322 24.716 97.6162 24.74 97.0882 24.788C96.5602 24.836 96.0442 24.908 95.5402 25.004C95.0362 25.1 94.5562 25.208 94.1002 25.328C93.6682 25.424 93.2962 25.544 92.9842 25.688V37.964ZM107.785 31.988C107.785 32.612 107.977 33.056 108.361 33.32C108.769 33.584 109.333 33.716 110.053 33.716C110.413 33.716 110.785 33.692 111.169 33.644C111.553 33.572 111.889 33.488 112.177 33.392C112.393 33.656 112.573 33.956 112.717 34.292C112.885 34.604 112.969 34.988 112.969 35.444C112.969 36.356 112.621 37.1 111.925 37.676C111.253 38.252 110.053 38.54 108.325 38.54C106.213 38.54 104.581 38.06 103.429 37.1C102.301 36.14 101.737 34.58 101.737 32.42V17.012C102.001 16.94 102.373 16.868 102.853 16.796C103.357 16.7 103.885 16.652 104.437 16.652C105.493 16.652 106.309 16.844 106.885 17.228C107.485 17.588 107.785 18.368 107.785 19.568V21.872H112.501C112.645 22.136 112.777 22.472 112.897 22.88C113.041 23.264 113.113 23.696 113.113 24.176C113.113 25.016 112.921 25.628 112.537 26.012C112.177 26.372 111.685 26.552 111.061 26.552H107.785V31.988ZM125.12 38.576C123.704 38.576 122.384 38.384 121.16 38C119.96 37.592 118.904 36.992 117.992 36.2C117.104 35.408 116.396 34.412 115.868 33.212C115.364 32.012 115.112 30.608 115.112 29C115.112 27.416 115.364 26.06 115.868 24.932C116.396 23.78 117.08 22.844 117.92 22.124C118.76 21.38 119.72 20.84 120.8 20.504C121.88 20.144 122.984 19.964 124.112 19.964C125.384 19.964 126.536 20.156 127.568 20.54C128.624 20.924 129.524 21.452 130.268 22.124C131.036 22.796 131.624 23.6 132.032 24.536C132.464 25.472 132.68 26.492 132.68 27.596C132.68 28.412 132.452 29.036 131.996 29.468C131.54 29.9 130.904 30.176 130.088 30.296L121.196 31.628C121.46 32.42 122 33.02 122.816 33.428C123.632 33.812 124.568 34.004 125.624 34.004C126.608 34.004 127.532 33.884 128.396 33.644C129.284 33.38 130.004 33.08 130.556 32.744C130.94 32.984 131.264 33.32 131.528 33.752C131.792 34.184 131.924 34.64 131.924 35.12C131.924 36.2 131.42 37.004 130.412 37.532C129.644 37.94 128.78 38.216 127.82 38.36C126.86 38.504 125.96 38.576 125.12 38.576ZM124.112 24.428C123.536 24.428 123.032 24.524 122.6 24.716C122.192 24.908 121.856 25.16 121.592 25.472C121.328 25.76 121.124 26.096 120.98 26.48C120.86 26.84 120.788 27.212 120.764 27.596L126.92 26.588C126.848 26.108 126.584 25.628 126.128 25.148C125.672 24.668 125 24.428 124.112 24.428ZM150.386 32.78C150.386 34.604 149.702 36.032 148.334 37.064C146.966 38.096 144.95 38.612 142.286 38.612C141.278 38.612 140.342 38.54 139.478 38.396C138.614 38.252 137.87 38.036 137.246 37.748C136.646 37.436 136.166 37.052 135.806 36.596C135.47 36.14 135.302 35.6 135.302 34.976C135.302 34.4 135.422 33.92 135.662 33.536C135.902 33.128 136.19 32.792 136.526 32.528C137.222 32.912 138.014 33.26 138.902 33.572C139.814 33.86 140.858 34.004 142.034 34.004C142.778 34.004 143.342 33.896 143.726 33.68C144.134 33.464 144.338 33.176 144.338 32.816C144.338 32.48 144.194 32.216 143.906 32.024C143.618 31.832 143.138 31.676 142.466 31.556L141.386 31.34C139.298 30.932 137.738 30.296 136.706 29.432C135.698 28.544 135.194 27.284 135.194 25.652C135.194 24.764 135.386 23.96 135.77 23.24C136.154 22.52 136.694 21.92 137.39 21.44C138.086 20.96 138.914 20.588 139.874 20.324C140.858 20.06 141.938 19.928 143.114 19.928C144.002 19.928 144.83 20 145.598 20.144C146.39 20.264 147.074 20.456 147.65 20.72C148.226 20.984 148.682 21.332 149.018 21.764C149.354 22.172 149.522 22.664 149.522 23.24C149.522 23.792 149.414 24.272 149.198 24.68C149.006 25.064 148.754 25.388 148.442 25.652C148.25 25.532 147.962 25.412 147.578 25.292C147.194 25.148 146.774 25.028 146.318 24.932C145.862 24.812 145.394 24.716 144.914 24.644C144.458 24.572 144.038 24.536 143.654 24.536C142.862 24.536 142.25 24.632 141.818 24.824C141.386 24.992 141.17 25.268 141.17 25.652C141.17 25.916 141.29 26.132 141.53 26.3C141.77 26.468 142.226 26.624 142.898 26.768L144.014 27.02C146.318 27.548 147.95 28.28 148.91 29.216C149.894 30.128 150.386 31.316 150.386 32.78Z" fill="white"/>
</svg>
