<svg width="30" height="30" viewBox="0 0 30 30" fill="none" xmlns="http://www.w3.org/2000/svg">
<path d="M16.839 29.843C25.0697 29.2682 28.4723 23.519 29.9427 19.094L27.3293 14.6672L0.568055 11.414C-1.76801 23.6544 7.65519 29.8916 15.1782 29.921C15.5723 29.919 15.9628 29.9015 16.3491 29.8692C16.512 29.8631 16.6753 29.8544 16.839 29.843Z" fill="#F2EFFF"/>
<path d="M5.20493 18.1772C5.8115 18.369 6.46712 18.5352 7.16787 18.6674C7.13838 18.6498 7.10909 18.6282 7.08394 18.6108C6.42215 18.4806 5.79643 18.324 5.21975 18.1417C2.75099 17.3559 1.07067 16.0867 0.199219 14.3594C0.197791 14.3875 0.196363 14.4156 0.195139 14.4397C1.07647 16.1434 2.75761 17.3965 5.20493 18.1772Z" fill="#7B61FF" stroke="#7B61FF" stroke-width="0.00750001"/>
<path d="M23.4307 15.3696C23.4459 15.3707 23.4609 15.3709 23.4756 15.3726C23.0902 15.5512 22.6821 15.731 22.2549 15.9097C20.0457 16.8308 17.5625 17.6349 15.0742 18.2339C15.0852 18.2244 15.0968 18.2155 15.1084 18.2065C15.1236 18.1947 15.1391 18.1826 15.1533 18.1694L15.1523 18.1685C18.2895 17.3941 21.1804 16.3661 23.3701 15.3638C23.3913 15.3664 23.4113 15.3683 23.4307 15.3696Z" fill="#7B61FF" stroke="#7B61FF" stroke-width="0.00628593"/>
<path d="M13.2794 20.2241C13.2676 20.2399 13.2598 20.2517 13.248 20.2675C15.9942 19.932 18.8539 19.261 21.4551 18.3176C23.547 17.5598 25.2159 16.7151 26.2618 15.9098C26.2501 15.9059 26.2344 15.898 26.2226 15.894C25.1806 16.6874 23.5235 17.5242 21.4434 18.2781C18.8539 19.2176 16.0138 19.8886 13.2794 20.2241Z" fill="#7B61FF" stroke="#7B61FF" stroke-width="0.00750001"/>
<path d="M3.50187 19.0799C4.75182 19.6806 6.24666 20.0775 7.96078 20.267C7.95713 20.2563 7.95347 20.242 7.95347 20.2313C4.90533 19.8987 1.84257 18.8439 0.263672 16.2158C0.267327 16.2373 0.267327 16.2623 0.270982 16.2838C1.00195 17.4637 2.08013 18.4005 3.50187 19.0799Z" fill="#7B61FF" stroke="#7B61FF" stroke-width="0.015"/>
<path d="M21.7693 20.6961C18.5515 21.9385 14.9247 22.6767 11.568 22.7879C11.5603 22.7998 11.5487 22.8156 11.541 22.8275C14.9093 22.7164 18.5515 21.9782 21.7848 20.7318C24.6939 19.6086 26.8546 18.2234 27.8616 16.8738C27.85 16.8659 27.8423 16.858 27.8307 16.854C26.8275 18.1956 24.6708 19.5729 21.7693 20.6961Z" fill="#7B61FF" stroke="#7B61FF" stroke-width="0.00750001"/>
<path d="M0.560547 18.3613C2.18617 20.6123 4.86733 22.092 8.44434 22.6846C8.44286 22.6898 8.44221 22.6956 8.44141 22.7012C8.4406 22.7067 8.43876 22.7121 8.4375 22.7168C6.5497 22.4068 4.90333 21.8488 3.51758 21.0498C2.46775 20.4473 1.58767 19.7104 0.87793 18.8486L0.584961 18.4717C0.581105 18.4511 0.576027 18.4306 0.571289 18.4102C0.567519 18.3939 0.563852 18.3776 0.560547 18.3613Z" fill="#7B61FF" stroke="#7B61FF" stroke-width="0.00628593"/>
<path d="M3.41874 23.0027C4.5891 23.7773 5.94559 24.3601 7.47387 24.7474C7.47745 24.733 7.48103 24.7185 7.48818 24.704C5.4123 24.1755 3.19683 23.1765 1.51465 21.334C1.52896 21.3629 1.5397 21.3955 1.55402 21.4245C2.09804 22.0145 2.72081 22.5394 3.41874 23.0027Z" fill="#7B61FF" stroke="#7B61FF" stroke-width="0.00750001"/>
<path d="M22.2981 22.9794C18.5175 24.4875 14.1112 25.2206 10.2085 24.9877C10.1283 24.9839 10.052 24.9762 9.97193 24.9724C9.96048 24.9839 9.95285 24.9953 9.94141 25.0068C10.0292 25.0144 10.1207 25.0182 10.2085 25.0259C10.6853 25.0526 11.1698 25.0679 11.662 25.0679C15.1832 25.0679 18.9905 24.3424 22.3134 23.0176C25.64 21.6889 28.032 19.9517 29.0354 18.161C29.0278 18.1534 29.0163 18.1419 29.0087 18.1343C28.013 19.9173 25.6248 21.6545 22.2981 22.9794Z" fill="#7B61FF" stroke="#7B61FF" stroke-width="0.00750001"/>
<path d="M22.2929 25.0874C18.2419 26.5839 13.4655 27.2789 9.19042 26.9988C8.14712 26.9314 6.92857 26.7896 5.64482 26.5165C5.61629 26.5236 5.59184 26.5271 5.56738 26.5342C6.71257 26.7825 7.92297 26.9491 9.18635 27.0342C9.80989 27.0768 10.4416 27.0945 11.0814 27.0945C14.843 27.0945 18.8369 26.3995 22.3051 25.1193C24.2939 24.3853 25.9933 23.5094 27.3627 22.5129C28.1941 21.9101 28.8706 21.2788 29.3963 20.6334C29.4167 20.5838 29.4411 20.5341 29.4615 20.481C28.0922 22.2434 25.5736 23.8782 22.2929 25.0874Z" fill="#7B61FF" stroke="#7B61FF" stroke-width="0.00750001"/>
<path d="M11.9348 28.9342C12.5797 28.9888 13.2359 29.0143 13.8958 29.0143C15.3125 29.0143 16.7553 28.8868 18.2092 28.639C20.2784 28.282 22.2617 27.6881 24.0997 26.8792C24.6999 26.6132 25.2741 26.3326 25.8221 26.0302C25.8631 25.9938 25.9004 25.9573 25.9414 25.9209C25.3561 26.2488 24.7372 26.5549 24.0848 26.8427C20.3604 28.4824 15.9351 29.233 11.9385 28.8941C10.6672 28.7884 9.46672 28.5771 8.34082 28.271C8.39301 28.2965 8.44521 28.322 8.4974 28.3476C9.58602 28.639 10.738 28.8358 11.9348 28.9342Z" fill="#7B61FF" stroke="#7B61FF" stroke-width="0.00750001"/>
<path d="M29.9427 19.1474C28.4723 23.5723 25.0697 29.2682 16.839 29.843C16.6753 29.8544 16.512 29.8631 16.3491 29.8692C15.9628 29.9015 15.5723 29.919 15.1782 29.921C7.65519 29.8916 -1.76801 23.6544 0.568055 11.414" stroke="#7B61FF" stroke-width="0.0345001" stroke-linecap="round"/>
<path d="M29.1148 15.6621C28.5818 14.5986 27.9093 13.6202 27.0311 12.7943C25.231 11.096 22.8598 10.1522 20.3559 10.14C19.0417 10.1336 17.763 10.381 16.5599 10.8717C12.7967 12.3823 11.775 12.4452 11.2843 12.4786C11.2477 12.482 11.2148 12.4818 11.1818 12.4852C9.85986 12.5717 8.63187 12.1585 7.71709 11.3218C6.77317 10.4563 6.23743 9.21063 6.24378 7.90328C6.25553 5.48146 8.1093 2.91856 11.521 2.93511C11.5137 2.9315 11.5027 2.93145 11.4954 2.92784C10.7898 2.7351 9.90423 2.67365 8.80207 2.7326C7.03349 2.8276 5.52236 3.4311 4.30535 4.52539C2.67925 6.18924 1.43942 8.21574 0.736609 10.4699C0.706874 10.5626 0.680816 10.6518 0.654741 10.7445C-0.375383 14.8189 1.99864 15.9377 4.29599 17.0169C4.91324 17.3057 5.51954 17.5908 6.05237 17.9256C6.07793 17.94 6.10347 17.958 6.12536 17.9724C6.92822 18.4871 7.55476 19.126 7.80637 20.0809C7.80998 20.0917 7.81357 20.106 7.81352 20.1167C7.83505 20.2061 7.85658 20.2955 7.87077 20.3885C7.93393 20.9532 7.89828 21.5102 7.80784 22.042C7.80413 22.0527 7.80406 22.067 7.80034 22.0777C7.68737 22.7273 7.50136 23.3408 7.33032 23.8865C7.32659 23.9008 7.32286 23.915 7.31547 23.9293C7.31172 23.9471 7.30433 23.9614 7.30058 23.9792C7.06632 24.7282 6.87299 25.3417 6.98096 25.7244C6.98456 25.7351 6.98815 25.7494 6.99176 25.7602C7.00982 25.8103 7.03156 25.8568 7.057 25.8962C7.16243 26.0468 7.34504 26.1334 7.61947 26.1597C7.61947 26.1597 7.63045 26.1598 7.65241 26.1599C7.72196 26.1602 7.90503 26.154 8.16158 26.0909C8.18358 26.0839 8.20922 26.0804 8.23122 26.0734C8.3815 26.0348 8.55382 25.9785 8.74457 25.8973C9.13709 25.7277 9.52997 25.4832 9.90488 25.1706C10.1585 24.9611 10.4086 24.7194 10.6478 24.4491C10.6589 24.4384 10.6663 24.4278 10.6773 24.4171C10.8724 24.1966 11.0639 23.9546 11.2482 23.6947C11.5836 23.2249 11.8969 22.7763 12.1845 22.3598C12.1919 22.3491 12.2029 22.3348 12.2103 22.3242C12.3172 22.1711 12.4204 22.0251 12.5163 21.8791C12.9919 21.192 13.4121 20.5832 13.8027 20.0529C13.8138 20.0387 13.8212 20.028 13.8322 20.0137C14.3407 19.3268 14.7973 18.7718 15.2644 18.3347C15.6285 17.9792 16.0071 17.656 16.4002 17.365C16.4223 17.3472 16.448 17.3295 16.47 17.3153C18.1783 16.0734 20.1618 15.4293 22.285 15.4396C22.468 15.4405 22.6474 15.445 22.8267 15.4565C22.856 15.4567 22.8853 15.4604 22.9182 15.4641C23.9758 15.5336 24.996 15.7707 25.9496 16.154C25.9605 16.1576 25.9751 16.1648 25.9861 16.1684C26.5743 16.407 27.1366 16.7063 27.6621 17.0553C27.673 17.0625 27.6803 17.0697 27.6913 17.0733C28.1437 17.3756 28.574 17.7206 28.9712 18.0976C28.9785 18.1047 28.9894 18.1155 28.9967 18.1227C29.3429 18.453 29.6655 18.7572 29.9639 19.1409C29.9712 19.1445 29.9777 17.3845 29.1148 15.6621Z" fill="#7B61FF"/>
<path d="M11.4513 3.04288C11.4586 3.04646 11.4696 3.04646 11.4769 3.05003C11.9411 3.17876 12.3285 3.36112 12.6464 3.60426C13.3665 4.15134 13.6552 4.92725 13.9622 5.74966C14.1851 6.34679 14.4154 6.9618 14.8247 7.51245C15.2889 8.13462 15.9248 8.58873 16.7691 8.89981L16.7801 8.90338L16.7764 8.89266C16.1186 7.09053 17.003 6.30388 17.8546 5.53869C18.6331 4.84144 19.3714 4.18352 18.7098 2.80331C20.4276 3.74014 21.2865 3.43621 22.1162 3.13943C22.9056 2.86053 23.6512 2.59593 25.0693 3.38972C25.0656 3.38615 25.0656 3.38615 25.062 3.38257C25.051 3.37184 25.04 3.36469 25.0291 3.35397C22.3135 1.19427 18.8853 0 15.3657 0C11.0529 0 7.14956 1.75922 4.37187 4.58757C4.34263 4.61975 4.30974 4.64835 4.2805 4.68053C5.49026 3.57923 6.99605 2.96779 8.76134 2.86052C9.86145 2.79616 10.7459 2.85337 11.4513 3.04288Z" fill="#7B61FF"/>
<path d="M22.9165 7.83419C23.6573 7.83419 24.2579 7.24667 24.2579 6.52193C24.2579 5.79718 23.6573 5.20966 22.9165 5.20966C22.1757 5.20966 21.5752 5.79718 21.5752 6.52193C21.5752 7.24667 22.1757 7.83419 22.9165 7.83419Z" fill="#7B61FF"/>
<path d="M26.0682 9.54316C26.3065 9.30997 26.3065 8.93189 26.0682 8.6987C25.8298 8.4655 25.4433 8.4655 25.205 8.6987C24.9666 8.93189 24.9666 9.30997 25.205 9.54316C25.4433 9.77636 25.8298 9.77636 26.0682 9.54316Z" fill="#7B61FF"/>
<path d="M18.4185 14.9324C18.6593 14.9324 18.8546 14.7413 18.8546 14.5057C18.8546 14.2701 18.6593 14.0791 18.4185 14.0791C18.1777 14.0791 17.9824 14.2701 17.9824 14.5057C17.9824 14.7413 18.1777 14.9324 18.4185 14.9324Z" fill="white"/>
</svg>
