<svg width="74" height="18" viewBox="0 0 74 18" fill="none" xmlns="http://www.w3.org/2000/svg">
<path d="M9.75687 17.2952C14.5269 16.9621 16.4988 13.6302 17.351 11.0657L15.8364 8.50018L0.327149 6.61479C-1.0267 13.7086 4.43445 17.3234 8.79433 17.3404C9.02276 17.3392 9.24908 17.3291 9.47296 17.3104C9.56732 17.3069 9.66197 17.3018 9.75687 17.2952Z" fill="#F2EFFF"/>
<path d="M3.01626 10.5342C3.36779 10.6454 3.74775 10.7417 4.15387 10.8184C4.13678 10.8082 4.11981 10.7956 4.10523 10.7856C3.72169 10.7101 3.35906 10.6193 3.02485 10.5137C1.5941 10.0583 0.62028 9.32274 0.115234 8.32166C0.114407 8.33795 0.113579 8.35424 0.11287 8.36821C0.623642 9.35558 1.59793 10.0818 3.01626 10.5342Z" fill="#7B61FF" stroke="#7B61FF" stroke-width="0.0231818"/>
<path d="M12.8981 9.22154C13.1481 9.11703 13.3871 9.01252 13.6123 8.908C13.5903 8.90493 13.5683 8.90493 13.5436 8.90186C12.2746 9.48283 10.5991 10.0792 8.7807 10.528C8.76422 10.5433 8.745 10.5556 8.72852 10.571C10.1733 10.2236 11.6154 9.75641 12.8981 9.22154Z" fill="#7B61FF" stroke="#7B61FF" stroke-width="0.0231818"/>
<path d="M7.6959 11.7205C7.68909 11.7297 7.68455 11.7365 7.67773 11.7457C9.26924 11.5512 10.9266 11.1624 12.4341 10.6156C13.6464 10.1764 14.6136 9.68687 15.2198 9.22021C15.213 9.21792 15.2039 9.21335 15.1971 9.21106C14.5932 9.67086 13.6328 10.1558 12.4273 10.5927C10.9266 11.1372 9.28059 11.5261 7.6959 11.7205Z" fill="#7B61FF" stroke="#7B61FF" stroke-width="0.0231818"/>
<path d="M2.02902 11.0573C2.75342 11.4055 3.61974 11.6355 4.61315 11.7453C4.61103 11.7391 4.60891 11.7308 4.60891 11.7246C2.84238 11.5319 1.06738 10.9206 0.152344 9.39746C0.154462 9.40989 0.154462 9.4244 0.15658 9.43683C0.580208 10.1207 1.20506 10.6636 2.02902 11.0573Z" fill="#7B61FF" stroke="#7B61FF" stroke-width="0.0231818"/>
<path d="M12.6172 11.9941C10.7523 12.7141 8.65046 13.142 6.70511 13.2064C6.70063 13.2133 6.69393 13.2225 6.68945 13.2294C8.64152 13.165 10.7523 12.7371 12.6261 12.0148C14.3121 11.3639 15.5643 10.5611 16.1479 9.77896C16.1412 9.77436 16.1367 9.76976 16.13 9.76746C15.5487 10.545 14.2987 11.3431 12.6172 11.9941Z" fill="#7B61FF" stroke="#7B61FF" stroke-width="0.0231818"/>
<path d="M2.03638 12.2007C2.84023 12.6642 3.79535 12.9879 4.89048 13.1676C4.89274 13.1609 4.89274 13.152 4.89499 13.1454C2.81765 12.8017 1.26189 11.9413 0.320312 10.6329C0.324828 10.6573 0.331602 10.6817 0.336118 10.7061C0.774168 11.3004 1.34092 11.8016 2.03638 12.2007Z" fill="#7B61FF" stroke="#7B61FF" stroke-width="0.0231818"/>
<path d="M1.98045 13.331C2.65873 13.7799 3.44487 14.1177 4.33058 14.3421C4.33265 14.3337 4.33473 14.3254 4.33888 14.317C3.13581 14.0107 1.85185 13.4317 0.876953 12.3639C0.88525 12.3807 0.891473 12.3996 0.89977 12.4163C1.21506 12.7583 1.57598 13.0625 1.98045 13.331Z" fill="#7B61FF" stroke="#7B61FF" stroke-width="0.0231818"/>
<path d="M12.923 13.3173C10.7319 14.1914 8.17828 14.6162 5.91648 14.4812C5.87006 14.479 5.82584 14.4746 5.77941 14.4724C5.77277 14.479 5.76835 14.4857 5.76172 14.4923C5.81257 14.4967 5.86563 14.4989 5.91648 14.5034C6.19285 14.5189 6.47364 14.5277 6.75885 14.5277C8.79956 14.5277 11.0061 14.1073 12.9318 13.3395C14.8598 12.5694 16.246 11.5627 16.8275 10.5249C16.8231 10.5205 16.8164 10.5138 16.812 10.5094C16.235 11.5427 14.8509 12.5495 12.923 13.3173Z" fill="#7B61FF" stroke="#7B61FF" stroke-width="0.0231818"/>
<path d="M12.9217 14.539C10.574 15.4063 7.80583 15.8091 5.32822 15.6467C4.72358 15.6077 4.01738 15.5255 3.27339 15.3672C3.25686 15.3713 3.24269 15.3734 3.22852 15.3775C3.8922 15.5214 4.59368 15.618 5.32586 15.6673C5.68723 15.692 6.05332 15.7022 6.42414 15.7022C8.60415 15.7022 10.9188 15.2994 12.9287 14.5575C14.0813 14.1321 15.0662 13.6245 15.8598 13.047C16.3417 12.6976 16.7337 12.3318 17.0384 11.9578C17.0502 11.929 17.0644 11.9002 17.0762 11.8694C16.2826 12.8908 14.823 13.8382 12.9217 14.539Z" fill="#7B61FF" stroke="#7B61FF" stroke-width="0.0231818"/>
<path d="M6.91683 16.7684C7.29061 16.8001 7.67088 16.8149 8.05331 16.8149C8.87435 16.8149 9.71051 16.741 10.5532 16.5974C11.7523 16.3904 12.9018 16.0462 13.9669 15.5775C14.3148 15.4233 14.6475 15.2607 14.9651 15.0854C14.9889 15.0643 15.0105 15.0432 15.0343 15.0221C14.6951 15.2121 14.3364 15.3895 13.9583 15.5563C11.7998 16.5066 9.23517 16.9416 6.91899 16.7452C6.18221 16.684 5.48649 16.5615 4.83398 16.3841C4.86423 16.3989 4.89448 16.4137 4.92473 16.4284C5.55563 16.5974 6.22327 16.7114 6.91683 16.7684Z" fill="#7B61FF" stroke="#7B61FF" stroke-width="0.0231818"/>
<path d="M17.351 11.0966C16.4988 13.6611 14.5269 16.9621 9.75687 17.2952C9.66197 17.3018 9.56733 17.3069 9.47296 17.3104C9.24908 17.3291 9.02276 17.3392 8.79433 17.3404C4.43445 17.3234 -1.0267 13.7086 0.327149 6.61479" stroke="#7B61FF" stroke-width="0.0463635" stroke-linecap="round"/>
<path d="M16.8716 9.07685C16.5628 8.46051 16.173 7.89346 15.6641 7.41485C14.6208 6.43059 13.2466 5.88361 11.7955 5.87657C11.0339 5.87287 10.2928 6.01626 9.59553 6.30063C7.41459 7.17608 6.8225 7.21254 6.53812 7.23186C6.5169 7.23383 6.4978 7.23374 6.4787 7.23572C5.71258 7.28582 5.00091 7.04637 4.47076 6.56145C3.92372 6.05988 3.61323 5.33795 3.61691 4.58029C3.62372 3.17674 4.69806 1.69143 6.67528 1.70102C6.67105 1.69893 6.66468 1.6989 6.66045 1.69681C6.25154 1.58511 5.7383 1.54949 5.09955 1.58366C4.07458 1.63872 3.19881 1.98847 2.49351 2.62266C1.55111 3.58693 0.832576 4.76137 0.425267 6.06775C0.408033 6.12149 0.392932 6.17317 0.37782 6.22692C-0.219181 8.58816 1.15667 9.23659 2.48808 9.86203C2.84581 10.0294 3.19718 10.1946 3.50598 10.3887C3.52079 10.397 3.53559 10.4074 3.54828 10.4158C4.01357 10.7141 4.37668 11.0843 4.5225 11.6378C4.52459 11.644 4.52667 11.6523 4.52664 11.6585C4.53912 11.7103 4.5516 11.7621 4.55982 11.816C4.59642 12.1432 4.57576 12.4661 4.52335 12.7743C4.5212 12.7805 4.52116 12.7888 4.51901 12.795C4.45353 13.1714 4.34573 13.527 4.24661 13.8432C4.24444 13.8515 4.24228 13.8598 4.238 13.868C4.23583 13.8784 4.23154 13.8866 4.22937 13.897C4.09361 14.3311 3.98157 14.6866 4.04413 14.9084C4.04623 14.9146 4.04831 14.9229 4.0504 14.9291C4.06087 14.9582 4.07346 14.9851 4.0882 15.008C4.1493 15.0952 4.25514 15.1454 4.41418 15.1607C4.41418 15.1607 4.42054 15.1607 4.43327 15.1608C4.47358 15.161 4.57968 15.1573 4.72836 15.1208C4.74111 15.1167 4.75597 15.1147 4.76872 15.1106C4.85581 15.0883 4.95568 15.0557 5.06623 15.0086C5.29371 14.9103 5.5214 14.7686 5.73868 14.5875C5.88565 14.466 6.0306 14.326 6.16926 14.1693C6.17565 14.1631 6.17992 14.1569 6.18632 14.1508C6.29938 14.0229 6.41038 13.8827 6.51719 13.7321C6.71157 13.4598 6.89316 13.1998 7.05981 12.9584C7.06408 12.9522 7.07049 12.944 7.07476 12.9378C7.13672 12.8491 7.19653 12.7645 7.2521 12.6799C7.52771 12.2817 7.77128 11.9289 7.99765 11.6215C8.00406 11.6133 8.00833 11.6071 8.01473 11.5988C8.30944 11.2007 8.57407 10.879 8.84473 10.6257C9.05576 10.4197 9.27519 10.2324 9.50301 10.0638C9.51579 10.0535 9.53069 10.0432 9.54346 10.035C10.5335 9.31522 11.683 8.94195 12.9135 8.94792C13.0196 8.94844 13.1235 8.95101 13.2274 8.95773C13.2444 8.95781 13.2614 8.95996 13.2804 8.96212C13.8934 9.00236 14.4846 9.13979 15.0373 9.36191C15.0436 9.36401 15.0521 9.3682 15.0584 9.3703C15.3993 9.50858 15.7252 9.68199 16.0297 9.88427C16.0361 9.88844 16.0403 9.8926 16.0466 9.89471C16.3089 10.0699 16.5582 10.2698 16.7884 10.4883C16.7926 10.4925 16.799 10.4987 16.8032 10.5029C17.0038 10.6943 17.1908 10.8706 17.3637 11.093C17.368 11.095 17.3717 10.075 16.8716 9.07685Z" fill="#7B61FF"/>
<path d="M6.6349 1.76348C6.63914 1.76555 6.64549 1.76555 6.64973 1.76763C6.91873 1.84223 7.14325 1.94791 7.32753 2.08882C7.74481 2.40588 7.91214 2.85555 8.09006 3.33217C8.21927 3.67824 8.35271 4.03466 8.58994 4.35379C8.85895 4.71436 9.2275 4.97753 9.7168 5.15782L9.72315 5.15989L9.72103 5.15367C9.33977 4.10926 9.85236 3.65337 10.3459 3.20991C10.797 2.80582 11.2249 2.42453 10.8415 1.62464C11.8371 2.16757 12.3348 1.99143 12.8156 1.81943C13.2732 1.6578 13.7053 1.50445 14.5271 1.96449C14.525 1.96242 14.525 1.96242 14.5229 1.96034C14.5165 1.95413 14.5102 1.94998 14.5038 1.94377C12.93 0.69213 10.9432 0 8.90343 0C6.40402 0 4.14185 1.01954 2.53206 2.65869C2.51511 2.67734 2.49605 2.69392 2.47911 2.71257C3.18021 2.07432 4.05288 1.71996 5.07595 1.6578C5.71351 1.6205 6.2261 1.65365 6.6349 1.76348Z" fill="#7B61FF"/>
<path d="M13.2795 4.54025C13.7088 4.54025 14.0569 4.19975 14.0569 3.77973C14.0569 3.35971 13.7088 3.01922 13.2795 3.01922C12.8502 3.01922 12.5021 3.35971 12.5021 3.77973C12.5021 4.19975 12.8502 4.54025 13.2795 4.54025Z" fill="#7B61FF"/>
<path d="M15.106 5.53067C15.2441 5.39552 15.2441 5.17641 15.106 5.04127C14.9679 4.90612 14.7439 4.90612 14.6058 5.04127C14.4676 5.17641 14.4676 5.39552 14.6058 5.53067C14.7439 5.66581 14.9679 5.66581 15.106 5.53067Z" fill="#7B61FF"/>
<path d="M10.6726 8.65355C10.8122 8.65355 10.9254 8.54286 10.9254 8.40631C10.9254 8.26975 10.8122 8.15906 10.6726 8.15906C10.5331 8.15906 10.4199 8.26975 10.4199 8.40631C10.4199 8.54286 10.5331 8.65355 10.6726 8.65355Z" fill="white"/>
<path d="M25.2143 10.003C24.7043 9.82915 24.2407 9.65529 23.8234 9.48142C23.4061 9.29597 23.0468 9.07574 22.7454 8.82074C22.4441 8.56574 22.2065 8.26438 22.0326 7.91666C21.8703 7.55734 21.7892 7.12268 21.7892 6.61268C21.7892 5.62746 22.1659 4.83928 22.9193 4.24814C23.6843 3.65701 24.7507 3.36144 26.1184 3.36144C26.6168 3.36144 27.0804 3.39621 27.5093 3.46576C27.9382 3.53531 28.3033 3.64542 28.6046 3.7961C28.9176 3.93519 29.161 4.12064 29.3349 4.35246C29.5087 4.57269 29.5957 4.83348 29.5957 5.13485C29.5957 5.43621 29.5261 5.697 29.387 5.91723C29.2479 6.12587 29.0799 6.30552 28.8828 6.45621C28.6278 6.29393 28.2859 6.15484 27.857 6.03893C27.4282 5.91143 26.9587 5.84768 26.4487 5.84768C25.9271 5.84768 25.5446 5.92303 25.3012 6.07371C25.0578 6.2128 24.9361 6.39246 24.9361 6.61268C24.9361 6.78655 25.0115 6.93143 25.1621 7.04734C25.3128 7.15166 25.5389 7.25018 25.8402 7.34291L26.7617 7.63848C27.8512 7.9862 28.6858 8.43245 29.2653 8.97722C29.8565 9.5104 30.152 10.2406 30.152 11.1679C30.152 12.1531 29.7637 12.9529 28.9871 13.5672C28.2105 14.1699 27.0688 14.4713 25.562 14.4713C25.0289 14.4713 24.5304 14.4249 24.0668 14.3322C23.6148 14.2511 23.2149 14.1294 22.8672 13.9671C22.531 13.7932 22.2644 13.5846 22.0674 13.3412C21.8819 13.0862 21.7892 12.7964 21.7892 12.4719C21.7892 12.1357 21.8877 11.8518 22.0848 11.6199C22.2818 11.3765 22.4962 11.1911 22.7281 11.0636C23.0526 11.3186 23.4467 11.5388 23.9103 11.7243C24.3856 11.9097 24.9014 12.0024 25.4577 12.0024C26.0257 12.0024 26.4256 11.9155 26.6574 11.7416C26.8892 11.5678 27.0051 11.3649 27.0051 11.1331C27.0051 10.9013 26.9124 10.7274 26.7269 10.6115C26.5415 10.484 26.2807 10.3623 25.9445 10.2464L25.2143 10.003ZM40.3532 9.96824C40.3532 10.6869 40.2431 11.3302 40.0228 11.8981C39.8026 12.4545 39.4896 12.9239 39.084 13.3064C38.6899 13.6889 38.2147 13.9787 37.6583 14.1757C37.1019 14.3728 36.4818 14.4713 35.798 14.4713C35.1141 14.4713 34.494 14.367 33.9376 14.1583C33.3813 13.9497 32.9002 13.6541 32.4946 13.2716C32.1005 12.8776 31.7933 12.4023 31.5731 11.846C31.3529 11.2896 31.2427 10.6637 31.2427 9.96824C31.2427 9.28438 31.3529 8.66427 31.5731 8.10791C31.7933 7.55154 32.1005 7.08211 32.4946 6.69961C32.9002 6.30552 33.3813 6.00416 33.9376 5.79553C34.494 5.58689 35.1141 5.48257 35.798 5.48257C36.4818 5.48257 37.1019 5.59269 37.6583 5.81291C38.2147 6.02155 38.6899 6.32291 39.084 6.717C39.4896 7.0995 39.8026 7.56893 40.0228 8.12529C40.2431 8.68165 40.3532 9.29597 40.3532 9.96824ZM34.268 9.96824C34.268 10.6753 34.4013 11.2201 34.6678 11.6026C34.946 11.9735 35.3285 12.1589 35.8153 12.1589C36.3022 12.1589 36.6731 11.9677 36.9281 11.5852C37.1947 11.2027 37.3279 10.6637 37.3279 9.96824C37.3279 9.27279 37.1947 8.73961 36.9281 8.3687C36.6615 7.9862 36.2848 7.79495 35.798 7.79495C35.3111 7.79495 34.9344 7.9862 34.6678 8.3687C34.4013 8.73961 34.268 9.27279 34.268 9.96824ZM44.7508 14.1757C44.6349 14.2105 44.4495 14.2453 44.1945 14.28C43.951 14.3148 43.696 14.3322 43.4295 14.3322C43.1745 14.3322 42.9426 14.3148 42.734 14.28C42.537 14.2453 42.3689 14.1757 42.2298 14.0714C42.0907 13.9671 41.9806 13.828 41.8995 13.6541C41.8299 13.4687 41.7951 13.2311 41.7951 12.9413V7.72541C41.7951 7.45882 41.8415 7.23279 41.9342 7.04734C42.0386 6.8503 42.1834 6.67643 42.3689 6.52575C42.5543 6.37507 42.7804 6.24177 43.047 6.12587C43.3251 5.99837 43.6207 5.88825 43.9337 5.79553C44.2466 5.7028 44.5712 5.63325 44.9073 5.58689C45.2434 5.52894 45.5796 5.49996 45.9157 5.49996C46.4721 5.49996 46.9125 5.61007 47.2371 5.8303C47.5616 6.03893 47.7239 6.38666 47.7239 6.87348C47.7239 7.03575 47.7007 7.19802 47.6543 7.36029C47.608 7.51098 47.55 7.65007 47.4805 7.77757C47.2371 7.77757 46.9879 7.78916 46.7329 7.81234C46.4779 7.83552 46.2287 7.87029 45.9852 7.91666C45.7418 7.96302 45.51 8.01518 45.2898 8.07313C45.0812 8.1195 44.9015 8.17745 44.7508 8.247V14.1757ZM51.8989 11.2896C51.8989 11.591 51.9916 11.8054 52.1771 11.9329C52.3741 12.0604 52.6465 12.1241 52.9942 12.1241C53.1681 12.1241 53.3478 12.1126 53.5332 12.0894C53.7187 12.0546 53.8809 12.014 54.02 11.9677C54.1243 12.0952 54.2113 12.2401 54.2808 12.4023C54.362 12.553 54.4025 12.7385 54.4025 12.9587C54.4025 13.3991 54.2345 13.7585 53.8983 14.0366C53.5738 14.3148 52.9942 14.4539 52.1597 14.4539C51.1397 14.4539 50.3515 14.2221 49.7952 13.7585C49.2504 13.2948 48.978 12.5414 48.978 11.4982V4.05689C49.1055 4.02212 49.2852 3.98735 49.517 3.95258C49.7604 3.90621 50.0154 3.88303 50.282 3.88303C50.792 3.88303 51.1861 3.97576 51.4642 4.16121C51.754 4.33508 51.8989 4.71178 51.8989 5.29132V6.40405H54.1765C54.2461 6.53155 54.3098 6.69382 54.3678 6.89086C54.4373 7.07632 54.4721 7.28495 54.4721 7.51677C54.4721 7.92245 54.3793 8.21802 54.1939 8.40347C54.02 8.57734 53.7824 8.66427 53.4811 8.66427H51.8989V11.2896ZM60.271 14.4713C59.5871 14.4713 58.9496 14.3786 58.3585 14.1931C57.7789 13.9961 57.2689 13.7063 56.8285 13.3238C56.3996 12.9413 56.0577 12.4603 55.8027 11.8807C55.5593 11.3012 55.4376 10.6231 55.4376 9.84654C55.4376 9.08154 55.5593 8.42665 55.8027 7.88188C56.0577 7.32552 56.388 6.87348 56.7937 6.52575C57.1994 6.16643 57.663 5.90564 58.1846 5.74337C58.7062 5.5695 59.2394 5.48257 59.7841 5.48257C60.3985 5.48257 60.9548 5.5753 61.4532 5.76075C61.9632 5.94621 62.3979 6.20121 62.7572 6.52575C63.1281 6.8503 63.4121 7.23859 63.6091 7.69063C63.8178 8.14268 63.9221 8.63529 63.9221 9.16847C63.9221 9.56256 63.812 9.86392 63.5917 10.0726C63.3715 10.2812 63.0644 10.4145 62.6703 10.4724L58.3758 11.1157C58.5033 11.4982 58.7641 11.788 59.1582 11.9851C59.5523 12.1705 60.0044 12.2632 60.5144 12.2632C60.9896 12.2632 61.4358 12.2053 61.8531 12.0894C62.282 11.9619 62.6297 11.817 62.8963 11.6547C63.0817 11.7706 63.2382 11.9329 63.3657 12.1415C63.4932 12.3502 63.557 12.5704 63.557 12.8022C63.557 13.3238 63.3136 13.7121 62.8267 13.9671C62.4558 14.1641 62.0386 14.2974 61.5749 14.367C61.1113 14.4365 60.6766 14.4713 60.271 14.4713ZM59.7841 7.63848C59.506 7.63848 59.2625 7.68484 59.0539 7.77757C58.8569 7.87029 58.6946 7.992 58.5671 8.14268C58.4396 8.28177 58.3411 8.44404 58.2715 8.62949C58.2136 8.80336 58.1788 8.98302 58.1672 9.16847L61.1403 8.68165C61.1055 8.44984 60.978 8.21802 60.7578 7.9862C60.5375 7.75438 60.213 7.63848 59.7841 7.63848ZM72.4732 11.6721C72.4732 12.553 72.1428 13.2427 71.4821 13.7411C70.8215 14.2395 69.8478 14.4887 68.5612 14.4887C68.0744 14.4887 67.6224 14.4539 67.2051 14.3844C66.7878 14.3148 66.4285 14.2105 66.1272 14.0714C65.8374 13.9207 65.6056 13.7353 65.4317 13.515C65.2694 13.2948 65.1883 13.034 65.1883 12.7327C65.1883 12.4545 65.2462 12.2227 65.3622 12.0372C65.4781 11.8402 65.6172 11.6779 65.7794 11.5504C66.1156 11.7358 66.4981 11.9039 66.9269 12.0546C67.3674 12.1937 67.8716 12.2632 68.4395 12.2632C68.7989 12.2632 69.0712 12.2111 69.2567 12.1068C69.4537 12.0024 69.5523 11.8633 69.5523 11.6895C69.5523 11.5272 69.4827 11.3997 69.3436 11.307C69.2045 11.2143 68.9727 11.1389 68.6482 11.081L68.1266 10.9766C67.1182 10.7796 66.3648 10.4724 65.8664 10.0552C65.3795 9.62631 65.1361 9.01779 65.1361 8.22961C65.1361 7.80075 65.2289 7.41245 65.4143 7.06473C65.5998 6.717 65.8606 6.42723 66.1967 6.19541C66.5328 5.96359 66.9327 5.78394 67.3964 5.65644C67.8716 5.52894 68.3932 5.46519 68.9611 5.46519C69.39 5.46519 69.7899 5.49996 70.1608 5.5695C70.5433 5.62746 70.8736 5.72019 71.1518 5.84768C71.43 5.97518 71.6502 6.14325 71.8125 6.35189C71.9748 6.54893 72.0559 6.78655 72.0559 7.06473C72.0559 7.33132 72.0037 7.56313 71.8994 7.76018C71.8067 7.94563 71.685 8.10211 71.5343 8.22961C71.4416 8.17166 71.3025 8.1137 71.117 8.05575C70.9316 7.9862 70.7287 7.92825 70.5085 7.88188C70.2883 7.82393 70.0623 7.77757 69.8304 7.74279C69.6102 7.70802 69.4074 7.69063 69.2219 7.69063C68.8394 7.69063 68.5439 7.737 68.3352 7.82972C68.1266 7.91086 68.0223 8.04416 68.0223 8.22961C68.0223 8.35711 68.0802 8.46143 68.1961 8.54256C68.312 8.6237 68.5323 8.69904 68.8568 8.76859L69.3958 8.89029C70.5085 9.14529 71.2967 9.49881 71.7603 9.95085C72.2355 10.3913 72.4732 10.9651 72.4732 11.6721Z" fill="#7B61FF"/>
</svg>
