<svg width="24" height="28" viewBox="0 0 24 28" fill="none" xmlns="http://www.w3.org/2000/svg">
<path d="M4.63296 4.51172L12.001 0.321533L19.3691 4.51172L16.6601 6.05939L12.001 3.41688L7.34189 6.05939L4.63296 4.51172ZM19.367 9.79675L16.6581 8.24908L12.001 10.8916L7.34189 8.24908L4.63296 9.79675V12.8921L9.29208 15.5346V20.8196L12.001 22.3673L14.7099 20.8196V15.5346L19.3691 12.8921V9.79675H19.367ZM19.367 18.1771V15.0818L16.6581 16.6295V19.7248L19.367 18.1771ZM21.2911 19.272L16.6319 21.9145V25.0098L24 20.8196V12.4393L21.2911 13.9869V19.272ZM18.5821 7.15424L21.2911 8.70191V11.7973L24 10.2496V7.15424L21.2911 5.60656L18.5821 7.15424ZM9.29208 23.0355V26.1308L12.001 27.6785L14.7099 26.1308V23.0355L12.001 24.5832L9.29208 23.0355ZM4.63296 18.1771L7.34189 19.7248V16.6295L4.63296 15.0818V18.1771ZM9.29208 7.15424L12.001 8.70191L14.7099 7.15424L12.001 5.60656L9.29208 7.15424ZM2.70893 8.70191L5.41786 7.15424L2.70893 5.60656L0 7.15424V10.2496L2.70893 11.7973V8.70191ZM2.70893 13.9869L0 12.4393V20.8196L7.36805 25.0098V21.9145L2.70893 19.272V13.9869Z" fill="#F0B90B"/>
</svg>
