<svg width="30" height="30" viewBox="0 0 30 30" fill="none" xmlns="http://www.w3.org/2000/svg">
    <path d="M29.3696 23.3062L24.2289 16.2869C23.6705 15.5242 22.8435 15.0672 21.9629 14.9665C21.7624 14.9431 21.5834 14.8262 21.4832 14.6499C21.3811 14.4736 21.3704 14.2595 21.4509 14.0725C21.8036 13.2558 21.825 12.3077 21.4456 11.4407L17.9677 3.4572C17.4522 2.27173 16.287 1.5072 15 1.5072C13.713 1.5072 12.5478 2.27353 12.0323 3.4572L8.55442 11.4407C8.17675 12.3077 8.19644 13.2558 8.54905 14.0725C8.6296 14.2595 8.61707 14.4736 8.51684 14.6499C8.41481 14.8262 8.2376 14.9431 8.03713 14.9665C7.15648 15.0672 6.32953 15.5242 5.77107 16.2869L0.630361 23.3062C-0.132153 24.3477 -0.209122 25.7437 0.433467 26.8644C1.07784 27.9833 2.32006 28.6147 3.59808 28.4726L12.2166 27.5084C13.1528 27.404 13.96 26.9129 14.4863 26.197C14.6062 26.0333 14.7977 25.9361 15 25.9361C15.2023 25.9361 15.392 26.0333 15.5137 26.197C16.04 26.9129 16.8472 27.404 17.7834 27.5084L26.4019 28.4726C27.6799 28.6165 28.9222 27.9851 29.5665 26.8644C30.2091 25.7437 30.1322 24.3477 29.3696 23.3062ZM10.8026 12.4427L14.2858 4.45019C14.4111 4.16416 14.6921 3.97888 15.0018 3.97888C15.3114 3.97888 15.5925 4.16416 15.7178 4.45019L19.201 12.4427C19.3102 12.6945 19.2869 12.9859 19.1366 13.2162C18.9862 13.4464 18.732 13.585 18.4564 13.585H11.5454C11.2716 13.585 11.0156 13.4464 10.8652 13.2162C10.7149 12.9859 10.6916 12.6945 10.8008 12.4427H10.8026ZM12.5907 24.6104C12.4672 24.8568 12.2274 25.0223 11.9553 25.0529L3.3278 26.0171C3.01993 26.0513 2.71922 25.9002 2.56349 25.6303C2.40777 25.3605 2.42746 25.0241 2.61182 24.7723L7.7579 17.7458C7.92078 17.5245 8.18212 17.3986 8.45598 17.4148C8.72984 17.4292 8.97685 17.5821 9.11468 17.8213L9.12005 17.8303L12.5657 23.8278L12.5711 23.8368C12.7089 24.0761 12.716 24.3675 12.5925 24.6122L12.5907 24.6104ZM15.7088 21.8976C15.562 22.1513 15.2936 22.3096 15 22.3096C14.7082 22.3096 14.438 22.1531 14.2912 21.8994L11.6439 17.2925C11.4971 17.0388 11.4971 16.724 11.6439 16.4704C11.7906 16.2167 12.0591 16.0584 12.3527 16.0584H17.6455C17.9373 16.0584 18.2076 16.2131 18.3543 16.4686C18.5011 16.724 18.5011 17.037 18.3543 17.2907L15.7088 21.8976ZM27.4383 25.6303C27.2826 25.9002 26.9836 26.0531 26.674 26.0189L18.0465 25.0547C17.7744 25.0241 17.5346 24.8586 17.4111 24.6122C17.2875 24.3657 17.2947 24.0743 17.4325 23.8368L17.4379 23.8278L20.8835 17.8303L20.8889 17.8213C21.0267 17.5821 21.2737 17.4292 21.5476 17.4148C21.8215 17.4004 22.0828 17.5245 22.2457 17.7458L27.3918 24.7723C27.5761 25.0241 27.594 25.3605 27.4401 25.6303H27.4383Z" fill="#E81899"/>
</svg>
