<svg width="169" height="46" viewBox="0 0 169 46" fill="none" xmlns="http://www.w3.org/2000/svg">
<g clip-path="url(#clip0_10177_266)">
<path fill-rule="evenodd" clip-rule="evenodd" d="M45.1867 22.8042C45.1867 35.1224 35.2218 45.1084 22.9296 45.1084C11.2674 45.1084 1.70011 36.1199 0.749939 24.679H30.1688V20.9293H0.749939C1.70011 9.4884 11.2674 0.5 22.9296 0.5C35.2218 0.5 45.1867 10.4859 45.1867 22.8042ZM127.703 41.0673C135.415 41.0673 140.473 36.8948 140.473 30.6107C140.473 24.779 136.667 22.0141 130.908 21.0589L125.799 20.2042C121.893 19.5507 119.289 17.8414 119.289 14.0709C119.289 10.2502 122.194 7.33436 127.703 7.33436C133.061 7.33436 135.815 10.0491 136.116 13.9201H139.972C139.671 8.79228 135.765 4.21744 127.753 4.21744C119.84 4.21744 115.483 8.6917 115.483 14.2218C115.483 20.1037 119.439 22.8184 124.848 23.7233L130.006 24.5277C134.313 25.2818 136.717 27.0413 136.717 30.7615C136.717 35.1353 133.161 37.9505 127.753 37.9505C122.144 37.9505 118.638 35.2358 118.337 30.6107H114.532C114.832 36.6435 119.439 41.0673 127.703 41.0673ZM70.8471 40.3636H56.8252V4.97154H70.3464C76.3059 4.97154 80.4627 8.49062 80.4627 14.1212C80.4627 18.1933 78.1588 20.908 74.4531 21.8129V21.9638C78.8598 22.8184 81.5644 25.8348 81.5644 30.5604C81.5644 36.6435 77.1071 40.3636 70.8471 40.3636ZM69.8456 20.5059C74.1025 20.5059 76.7065 18.1933 76.7065 14.5736V14.0709C76.7065 10.4513 74.1025 8.189 69.8456 8.189H60.581V20.5059H69.8456ZM70.2963 37.1462C74.9538 37.1462 77.8082 34.5823 77.8082 30.661V30.1582C77.8082 26.0861 74.9038 23.6228 70.2462 23.6228H60.581V37.1462H70.2963ZM111.895 40.3636H107.889L104.884 30.7615H90.8613L87.8567 40.3636H84.0505L95.619 4.97154H100.176L111.895 40.3636ZM98.0728 8.84255H97.7724L91.8629 27.5943H103.932L98.0728 8.84255ZM146.114 40.3636V4.97154H168.75V8.23927H149.87V20.4053H167.248V23.6228H149.87V37.0959H168.75V40.3636H146.114Z" fill="#0052FF"/>
</g>
<defs>
<clipPath id="clip0_10177_266">
<rect width="168" height="45" fill="white" transform="translate(0.749939 0.5)"/>
</clipPath>
</defs>
</svg>
