<svg width="316" height="56" viewBox="0 0 316 56" fill="none" xmlns="http://www.w3.org/2000/svg">
<path d="M10.0908 8.92419L24.904 0.5L39.7171 8.92419L34.2709 12.0357L24.904 6.72306L15.537 12.0357L10.0908 8.92419ZM39.7131 19.5495L34.2669 16.438L24.904 21.7506L15.537 16.438L10.0908 19.5495V25.7726L19.4578 31.0852V41.7105L24.904 44.8221L30.3502 41.7105V31.0852L39.7171 25.7726V19.5495H39.7131ZM39.7131 36.3979V30.1748L34.2669 33.2864V39.5094L39.7131 36.3979ZM43.5812 38.599L34.2143 43.9117V50.1347L49.0274 41.7105V24.8622L43.5812 27.9737V38.599ZM38.1351 14.2368L43.5812 17.3484V23.5714L49.0274 20.4599V14.2368L43.5812 11.1253L38.1351 14.2368ZM19.4578 46.1654V52.3885L24.904 55.5L30.3502 52.3885V46.1654L24.904 49.2769L19.4578 46.1654ZM10.0908 36.3979L15.537 39.5094V33.2864L10.0908 30.1748V36.3979ZM19.4578 14.2368L24.904 17.3484L30.3502 14.2368L24.904 11.1253L19.4578 14.2368ZM6.22268 17.3484L11.6689 14.2368L6.22268 11.1253L0.776489 14.2368V20.4599L6.22268 23.5714V17.3484ZM6.22268 27.9737L0.776489 24.8622V41.7105L15.5896 50.1347V43.9117L6.22268 38.599V27.9737Z" fill="#F0B90B"/>
<path d="M62.0905 14.1186H73.3491C75.5982 14.1186 77.3765 14.7593 78.6841 16.0408C79.9917 17.3222 80.6455 19.0352 80.6455 21.1797C80.6455 23.0103 80.1879 24.3964 79.2725 25.3379C78.3834 26.2532 77.3634 26.8024 76.2127 26.9855V27.2209C77.468 27.2993 78.671 27.8747 79.8217 28.9469C80.9986 29.993 81.587 31.536 81.587 33.5759C81.587 35.825 80.9071 37.7079 79.5471 39.2248C78.2134 40.7416 76.5396 41.5 74.5259 41.5H62.0905V14.1186ZM65.3857 25.9655H72.9568C74.2644 25.9655 75.2843 25.6386 76.0166 24.9848C76.7489 24.3049 77.115 23.3634 77.115 22.1604V20.8266C77.115 19.6236 76.7489 18.6952 76.0166 18.0414C75.2843 17.3615 74.2644 17.0215 72.9568 17.0215H65.3857V25.9655ZM65.3857 38.5971H73.506C74.9443 38.5971 76.0558 38.231 76.8404 37.4987C77.6511 36.7664 78.0565 35.7203 78.0565 34.3604V33.0267C78.0565 31.6667 77.6511 30.6207 76.8404 29.8884C76.0558 29.1561 74.9443 28.79 73.506 28.79H65.3857V38.5971ZM102.979 24.7887L99.6839 18.7083H99.5662V41.5H96.3495V14.1186H100.155L110.158 30.8299L113.453 36.9103H113.571V14.1186H116.787V41.5H112.982L102.979 24.7887ZM132.715 14.1186H143.974C146.223 14.1186 148.001 14.7593 149.309 16.0408C150.617 17.3222 151.27 19.0352 151.27 21.1797C151.27 23.0103 150.813 24.3964 149.897 25.3379C149.008 26.2532 147.988 26.8024 146.838 26.9855V27.2209C148.093 27.2993 149.296 27.8747 150.447 28.9469C151.624 29.993 152.212 31.536 152.212 33.5759C152.212 35.825 151.532 37.7079 150.172 39.2248C148.838 40.7416 147.165 41.5 145.151 41.5H132.715V14.1186ZM136.011 25.9655H143.582C144.889 25.9655 145.909 25.6386 146.642 24.9848C147.374 24.3049 147.74 23.3634 147.74 22.1604V20.8266C147.74 19.6236 147.374 18.6952 146.642 18.0414C145.909 17.3615 144.889 17.0215 143.582 17.0215H136.011V25.9655ZM136.011 38.5971H144.131C145.569 38.5971 146.681 38.231 147.465 37.4987C148.276 36.7664 148.681 35.7203 148.681 34.3604V33.0267C148.681 31.6667 148.276 30.6207 147.465 29.8884C146.681 29.1561 145.569 28.79 144.131 28.79H136.011V38.5971Z" fill="#F0B90B"/>
<path d="M62.0905 14.1186V12.9417H60.9137V14.1186H62.0905ZM78.6841 16.0408L79.5078 15.2002V15.2002L78.6841 16.0408ZM79.2725 25.3379L78.4287 24.5175L78.4284 24.5179L79.2725 25.3379ZM76.2127 26.9855L76.0278 25.8233L75.0359 25.9811V26.9855H76.2127ZM76.2127 27.2209H75.0359V28.3265L76.1393 28.3954L76.2127 27.2209ZM79.8217 28.9469L79.0195 29.8079L79.0296 29.8173L79.0399 29.8265L79.8217 28.9469ZM79.5471 39.2248L78.6709 38.4391L78.6634 38.4476L79.5471 39.2248ZM62.0905 41.5H60.9137V42.6769H62.0905V41.5ZM65.3857 25.9655H64.2088V27.1424H65.3857V25.9655ZM76.0166 24.9848L76.8004 25.8627L76.809 25.855L76.8174 25.8472L76.0166 24.9848ZM76.0166 18.0414L75.2158 18.9038L75.2242 18.9116L75.2328 18.9193L76.0166 18.0414ZM65.3857 17.0215V15.8446H64.2088V17.0215H65.3857ZM65.3857 38.5971H64.2088V39.774H65.3857V38.5971ZM76.8404 37.4987L76.0516 36.6254L76.0444 36.6318L76.0374 36.6384L76.8404 37.4987ZM76.8404 29.8884L76.0374 30.7487L76.0444 30.7553L76.0516 30.7617L76.8404 29.8884ZM65.3857 28.79V27.6131H64.2088V28.79H65.3857ZM62.0905 14.1186V15.2954H73.3491V14.1186V12.9417H62.0905V14.1186ZM73.3491 14.1186V15.2954C75.3647 15.2954 76.8208 15.8625 77.8604 16.8813L78.6841 16.0408L79.5078 15.2002C77.9322 13.6561 75.8316 12.9417 73.3491 12.9417V14.1186ZM78.6841 16.0408L77.8604 16.8813C78.9035 17.9035 79.4687 19.2928 79.4687 21.1797H80.6455H81.8224C81.8224 18.7776 81.08 16.741 79.5078 15.2002L78.6841 16.0408ZM80.6455 21.1797H79.4687C79.4687 22.8262 79.0583 23.87 78.4287 24.5175L79.2725 25.3379L80.1163 26.1583C81.3175 24.9228 81.8224 23.1945 81.8224 21.1797H80.6455ZM79.2725 25.3379L78.4284 24.5179C77.6985 25.2693 76.9035 25.6839 76.0278 25.8233L76.2127 26.9855L76.3976 28.1477C77.8234 27.9209 79.0683 27.2372 80.1167 26.1579L79.2725 25.3379ZM76.2127 26.9855H75.0359V27.2209H76.2127H77.3896V26.9855H76.2127ZM76.2127 27.2209L76.1393 28.3954C77.0601 28.453 78.0168 28.8736 79.0195 29.8079L79.8217 28.9469L80.624 28.0859C79.3253 26.8757 77.8759 26.1457 76.2861 26.0463L76.2127 27.2209ZM79.8217 28.9469L79.0399 29.8265C79.8961 30.5876 80.4102 31.7665 80.4102 33.5759H81.587H82.7639C82.7639 31.3055 82.1011 29.3984 80.6036 28.0673L79.8217 28.9469ZM81.587 33.5759H80.4102C80.4102 35.5676 79.8166 37.1613 78.6709 38.4391L79.5471 39.2248L80.4234 40.0104C81.9976 38.2546 82.7639 36.0824 82.7639 33.5759H81.587ZM79.5471 39.2248L78.6634 38.4476C77.5523 39.7113 76.2001 40.3231 74.5259 40.3231V41.5V42.6769C76.8792 42.6769 78.8745 41.7719 80.4309 40.0019L79.5471 39.2248ZM74.5259 41.5V40.3231H62.0905V41.5V42.6769H74.5259V41.5ZM62.0905 41.5H63.2674V14.1186H62.0905H60.9137V41.5H62.0905ZM65.3857 25.9655V27.1424H72.9568V25.9655V24.7887H65.3857V25.9655ZM72.9568 25.9655V27.1424C74.456 27.1424 75.7894 26.7654 76.8004 25.8627L76.0166 24.9848L75.2328 24.107C74.7793 24.5119 74.0728 24.7887 72.9568 24.7887V25.9655ZM76.0166 24.9848L76.8174 25.8472C77.8377 24.8998 78.2918 23.6185 78.2918 22.1604H77.115H75.9381C75.9381 23.1083 75.66 23.7099 75.2158 24.1224L76.0166 24.9848ZM77.115 22.1604H78.2918V20.8266H77.115H75.9381V22.1604H77.115ZM77.115 20.8266H78.2918C78.2918 19.3702 77.8379 18.0899 76.8004 17.1636L76.0166 18.0414L75.2328 18.9193C75.6598 19.3005 75.9381 19.877 75.9381 20.8266H77.115ZM76.0166 18.0414L76.8174 17.179C75.807 16.2408 74.4672 15.8446 72.9568 15.8446V17.0215V18.1983C74.0616 18.1983 74.7616 18.4821 75.2158 18.9038L76.0166 18.0414ZM72.9568 17.0215V15.8446H65.3857V17.0215V18.1983H72.9568V17.0215ZM65.3857 17.0215H64.2088V25.9655H65.3857H66.5625V17.0215H65.3857ZM65.3857 38.5971V39.774H73.506V38.5971V37.4202H65.3857V38.5971ZM73.506 38.5971V39.774C75.1389 39.774 76.5755 39.3558 77.6434 38.359L76.8404 37.4987L76.0374 36.6384C75.5362 37.1062 74.7498 37.4202 73.506 37.4202V38.5971ZM76.8404 37.4987L77.6292 38.372C78.7453 37.364 79.2333 35.9656 79.2333 34.3604H78.0565H76.8796C76.8796 35.4751 76.5569 36.1689 76.0516 36.6254L76.8404 37.4987ZM78.0565 34.3604H79.2333V33.0267H78.0565H76.8796V34.3604H78.0565ZM78.0565 33.0267H79.2333C79.2333 31.4215 78.7453 30.0231 77.6292 29.015L76.8404 29.8884L76.0516 30.7617C76.5569 31.2182 76.8796 31.912 76.8796 33.0267H78.0565ZM76.8404 29.8884L77.6434 29.028C76.5755 28.0313 75.1389 27.6131 73.506 27.6131V28.79V29.9668C74.7498 29.9668 75.5362 30.2809 76.0374 30.7487L76.8404 29.8884ZM73.506 28.79V27.6131H65.3857V28.79V29.9668H73.506V28.79ZM65.3857 28.79H64.2088V38.5971H65.3857H66.5625V28.79H65.3857ZM102.979 24.7887L101.944 25.3494L101.956 25.3715L101.969 25.3931L102.979 24.7887ZM99.6839 18.7083L100.719 18.1476L100.385 17.5314H99.6839V18.7083ZM99.5662 18.7083V17.5314H98.3893V18.7083H99.5662ZM99.5662 41.5V42.6769H100.743V41.5H99.5662ZM96.3495 41.5H95.1726V42.6769H96.3495V41.5ZM96.3495 14.1186V12.9417H95.1726V14.1186H96.3495ZM100.155 14.1186L101.164 13.5141L100.822 12.9417H100.155V14.1186ZM110.158 30.8299L111.193 30.2691L111.181 30.247L111.168 30.2254L110.158 30.8299ZM113.453 36.9103L112.418 37.471L112.752 38.0871H113.453V36.9103ZM113.571 36.9103V38.0871H114.748V36.9103H113.571ZM113.571 14.1186V12.9417H112.394V14.1186H113.571ZM116.787 14.1186H117.964V12.9417H116.787V14.1186ZM116.787 41.5V42.6769H117.964V41.5H116.787ZM112.982 41.5L111.973 42.1044L112.315 42.6769H112.982V41.5ZM102.979 24.7887L104.014 24.228L100.719 18.1476L99.6839 18.7083L98.6492 19.269L101.944 25.3494L102.979 24.7887ZM99.6839 18.7083V17.5314H99.5662V18.7083V19.8851H99.6839V18.7083ZM99.5662 18.7083H98.3893V41.5H99.5662H100.743V18.7083H99.5662ZM99.5662 41.5V40.3231H96.3495V41.5V42.6769H99.5662V41.5ZM96.3495 41.5H97.5263V14.1186H96.3495H95.1726V41.5H96.3495ZM96.3495 14.1186V15.2954H100.155V14.1186V12.9417H96.3495V14.1186ZM100.155 14.1186L99.1449 14.723L109.148 31.4343L110.158 30.8299L111.168 30.2254L101.164 13.5141L100.155 14.1186ZM110.158 30.8299L109.123 31.3906L112.418 37.471L113.453 36.9103L114.488 36.3495L111.193 30.2691L110.158 30.8299ZM113.453 36.9103V38.0871H113.571V36.9103V35.7334H113.453V36.9103ZM113.571 36.9103H114.748V14.1186H113.571H112.394V36.9103H113.571ZM113.571 14.1186V15.2954H116.787V14.1186V12.9417H113.571V14.1186ZM116.787 14.1186H115.611V41.5H116.787H117.964V14.1186H116.787ZM116.787 41.5V40.3231H112.982V41.5V42.6769H116.787V41.5ZM112.982 41.5L113.992 40.8956L103.989 24.1843L102.979 24.7887L101.969 25.3931L111.973 42.1044L112.982 41.5ZM132.715 14.1186V12.9417H131.539V14.1186H132.715ZM149.309 16.0408L150.133 15.2002V15.2002L149.309 16.0408ZM149.897 25.3379L149.054 24.5175L149.053 24.5179L149.897 25.3379ZM146.838 26.9855L146.653 25.8233L145.661 25.9811V26.9855H146.838ZM146.838 27.2209H145.661V28.3265L146.764 28.3954L146.838 27.2209ZM150.447 28.9469L149.644 29.8079L149.654 29.8173L149.665 29.8265L150.447 28.9469ZM150.172 39.2248L149.296 38.4391L149.288 38.4476L150.172 39.2248ZM132.715 41.5H131.539V42.6769H132.715V41.5ZM136.011 25.9655H134.834V27.1424H136.011V25.9655ZM146.642 24.9848L147.425 25.8627L147.434 25.855L147.442 25.8472L146.642 24.9848ZM146.642 18.0414L145.841 18.9038L145.849 18.9116L145.858 18.9193L146.642 18.0414ZM136.011 17.0215V15.8446H134.834V17.0215H136.011ZM136.011 38.5971H134.834V39.774H136.011V38.5971ZM147.465 37.4987L146.676 36.6254L146.669 36.6318L146.662 36.6384L147.465 37.4987ZM147.465 29.8884L146.662 30.7487L146.669 30.7553L146.676 30.7617L147.465 29.8884ZM136.011 28.79V27.6131H134.834V28.79H136.011ZM132.715 14.1186V15.2954H143.974V14.1186V12.9417H132.715V14.1186ZM143.974 14.1186V15.2954C145.99 15.2954 147.446 15.8625 148.485 16.8813L149.309 16.0408L150.133 15.2002C148.557 13.6561 146.457 12.9417 143.974 12.9417V14.1186ZM149.309 16.0408L148.485 16.8813C149.528 17.9035 150.094 19.2928 150.094 21.1797H151.27H152.447C152.447 18.7776 151.705 16.741 150.133 15.2002L149.309 16.0408ZM151.27 21.1797H150.094C150.094 22.8262 149.683 23.87 149.054 24.5175L149.897 25.3379L150.741 26.1583C151.942 24.9228 152.447 23.1945 152.447 21.1797H151.27ZM149.897 25.3379L149.053 24.5179C148.323 25.2693 147.528 25.6839 146.653 25.8233L146.838 26.9855L147.023 28.1477C148.448 27.9209 149.693 27.2372 150.742 26.1579L149.897 25.3379ZM146.838 26.9855H145.661V27.2209H146.838H148.015V26.9855H146.838ZM146.838 27.2209L146.764 28.3954C147.685 28.453 148.642 28.8736 149.644 29.8079L150.447 28.9469L151.249 28.0859C149.95 26.8757 148.501 26.1457 146.911 26.0463L146.838 27.2209ZM150.447 28.9469L149.665 29.8265C150.521 30.5876 151.035 31.7665 151.035 33.5759H152.212H153.389C153.389 31.3055 152.726 29.3984 151.229 28.0673L150.447 28.9469ZM152.212 33.5759H151.035C151.035 35.5676 150.441 37.1613 149.296 38.4391L150.172 39.2248L151.048 40.0104C152.622 38.2546 153.389 36.0824 153.389 33.5759H152.212ZM150.172 39.2248L149.288 38.4476C148.177 39.7113 146.825 40.3231 145.151 40.3231V41.5V42.6769C147.504 42.6769 149.499 41.7719 151.056 40.0019L150.172 39.2248ZM145.151 41.5V40.3231H132.715V41.5V42.6769H145.151V41.5ZM132.715 41.5H133.892V14.1186H132.715H131.539V41.5H132.715ZM136.011 25.9655V27.1424H143.582V25.9655V24.7887H136.011V25.9655ZM143.582 25.9655V27.1424C145.081 27.1424 146.414 26.7654 147.425 25.8627L146.642 24.9848L145.858 24.107C145.404 24.5119 144.698 24.7887 143.582 24.7887V25.9655ZM146.642 24.9848L147.442 25.8472C148.463 24.8998 148.917 23.6185 148.917 22.1604H147.74H146.563C146.563 23.1083 146.285 23.7099 145.841 24.1224L146.642 24.9848ZM147.74 22.1604H148.917V20.8266H147.74H146.563V22.1604H147.74ZM147.74 20.8266H148.917C148.917 19.3702 148.463 18.0899 147.425 17.1636L146.642 18.0414L145.858 18.9193C146.285 19.3005 146.563 19.877 146.563 20.8266H147.74ZM146.642 18.0414L147.442 17.179C146.432 16.2408 145.092 15.8446 143.582 15.8446V17.0215V18.1983C144.687 18.1983 145.387 18.4821 145.841 18.9038L146.642 18.0414ZM143.582 17.0215V15.8446H136.011V17.0215V18.1983H143.582V17.0215ZM136.011 17.0215H134.834V25.9655H136.011H137.187V17.0215H136.011ZM136.011 38.5971V39.774H144.131V38.5971V37.4202H136.011V38.5971ZM144.131 38.5971V39.774C145.764 39.774 147.2 39.3558 148.268 38.359L147.465 37.4987L146.662 36.6384C146.161 37.1062 145.375 37.4202 144.131 37.4202V38.5971ZM147.465 37.4987L148.254 38.372C149.37 37.364 149.858 35.9656 149.858 34.3604H148.681H147.505C147.505 35.4751 147.182 36.1689 146.676 36.6254L147.465 37.4987ZM148.681 34.3604H149.858V33.0267H148.681H147.505V34.3604H148.681ZM148.681 33.0267H149.858C149.858 31.4215 149.37 30.0231 148.254 29.015L147.465 29.8884L146.676 30.7617C147.182 31.2182 147.505 31.912 147.505 33.0267H148.681ZM147.465 29.8884L148.268 29.028C147.2 28.0313 145.764 27.6131 144.131 27.6131V28.79V29.9668C145.375 29.9668 146.161 30.2809 146.662 30.7487L147.465 29.8884ZM144.131 28.79V27.6131H136.011V28.79V29.9668H144.131V28.79ZM136.011 28.79H134.834V38.5971H136.011H137.187V28.79H136.011Z" fill="#F0B90B"/>
<path d="M178.451 42.5145C174.904 42.5145 172.144 41.2815 170.171 38.8155C168.197 36.3495 167.211 32.7979 167.211 28.1608C167.211 23.4969 168.197 19.8917 170.171 17.3453C172.144 14.7721 174.904 13.4855 178.451 13.4855C183.011 13.4855 186.211 15.536 188.051 19.6371L185.331 21.2855C184.744 19.7845 183.864 18.6185 182.691 17.7876C181.544 16.9298 180.131 16.501 178.451 16.501C176.078 16.501 174.211 17.3721 172.851 19.1144C171.491 20.8566 170.811 23.1752 170.811 26.0701V30.2515C170.811 33.1464 171.477 35.4114 172.811 37.0464C174.171 38.6815 176.051 39.499 178.451 39.499C180.184 39.499 181.651 39.0567 182.851 38.1722C184.078 37.2609 184.984 36.0145 185.571 34.433L188.251 36.1217C187.344 38.132 186.051 39.7 184.371 40.8258C182.691 41.9516 180.718 42.5145 178.451 42.5145Z" fill="#F0B90B"/>
<path d="M219.735 29.3268H205.615V42.032H202.255V13.968H205.615V26.3515H219.735V13.968H223.095V42.032H219.735V29.3268Z" fill="#F0B90B"/>
<path d="M256.816 42.032L254.016 33.7495H242.736L239.936 42.032H236.536L246.296 13.968H250.576L260.336 42.032H256.816ZM248.456 17.1041H248.256L243.536 30.7742H253.176L248.456 17.1041Z" fill="#F0B90B"/>
<path d="M178.451 42.5145C174.904 42.5145 172.144 41.2815 170.171 38.8155C168.197 36.3495 167.211 32.7979 167.211 28.1608C167.211 23.4969 168.197 19.8917 170.171 17.3453C172.144 14.7721 174.904 13.4855 178.451 13.4855C183.011 13.4855 186.211 15.536 188.051 19.6371L185.331 21.2855C184.744 19.7845 183.864 18.6185 182.691 17.7876C181.544 16.9298 180.131 16.501 178.451 16.501C176.078 16.501 174.211 17.3721 172.851 19.1144C171.491 20.8566 170.811 23.1752 170.811 26.0701V30.2515C170.811 33.1464 171.477 35.4114 172.811 37.0464C174.171 38.6815 176.051 39.499 178.451 39.499C180.184 39.499 181.651 39.0567 182.851 38.1722C184.078 37.2609 184.984 36.0145 185.571 34.433L188.251 36.1217C187.344 38.132 186.051 39.7 184.371 40.8258C182.691 41.9516 180.718 42.5145 178.451 42.5145Z" stroke="#F0B90B" stroke-width="1.17685"/>
<path d="M219.735 29.3268H205.615V42.032H202.255V13.968H205.615V26.3515H219.735V13.968H223.095V42.032H219.735V29.3268Z" stroke="#F0B90B" stroke-width="1.17685"/>
<path d="M256.816 42.032L254.016 33.7495H242.736L239.936 42.032H236.536L246.296 13.968H250.576L260.336 42.032H256.816ZM248.456 17.1041H248.256L243.536 30.7742H253.176L248.456 17.1041Z" stroke="#F0B90B" stroke-width="1.17685"/>
<rect x="274.458" y="13.2893" width="5.09969" height="29.4213" fill="#F0B90B"/>
<path d="M300.44 24.904L297.08 18.672H296.96V42.032H293.68V13.9679H297.56L307.76 31.0958L311.12 37.3278H311.24V13.9679H314.52V42.032H310.64L300.44 24.904Z" fill="#F0B90B" stroke="#F0B90B" stroke-width="1.17685"/>
</svg>
