<svg width="32" height="32" viewBox="0 0 32 32" fill="none" xmlns="http://www.w3.org/2000/svg">
<rect width="32" height="32" rx="16" fill="#F3BA2F"/>
<g clip-path="url(#clip0_10181_1765)">
<path d="M12.116 14.4044L16.0006 10.5202L19.8864 14.406L22.1466 12.1461L16.0006 6L9.85609 12.1441L12.116 14.404M6 16.0006L8.26029 13.7399L10.5202 16.0006L8.2599 18.2597L6 16.0006ZM12.116 17.5964L16.0006 21.4802L19.8864 17.5944L22.1478 19.8532L16.0006 26.0012L9.85609 19.8563L9.85296 19.8528L12.116 17.596M21.4802 16.0006L23.7401 13.7407L26.0012 16.0006L23.7413 18.2605L21.4802 16.0006Z" fill="white"/>
<path d="M18.2919 16.0005L16.0004 13.7054L14.305 15.4L14.1096 15.5954L13.7084 15.9966L13.7053 15.9997L13.7084 16.0028L16.0004 18.2944L18.2935 16.0013H18.2915" fill="white"/>
</g>
<defs>
<clipPath id="clip0_10181_1765">
<rect width="20" height="20" fill="white" transform="translate(6 6)"/>
</clipPath>
</defs>
</svg>
