<svg width="624" height="780" viewBox="0 0 624 780" fill="none" xmlns="http://www.w3.org/2000/svg">
<g clip-path="url(#clip0_10898_4212)">
<rect width="624" height="780" rx="16" fill="#7B61FF"/>
<circle cx="308" cy="210" r="225" fill="white" fill-opacity="0.2"/>
<circle cx="308" cy="210" r="142" fill="#F7931A"/>
<path d="M365.43 272.844C350.651 281.372 332.487 285.637 310.938 285.637C286.849 285.637 267.839 278.866 253.906 265.324C239.974 251.783 233.008 233.26 233.008 209.758C233.008 185.93 240.658 166.561 255.957 151.652C271.322 136.678 291.536 129.191 316.602 129.191C332.747 129.191 346.842 131.47 358.887 136.027V166.594C347.168 159.758 332.845 156.34 315.918 156.34C301.335 156.34 289.518 161.092 280.469 170.598C271.419 180.103 266.895 192.635 266.895 208.195C266.895 224.016 270.964 236.353 279.102 245.207C287.305 254.061 298.47 258.488 312.598 258.488C320.996 258.488 327.865 257.186 333.203 254.582V223.527H302.637V197.648H365.43V272.844Z" fill="white"/>
<path fill-rule="evenodd" clip-rule="evenodd" d="M314.658 29.6047C314.658 29.6047 315.573 33.5822 319.401 41.4157C323.229 49.2492 326.208 53.2405 326.208 53.2405L312.357 62.5243C312.357 62.5243 306.973 57.8912 303.681 51.9607C300.388 46.0303 298.077 39.8006 298.077 39.8006L314.658 29.6047Z" fill="#D7E664"/>
<path fill-rule="evenodd" clip-rule="evenodd" d="M204.61 365.797C204.61 365.797 201.641 362.869 194.235 358.171C186.83 353.472 182.266 351.62 182.266 351.62L187.619 336.369C187.619 336.369 194.396 337.505 200.306 340.854C206.215 344.203 211.541 348.326 211.541 348.326L204.61 365.797Z" fill="#7DE6C3"/>
<path fill-rule="evenodd" clip-rule="evenodd" d="M198.361 59.8043C198.361 59.8043 196.602 58.0693 192.213 55.2851C187.825 52.5008 185.12 51.4034 185.12 51.4034L188.293 42.3655C188.293 42.3655 192.309 43.0389 195.811 45.0236C199.313 47.0083 202.469 49.4514 202.469 49.4514L198.361 59.8043Z" fill="#7DE6C3"/>
<path fill-rule="evenodd" clip-rule="evenodd" d="M439.842 124.56C439.842 124.56 441.837 123.102 446.587 120.993C451.337 118.883 454.173 118.195 454.173 118.195L452.363 108.789C452.363 108.789 448.292 108.866 444.536 110.314C440.781 111.763 437.3 113.716 437.3 113.716L439.842 124.56Z" fill="#7DE6C3"/>
<path fill-rule="evenodd" clip-rule="evenodd" d="M129.243 190.651C129.243 190.651 128.779 188.225 126.746 183.442C124.712 178.659 123.108 176.221 123.108 176.221L130.848 170.579C130.848 170.579 133.773 173.412 135.53 177.034C137.288 180.655 138.5 184.457 138.5 184.457L129.243 190.651Z" fill="#7DE6C3"/>
<path opacity="0.4" fill-rule="evenodd" clip-rule="evenodd" d="M68.3613 218.804C68.3613 218.804 66.6019 217.069 62.2135 214.285C57.8251 211.501 55.1205 210.403 55.1205 210.403L58.293 201.365C58.293 201.365 62.3089 202.039 65.8109 204.024C69.3129 206.008 72.4687 208.451 72.4687 208.451L68.3613 218.804Z" fill="#7DE6C3"/>
<path opacity="0.4" fill-rule="evenodd" clip-rule="evenodd" d="M81.3903 120.088C81.3903 120.088 78.0225 119.639 70.8996 120.213C63.7767 120.787 59.8985 121.82 59.8985 121.82L55.9036 109.27C55.9036 109.27 60.8707 106.686 66.3586 105.968C71.8466 105.249 77.3338 105.32 77.3338 105.32L81.3903 120.088Z" fill="#7DE6C3"/>
<path opacity="0.4" fill-rule="evenodd" clip-rule="evenodd" d="M534.921 131.497C534.921 131.497 531.741 132.693 525.735 136.566C519.73 140.439 516.8 143.183 516.8 143.183L507.347 134.012C507.347 134.012 510.503 129.387 514.999 126.16C519.496 122.932 524.365 120.401 524.365 120.401L534.921 131.497Z" fill="#7DE6C3"/>
<path fill-rule="evenodd" clip-rule="evenodd" d="M166.966 116.473C166.966 116.473 165.534 114.089 161.532 109.823C157.529 105.558 154.889 103.603 154.889 103.603L160.875 94.6403C160.875 94.6403 165.063 96.5002 168.323 99.6454C171.584 102.791 174.339 106.339 174.339 106.339L166.966 116.473Z" fill="#FFED4E"/>
<path fill-rule="evenodd" clip-rule="evenodd" d="M522.079 198.136C522.079 198.136 519.62 196.84 513.988 195.269C508.356 193.698 505.087 193.396 505.087 193.396L505.563 182.631C505.563 182.631 510.107 182.05 514.524 183.048C518.941 184.046 523.134 185.65 523.134 185.65L522.079 198.136Z" fill="#7DE6C3"/>
<path fill-rule="evenodd" clip-rule="evenodd" d="M514.681 266.405C514.681 266.405 511.012 268.433 504.371 274.233C497.731 280.033 494.644 283.905 494.644 283.905L481.467 274.396C481.467 274.396 484.494 268.187 489.408 263.444C494.321 258.702 499.814 254.743 499.814 254.743L514.681 266.405Z" fill="#7DE6C3"/>
<path fill-rule="evenodd" clip-rule="evenodd" d="M452.4 63.3219C452.4 63.3219 450.146 63.9951 445.794 66.4436C441.443 68.892 439.524 71.0724 439.524 71.0724L433.058 64.2327C433.058 64.2327 435.326 60.8488 438.5 58.4553C441.674 56.0618 445.526 54.0385 445.526 54.0385L452.4 63.3219Z" fill="#FFED4E"/>
<path fill-rule="evenodd" clip-rule="evenodd" d="M114.508 298.551C114.508 298.551 112.781 295.851 107.937 291.069C103.094 286.287 99.894 284.123 99.894 284.123L107.231 273.59C107.231 273.59 112.313 275.593 116.261 279.109C120.208 282.625 123.539 286.622 123.539 286.622L114.508 298.551Z" fill="#7DE6C3"/>
<path fill-rule="evenodd" clip-rule="evenodd" d="M173.178 406.101C173.178 406.101 170.402 404.498 163.901 402.482C157.4 400.466 153.563 400.017 153.563 400.017L155.229 387.29C155.229 387.29 160.663 386.729 165.786 388.033C170.909 389.338 175.705 391.354 175.705 391.354L173.178 406.101Z" fill="#FFED4E"/>
<path fill-rule="evenodd" clip-rule="evenodd" d="M496.119 383.16C496.119 383.16 492.927 383.454 486.454 385.559C479.981 387.663 476.589 389.511 476.589 389.511L470.605 378.155C470.605 378.155 474.719 374.561 479.656 372.67C484.592 370.78 489.672 369.658 489.672 369.658L496.119 383.16Z" fill="#FFD15B"/>
<path fill-rule="evenodd" clip-rule="evenodd" d="M414.878 366.97C414.878 366.97 411.884 368.116 406.222 371.893C400.56 375.67 397.793 378.366 397.793 378.366L388.961 369.052C388.961 369.052 391.95 364.479 396.192 361.324C400.433 358.168 405.02 355.715 405.02 355.715L414.878 366.97Z" fill="#7DE6C3"/>
</g>
<defs>
<clipPath id="clip0_10898_4212">
<rect width="624" height="780" rx="16" fill="white"/>
</clipPath>
</defs>
</svg>
