<svg width="624" height="780" viewBox="0 0 624 780" fill="none" xmlns="http://www.w3.org/2000/svg">
<path fill-rule="evenodd" clip-rule="evenodd" d="M0 16C0 7.16344 7.16344 0 16 0H608C616.837 0 624 7.16344 624 16V764C624 772.837 616.837 780 608 780H16C7.16344 780 0 772.837 0 764V16Z" fill="#202020"/>
<mask id="mask0_10182_10227" style="mask-type:luminance" maskUnits="userSpaceOnUse" x="0" y="0" width="621" height="717">
<path fill-rule="evenodd" clip-rule="evenodd" d="M0 16C0 7.16345 7.16344 0 16 0H605C613.837 0 621 7.16344 621 16V701C621 709.837 613.837 717 605 717H16C7.16344 717 0 709.837 0 701V16Z" fill="white"/>
</mask>
<g mask="url(#mask0_10182_10227)">
<circle cx="311" cy="159" r="225" fill="white" fill-opacity="0.25"/>
<circle cx="310" cy="157" r="142" fill="#202020"/>
<g clip-path="url(#clip0_10182_10227)">
<path d="M281.872 143.033L311.004 113.903L340.146 143.045L357.097 126.097L311.004 80.0039L264.923 126.082L281.872 143.03M236.004 155.004L252.956 138.05L269.904 155.004L252.953 171.946L236.004 155.004ZM281.872 166.972L311.004 196.099L340.146 166.957L357.106 183.896L311.004 230.004L264.923 183.92L264.9 183.894L281.872 166.969M352.099 155.004L369.047 138.056L386.004 155.004L369.056 171.952L352.099 155.004Z" fill="#F3BA2F"/>
<path d="M328.191 155.004L311.004 137.791L298.289 150.501L296.824 151.966L293.815 154.975L293.792 154.998L293.815 155.022L311.004 172.208L328.203 155.01H328.188" fill="#F3BA2F"/>
</g>
</g>
<path fill-rule="evenodd" clip-rule="evenodd" d="M328.291 3.66428C328.291 3.66428 329.206 7.64174 333.033 15.4753C336.861 23.3088 339.841 27.3001 339.841 27.3001L325.989 36.5839C325.989 36.5839 320.606 31.9507 317.313 26.0203C314.021 20.0899 311.71 13.8601 311.71 13.8601L328.291 3.66428Z" fill="white" fill-opacity="0.6"/>
<path fill-rule="evenodd" clip-rule="evenodd" d="M128.37 170.181C128.37 170.181 132.213 169.818 139.954 167.362C147.694 164.905 151.724 162.77 151.724 162.77L159.355 175.645C159.355 175.645 154.516 179.775 148.623 181.974C142.73 184.172 136.636 185.496 136.636 185.496L128.37 170.181Z" fill="white" fill-opacity="0.8"/>
<path fill-rule="evenodd" clip-rule="evenodd" d="M141.874 120.837C141.874 120.837 140.115 119.103 135.726 116.318C131.338 113.534 128.633 112.437 128.633 112.437L131.806 103.399C131.806 103.399 135.822 104.072 139.324 106.057C142.826 108.041 145.981 110.485 145.981 110.485L141.874 120.837Z" fill="white" fill-opacity="0.5"/>
<path fill-rule="evenodd" clip-rule="evenodd" d="M471.361 151.806C471.361 151.806 469.602 150.071 465.213 147.287C460.825 144.503 458.12 143.405 458.12 143.405L461.293 134.367C461.293 134.367 465.309 135.041 468.811 137.026C472.313 139.01 475.469 141.453 475.469 141.453L471.361 151.806Z" fill="white"/>
<path fill-rule="evenodd" clip-rule="evenodd" d="M73.874 172.837C73.874 172.837 72.1145 171.103 67.7262 168.318C63.3378 165.534 60.6332 164.437 60.6332 164.437L63.8057 155.399C63.8057 155.399 67.8216 156.072 71.3236 158.057C74.8256 160.041 77.9814 162.485 77.9814 162.485L73.874 172.837Z" fill="white" fill-opacity="0.8"/>
<path fill-rule="evenodd" clip-rule="evenodd" d="M79.8244 76.089C79.8244 76.089 76.4566 75.6398 69.3337 76.2137C62.2107 76.7875 58.3326 77.8205 58.3326 77.8205L54.3376 65.2705C54.3376 65.2705 59.3048 62.687 64.7927 61.9685C70.2807 61.25 75.7679 61.3214 75.7679 61.3214L79.8244 76.089Z" fill="white" fill-opacity="0.5"/>
<path opacity="0.4" fill-rule="evenodd" clip-rule="evenodd" d="M505.631 86.7434C505.631 86.7434 508.906 85.841 515.239 82.5296C521.571 79.2182 524.738 76.752 524.738 76.752L533.319 86.7434C533.319 86.7434 529.756 91.0623 524.985 93.868C520.214 96.6737 515.135 98.752 515.135 98.752L505.631 86.7434Z" fill="white" fill-opacity="0.5"/>
<path fill-rule="evenodd" clip-rule="evenodd" d="M501.462 145.75C501.462 145.75 504.084 144.826 509.064 141.762C514.043 138.698 516.487 136.504 516.487 136.504L524.061 144.169C524.061 144.169 521.399 147.898 517.665 150.46C513.932 153.022 509.905 155.008 509.905 155.008L501.462 145.75Z" fill="white" fill-opacity="0.3"/>
<path fill-rule="evenodd" clip-rule="evenodd" d="M484.932 228.657C484.932 228.657 487.58 225.475 494.079 220.036C500.578 214.596 504.542 212.245 504.542 212.245L500.59 198.294C500.59 198.294 494.769 200.239 489.598 204.195C484.428 208.152 479.724 212.777 479.724 212.777L484.932 228.657Z" fill="white" fill-opacity="0.8"/>
<path fill-rule="evenodd" clip-rule="evenodd" d="M97.9007 237.666C97.9007 237.666 101.104 237.535 107.674 235.76C114.245 233.986 117.727 232.312 117.727 232.312L123.128 243.956C123.128 243.956 118.837 247.338 113.812 248.976C108.786 250.615 103.655 251.477 103.655 251.477L97.9007 237.666Z" fill="white" fill-opacity="0.5"/>
<path fill-rule="evenodd" clip-rule="evenodd" d="M152.084 297.522C152.084 297.522 150.326 294.841 145.43 290.114C140.533 285.386 137.309 283.258 137.309 283.258L144.528 272.644C144.528 272.644 149.633 274.59 153.619 278.062C157.606 281.533 160.98 285.493 160.98 285.493L152.084 297.522Z" fill="white" fill-opacity="0.8"/>
<path fill-rule="evenodd" clip-rule="evenodd" d="M480.871 298.015C480.871 298.015 480.611 301.21 481.572 307.948C482.532 314.686 483.769 318.346 483.769 318.346L471.553 322.288C471.553 322.288 468.72 317.617 467.706 312.429C466.693 307.241 466.462 302.044 466.462 302.044L480.871 298.015Z" fill="white" fill-opacity="0.8"/>
<path fill-rule="evenodd" clip-rule="evenodd" d="M435.497 260.773C435.497 260.773 438.693 260.53 445.198 258.527C451.703 256.524 455.124 254.73 455.124 254.73L460.929 266.179C460.929 266.179 456.758 269.708 451.793 271.521C446.827 273.334 441.73 274.375 441.73 274.375L435.497 260.773Z" fill="white" fill-opacity="0.8"/>
<path fill-rule="evenodd" clip-rule="evenodd" d="M181.114 58.4943C181.114 58.4943 180.708 55.7428 178.65 50.2671C176.593 44.7915 174.906 41.9729 174.906 41.9729L183.876 35.9966C183.876 35.9966 187.028 39.3222 188.831 43.4786C190.633 47.635 191.814 51.9691 191.814 51.9691L181.114 58.4943Z" fill="white" fill-opacity="0.8"/>
<path fill-rule="evenodd" clip-rule="evenodd" d="M419.361 35.8062C419.361 35.8062 417.602 34.0713 413.213 31.287C408.825 28.5028 406.12 27.4053 406.12 27.4053L409.293 18.3674C409.293 18.3674 413.309 19.0409 416.811 21.0256C420.313 23.0102 423.469 25.4534 423.469 25.4534L419.361 35.8062Z" fill="white" fill-opacity="0.8"/>
<path fill-rule="evenodd" clip-rule="evenodd" d="M259.571 9.1174C259.571 9.1174 258.107 12.8242 258.164 18.2198C258.221 23.6154 258.92 25.6648 258.92 25.6648L250.079 27.7455C250.079 27.7455 248.395 23.8679 248.143 19.6962C247.891 15.5246 248.233 11.3951 248.233 11.3951L259.571 9.1174Z" fill="white" fill-opacity="0.8"/>
<path fill-rule="evenodd" clip-rule="evenodd" d="M476.798 46.6687C476.798 46.6687 480.619 45.0598 487.724 40.5785C494.828 36.0972 498.234 33.1475 498.234 33.1475L510.468 39.7416C510.468 39.7416 506.913 44.4115 501.616 48.0597C496.319 51.7078 490.517 54.7967 490.517 54.7967L476.798 46.6687Z" fill="white" fill-opacity="0.8"/>
<path fill-rule="evenodd" clip-rule="evenodd" d="M445.841 76.7251C445.841 76.7251 446.278 74.4133 446.1 69.4234C445.922 64.4335 444.865 61.7282 444.865 61.7282L453.91 59.1225C453.91 59.1225 455.876 62.6902 456.545 66.6089C457.215 70.5276 457.244 74.8783 457.244 74.8783L445.841 76.7251Z" fill="white" fill-opacity="0.8"/>
<path fill-rule="evenodd" clip-rule="evenodd" d="M221.764 310.805C221.764 310.805 218.907 312.257 213.67 316.605C208.434 320.954 205.965 323.924 205.965 323.924L196.207 315.585C196.207 315.585 198.702 310.724 202.59 307.143C206.478 303.561 210.784 300.642 210.784 300.642L221.764 310.805Z" fill="white" fill-opacity="0.8"/>
<defs>
<clipPath id="clip0_10182_10227">
<rect width="150" height="150" fill="white" transform="translate(236 80)"/>
</clipPath>
</defs>
</svg>
