<svg width="77" height="77" viewBox="0 0 77 77" fill="none" xmlns="http://www.w3.org/2000/svg">
<g id="Group 4534277">
<rect id="Rectangle 543978" width="77" height="77" fill="#7B61FF"/>
<g id="Group 3">
<path id="Vector" d="M56.8347 39.0318C56.1152 37.6096 55.2097 36.3023 54.03 35.2009C51.612 32.9358 48.4353 31.686 45.0873 31.686C43.3301 31.686 41.6218 32.026 40.0163 32.6916C34.9943 34.7412 33.6287 34.8322 32.9728 34.88C32.9238 34.8848 32.8798 34.8848 32.8357 34.8896C31.0687 35.0141 29.4241 34.4682 28.1955 33.3524C26.9278 32.1984 26.2033 30.5319 26.2033 28.7792C26.2033 25.5325 28.6654 22.0846 33.2273 22.0846C33.2175 22.0799 33.2028 22.0799 33.1931 22.0751C32.2484 21.8213 31.0638 21.7446 29.5905 21.8308C27.2263 21.9697 25.2097 22.7886 23.5895 24.2635C21.426 26.5046 19.7814 29.2294 18.8563 32.2558C18.8171 32.3803 18.7829 32.5001 18.7486 32.6246C17.3977 38.0933 20.5793 39.5778 23.6581 41.0096C24.4853 41.3927 25.2978 41.771 26.0124 42.2163C26.0467 42.2355 26.081 42.2594 26.1103 42.2786C27.1872 42.9634 28.0291 43.8158 28.3717 45.0943C28.3766 45.1087 28.3815 45.1279 28.3815 45.1422C28.4109 45.2619 28.4402 45.3817 28.4598 45.5062C28.5479 46.2628 28.5039 47.0098 28.3864 47.7233C28.3815 47.7377 28.3815 47.7569 28.3766 47.7712C28.2298 48.6428 27.985 49.4664 27.7599 50.1991C27.755 50.2182 27.7501 50.2374 27.7403 50.2566C27.7354 50.2805 27.7256 50.2997 27.7207 50.3236C27.4123 51.3292 27.1578 52.1529 27.3047 52.6653C27.3096 52.6796 27.3144 52.6988 27.3193 52.7132C27.3438 52.7802 27.3732 52.8425 27.4074 52.8951C27.5494 53.0963 27.7941 53.2112 28.1612 53.2447C28.1612 53.2447 28.1759 53.2447 28.2053 53.2447C28.2983 53.2447 28.543 53.2351 28.8857 53.1489C28.915 53.1394 28.9493 53.1346 28.9787 53.125C29.1794 53.0723 29.4094 52.9957 29.6639 52.8856C30.1877 52.6557 30.7114 52.3253 31.2107 51.9039C31.5484 51.6213 31.8813 51.2957 32.1994 50.9318C32.2141 50.9174 32.2239 50.903 32.2386 50.8887C32.498 50.5918 32.7525 50.2661 32.9973 49.9166C33.4427 49.2845 33.8587 48.6811 34.2405 48.1208C34.2503 48.1064 34.265 48.0873 34.2748 48.0729C34.4167 47.867 34.5538 47.6707 34.6811 47.4743C35.3125 46.5501 35.8705 45.7312 36.3893 45.0177C36.404 44.9986 36.4138 44.9842 36.4285 44.965C37.104 44.0408 37.7109 43.2938 38.3326 42.7048C38.8171 42.2259 39.3213 41.7901 39.845 41.3975C39.8744 41.3735 39.9087 41.3496 39.938 41.3304C42.2141 39.6544 44.8622 38.778 47.7011 38.778C47.9459 38.778 48.1857 38.7828 48.4255 38.7972C48.4647 38.7972 48.5039 38.802 48.5479 38.8068C49.9625 38.893 51.3281 39.2042 52.6057 39.7118C52.6204 39.7166 52.6399 39.7262 52.6546 39.731C53.4427 40.0471 54.1965 40.4445 54.9013 40.909C54.916 40.9186 54.9258 40.9282 54.9405 40.933C55.5474 41.3352 56.125 41.7949 56.6585 42.2977C56.6683 42.3073 56.683 42.3217 56.6928 42.3313C57.1578 42.7718 57.5885 43.2507 57.9899 43.7631C57.9997 43.7679 57.9997 41.3352 56.8347 39.0318Z" fill="white"/>
<path id="Vector_2" d="M39.8501 41.4071C39.3264 41.7998 38.8222 42.2355 38.3377 42.7144C37.716 43.2986 37.1091 44.0505 36.4336 44.9747C39.8452 44.5676 43.3988 43.7536 46.6343 42.6138C49.2334 41.6992 51.3039 40.684 52.6059 39.7215C51.3283 39.2139 49.9627 38.9026 48.5481 38.8164C48.1468 38.9792 47.7258 39.142 47.2755 39.3049C44.9945 40.1285 42.4248 40.8564 39.8501 41.4071Z" fill="white" fill-opacity="0.7"/>
<path id="Vector_3" d="M27.7653 50.2042C27.9904 49.4715 28.2352 48.6478 28.382 47.7763C26.008 47.3884 23.9376 46.6893 22.195 45.6884C20.6874 44.8217 19.4588 43.7442 18.5142 42.4561C18.7785 43.591 19.1456 44.6924 19.5959 45.7459C21.8964 48.1833 24.9214 49.5002 27.7653 50.2042Z" fill="white" fill-opacity="0.7"/>
<path id="Vector_4" d="M47.7064 38.7827C44.8675 38.7827 42.2194 39.659 39.9434 41.3351C43.1837 40.6359 46.1744 39.7069 48.4309 38.8019C48.191 38.7923 47.9512 38.7827 47.7064 38.7827Z" fill="white" fill-opacity="0.7"/>
<path id="Vector_5" d="M28.372 45.0946C28.0294 43.816 27.1826 42.9684 26.1106 42.2788C25.3128 42.1639 24.5639 42.0059 23.8688 41.8143C21.0641 41.0338 19.0964 39.6451 18.0049 37.6721C18.0049 37.7823 18 37.8876 18 37.9978C18 38.5772 18.0245 39.147 18.0734 39.7121C20.188 43.2366 24.2898 44.6493 28.372 45.0946Z" fill="white" fill-opacity="0.7"/>
<path id="Vector_6" d="M23.8835 41.7709C24.5443 41.9529 25.254 42.1061 26.0127 42.2163C25.2981 41.7709 24.4855 41.3926 23.6583 41.0095C20.5795 39.5777 17.3979 38.098 18.7489 32.6245C18.2986 34.2048 18.0391 35.8617 18.0049 37.576C19.0866 39.5777 21.0543 40.9856 23.8835 41.7709Z" fill="white" fill-opacity="0.7"/>
<path id="Vector_7" d="M28.3867 47.7237C28.5042 47.0102 28.5482 46.2632 28.4601 45.5066C28.4406 45.3821 28.4112 45.2623 28.3818 45.1426C26.0862 44.8888 24.0842 44.3573 22.4102 43.5528C20.5062 42.6381 19.0622 41.3835 18.0833 39.8032C18.1616 40.6508 18.2937 41.4793 18.4748 42.2933C20.5159 45.1235 23.8884 46.9815 28.3867 47.7237Z" fill="white" fill-opacity="0.7"/>
<path id="Vector_8" d="M42.2045 56.3385C40.3004 56.6689 38.4012 56.8317 36.5412 56.8317C35.6749 56.8317 34.8134 56.7982 33.9666 56.7264C32.3954 56.5923 30.8829 56.3337 29.4487 55.9602C32.1653 57.2675 35.2148 58.0001 38.4404 58.0001C43.761 58.0001 48.5677 56.1421 52.1947 52.9146C51.48 53.3072 50.7263 53.6807 49.9333 54.0303C47.5202 55.0886 44.9211 55.8692 42.2045 56.3385Z" fill="white" fill-opacity="0.7"/>
<path id="Vector_9" d="M47.2363 45.5927C43.1394 47.0963 38.5139 47.9918 34.2407 48.1211C33.8589 48.6766 33.4429 49.28 32.9975 49.9169C32.7527 50.2665 32.4982 50.5921 32.2388 50.889C32.3416 50.8938 32.4444 50.9034 32.5422 50.9082C37.5496 51.2003 43.203 50.2808 48.0537 48.3893C52.322 46.7276 55.3861 44.544 56.6587 42.3077C56.1203 41.8 55.5476 41.3451 54.9407 40.9429C53.668 42.5662 50.927 44.2375 47.2363 45.5927Z" fill="white" fill-opacity="0.7"/>
<path id="Vector_10" d="M56.7032 42.3408C55.4207 44.5867 52.3468 46.7704 48.0786 48.432C43.8153 50.0937 38.9352 51.0036 34.4124 51.0036C33.781 51.0036 33.1594 50.9844 32.5475 50.9509C32.4349 50.9461 32.3175 50.9365 32.2049 50.927C31.8867 51.2909 31.5539 51.6165 31.2161 51.8991C30.712 52.3205 30.1931 52.6509 29.6694 52.8807C29.4149 52.9909 29.1848 53.0675 28.9841 53.1202C30.526 53.4889 31.9895 53.6757 33.2426 53.7714C38.3772 54.1498 44.1138 53.2112 48.9792 51.1903C52.9146 49.5574 55.9445 47.3546 57.594 44.9698C57.7408 44.5771 57.8779 44.1797 58.0003 43.7726V43.7679C57.5989 43.2602 57.1633 42.7814 56.7032 42.3408Z" fill="white" fill-opacity="0.7"/>
<path id="Vector_11" d="M36.3946 45.0227C35.8757 45.7362 35.3177 46.5503 34.6863 47.4793C34.5541 47.6708 34.4171 47.8719 34.28 48.0778C38.5385 47.9438 43.1395 47.0531 47.2218 45.5542C50.9026 44.199 53.6388 42.5373 54.9065 40.9187C54.1968 40.4542 53.4479 40.0568 52.6599 39.7407C51.353 40.7128 49.2678 41.7376 46.654 42.6618C43.399 43.8015 39.8258 44.6156 36.3946 45.0227Z" fill="white" fill-opacity="0.7"/>
<path id="Vector_12" d="M27.7258 50.3239C27.7307 50.3 27.7405 50.2808 27.7454 50.2569C25.6553 49.7445 23.8002 48.9735 22.1996 47.9487C21.2451 47.3358 20.3934 46.6414 19.6445 45.8608C20.3396 47.4459 21.2353 48.9208 22.3073 50.2617C23.8981 51.3583 25.621 52.1245 27.3097 52.6608C27.1629 52.1484 27.4174 51.3295 27.7258 50.3239Z" fill="white" fill-opacity="0.7"/>
<path id="Vector_13" d="M49.9139 53.9823C50.7705 53.604 51.583 53.2017 52.3515 52.7708C54.5884 50.7308 56.3652 48.164 57.5106 45.1807C56.8791 46.057 56.0666 46.9046 55.0681 47.7187C53.4234 49.0643 51.3823 50.2471 48.9937 51.2384C44.8282 52.9671 40.0314 53.9057 35.5135 53.9057C34.745 53.9057 33.9815 53.8769 33.2374 53.8243C31.7201 53.7141 30.2663 53.4843 28.8909 53.1491C28.5434 53.2305 28.3035 53.2448 28.2105 53.2448C28.1812 53.2448 28.1665 53.2448 28.1665 53.2448C27.7994 53.2113 27.5546 53.1012 27.4127 52.8953C27.3735 52.8426 27.3442 52.7803 27.3246 52.7133C25.4841 52.1291 23.8199 51.3341 22.376 50.3477C24.2213 52.6415 26.5659 54.5282 29.2482 55.8547C30.7264 56.2569 32.3074 56.5347 33.9717 56.6735C39.214 57.1189 45.024 56.1372 49.9139 53.9823Z" fill="white" fill-opacity="0.7"/>
<path id="Vector_14" d="M51.4313 22.5351C51.4117 22.5255 51.397 22.5159 51.3774 22.5063C51.3921 22.5207 51.4068 22.5303 51.4215 22.5447L51.4313 22.5351Z" fill="#17343E"/>
<path id="Vector_15" d="M33.1985 22.0752C33.2083 22.08 33.223 22.08 33.2328 22.0848C33.8544 22.2572 34.3732 22.5014 34.7991 22.827C35.7633 23.5597 36.15 24.5988 36.5612 25.7002C36.8598 26.4999 37.1681 27.3236 37.7164 28.0611C38.338 28.8943 39.1897 29.5025 40.3204 29.9191L40.3351 29.9239L40.3302 29.9095C39.4491 27.496 40.6336 26.4425 41.7741 25.4177C42.8167 24.4839 43.8054 23.6028 42.9195 21.7543C45.22 23.009 46.3703 22.6019 47.4814 22.2045C48.5387 21.831 49.5372 21.4766 51.4364 22.5397C51.4315 22.5349 51.4315 22.5349 51.4266 22.5301C51.4119 22.5157 51.3972 22.5062 51.3825 22.4918C47.7457 19.5994 43.1544 18 38.4408 18C32.665 18 27.4374 20.356 23.7173 24.1439C23.6782 24.187 23.6341 24.2253 23.595 24.2684C25.2151 22.7935 27.2318 21.9746 29.5959 21.831C31.0693 21.7448 32.2538 21.8214 33.1985 22.0752Z" fill="white"/>
<path id="Vector_16" d="M51.4314 22.5352C51.4314 22.5402 51.4365 22.5402 51.4416 22.5453C51.4416 22.5402 51.4365 22.5352 51.4314 22.5352Z" fill="#17343E"/>
<path id="Vector_17" d="M51.4362 22.5548L51.4413 22.5446C51.4362 22.5446 51.4362 22.5396 51.4311 22.5396L51.426 22.5497C51.426 22.5446 51.4311 22.5497 51.4362 22.5548Z" fill="#17343E"/>
<path id="Vector_18" d="M42.5286 37.9977C42.8511 37.9977 43.1126 37.7419 43.1126 37.4263C43.1126 37.1108 42.8511 36.855 42.5286 36.855C42.2061 36.855 41.9446 37.1108 41.9446 37.4263C41.9446 37.7419 42.2061 37.9977 42.5286 37.9977Z" fill="#3370FF"/>
<path id="Vector_19" d="M23.8688 41.8142C24.5639 42.0057 25.3128 42.1637 26.1106 42.2787C26.0763 42.2595 26.0421 42.2356 26.0127 42.2164C25.2589 42.1015 24.5443 41.953 23.8835 41.7711C21.0543 40.9857 19.0866 39.5778 18.0049 37.5762C18.0049 37.6097 18.0049 37.6432 18.0049 37.6719C19.0964 39.6449 21.0641 41.0336 23.8688 41.8142Z" fill="#3370FF"/>
<path id="Vector_20" d="M47.2801 39.2954C47.7255 39.1326 48.1514 38.9698 48.5527 38.8069C48.5136 38.8022 48.4744 38.8022 48.4304 38.7974C46.169 39.7024 43.1832 40.6314 39.9429 41.3306C39.9135 41.3545 39.8792 41.3737 39.8499 41.3976C42.4245 40.8565 44.9942 40.1286 47.2801 39.2954Z" fill="#3370FF"/>
<path id="Vector_21" d="M36.4339 44.97C36.4193 44.9892 36.4095 45.0035 36.3948 45.0227C39.826 44.6156 43.3992 43.8016 46.6493 42.6571C49.2631 41.7376 51.3483 40.7128 52.6552 39.736C52.6405 39.7312 52.6209 39.7216 52.6062 39.7168C51.3042 40.6793 49.2337 41.6945 46.6346 42.6092C43.3992 43.7489 39.8505 44.563 36.4339 44.97Z" fill="#3370FF"/>
<path id="Vector_22" d="M22.4102 43.5525C24.0843 44.357 26.0862 44.8886 28.3819 45.1424C28.377 45.128 28.3721 45.1089 28.3721 45.0945C24.2898 44.6492 20.188 43.2365 18.0735 39.7168C18.0784 39.7455 18.0784 39.779 18.0833 39.8078C19.0622 41.3881 20.5062 42.6427 22.4102 43.5525Z" fill="#3370FF"/>
<path id="Vector_23" d="M47.2216 45.549C43.1394 47.0479 38.5383 47.9386 34.2799 48.0727C34.2701 48.087 34.2554 48.1062 34.2456 48.1206C38.5187 47.9865 43.1394 47.0958 47.2412 45.5921C50.9318 44.2369 53.6729 42.5657 54.9504 40.9375C54.9358 40.9279 54.926 40.9184 54.9113 40.9136C53.6386 42.5322 50.9025 44.1938 47.2216 45.549Z" fill="#3370FF"/>
<path id="Vector_24" d="M22.1946 45.6835C23.9372 46.6843 26.0076 47.3835 28.3816 47.7713C28.3865 47.757 28.3865 47.7378 28.3914 47.7234C23.8882 46.9812 20.5157 45.1232 18.4746 42.2979C18.4844 42.3505 18.4991 42.4032 18.5089 42.4559C19.4585 43.7393 20.687 44.8215 22.1946 45.6835Z" fill="#3370FF"/>
<path id="Vector_25" d="M22.1997 47.9483C23.8003 48.9731 25.6554 49.7441 27.7455 50.2565C27.7504 50.2373 27.7553 50.2182 27.7651 50.199C24.9261 49.4999 21.8962 48.1782 19.5957 45.7407C19.6153 45.779 19.63 45.8221 19.6495 45.8604C20.3935 46.641 21.2452 47.3354 22.1997 47.9483Z" fill="#3370FF"/>
<path id="Vector_26" d="M48.059 48.3889C43.2083 50.2804 37.5548 51.1998 32.5475 50.9077C32.4447 50.9029 32.3468 50.8934 32.244 50.8886C32.2293 50.9029 32.2195 50.9173 32.2048 50.9317C32.3174 50.9412 32.4349 50.946 32.5475 50.9556C33.1593 50.9891 33.7809 51.0083 34.4124 51.0083C38.9302 51.0083 43.8152 50.0984 48.0785 48.4368C52.3468 46.7703 55.4158 44.5914 56.7031 42.3455C56.6933 42.336 56.6786 42.3216 56.6688 42.312C55.3913 44.5483 52.3272 46.7272 48.059 48.3889Z" fill="#3370FF"/>
<path id="Vector_27" d="M27.3096 52.6657C25.6209 52.1294 23.9028 51.3632 22.3071 50.2666C22.3267 50.2953 22.3512 50.3193 22.3708 50.348C23.8147 51.3345 25.4838 52.1294 27.3194 52.7136C27.3194 52.6993 27.3145 52.6801 27.3096 52.6657Z" fill="#3370FF"/>
<path id="Vector_28" d="M48.9738 51.1951C44.1084 53.216 38.3718 54.1545 33.2372 53.7762C31.9841 53.6853 30.5206 53.4937 28.9787 53.125C28.9445 53.1346 28.9151 53.1393 28.8857 53.1489C30.2612 53.4841 31.7149 53.7092 33.2323 53.8241C33.9812 53.8816 34.7399 53.9055 35.5084 53.9055C40.0262 53.9055 44.8231 52.9669 48.9885 51.2382C51.3772 50.247 53.4183 49.0642 55.0629 47.7185C56.0615 46.9045 56.874 46.0521 57.5054 45.1805C57.5299 45.1135 57.5592 45.0464 57.5837 44.9746C55.9391 47.3546 52.9141 49.5622 48.9738 51.1951Z" fill="#3370FF"/>
<path id="Vector_29" d="M33.9666 56.7215C34.8134 56.7933 35.6749 56.8268 36.5412 56.8268C38.4012 56.8268 40.2955 56.6592 42.2045 56.3336C44.9211 55.8643 47.5251 55.0837 49.9382 54.0207C50.7262 53.6711 51.48 53.3024 52.1996 52.9049C52.2534 52.857 52.3024 52.8091 52.3562 52.7612C51.5877 53.1922 50.7752 53.5945 49.9186 53.9728C45.0287 56.1277 39.2187 57.1142 33.9715 56.6688C32.3024 56.5299 30.7263 56.2522 29.248 55.8499C29.3166 55.8835 29.3851 55.917 29.4536 55.9505C30.8829 56.3336 32.3954 56.5922 33.9666 56.7215Z" fill="#3370FF"/>
<path id="Vector_30" d="M48.5532 28.492C49.5453 28.492 50.3496 27.7051 50.3496 26.7345C50.3496 25.7639 49.5453 24.9771 48.5532 24.9771C47.5611 24.9771 46.7568 25.7639 46.7568 26.7345C46.7568 27.7051 47.5611 28.492 48.5532 28.492Z" fill="white"/>
<path id="Vector_31" d="M52.774 30.7808C53.0933 30.4685 53.0933 29.9622 52.774 29.6499C52.4548 29.3376 51.9373 29.3376 51.618 29.6499C51.2988 29.9622 51.2988 30.4685 51.618 30.7808C51.9373 31.0931 52.4548 31.0931 52.774 30.7808Z" fill="white"/>
</g>
</g>
</svg>
