<svg width="24" height="24" viewBox="0 0 24 24" fill="none" xmlns="http://www.w3.org/2000/svg">
<g clip-path="url(#clip0_2110_7500)">
<path d="M10.1633 16.8037C10.022 16.8037 9.88072 16.7472 9.76769 16.6342C9.54163 16.4081 9.54163 16.0549 9.76769 15.8288L14.0063 11.5902C14.2324 11.3641 14.5856 11.3641 14.8116 11.5902C15.0377 11.8163 15.0377 12.1695 14.8116 12.3955L10.573 16.6342C10.4459 16.7472 10.3046 16.8037 10.1633 16.8037Z" fill="#7256FF" stroke="#7256FF"/>
<path d="M14.4019 12.5651C14.2606 12.5651 14.1193 12.5085 14.0063 12.3955L9.76769 8.15689C9.54163 7.93083 9.54163 7.57761 9.76769 7.35155C9.99375 7.12549 10.347 7.12549 10.573 7.35155L14.8116 11.5902C15.0377 11.8162 15.0377 12.1694 14.8116 12.3955C14.6845 12.5085 14.5432 12.5651 14.4019 12.5651Z" fill="#7256FF" stroke="#7256FF"/>
<path d="M12 23.303C5.76923 23.303 0.697021 18.2308 0.697021 12C0.697021 5.76923 5.76923 0.697021 12 0.697021C18.2308 0.697021 23.303 5.76923 23.303 12C23.303 18.2308 18.2308 23.303 12 23.303ZM12 1.82732C6.3909 1.82732 1.82732 6.3909 1.82732 12C1.82732 17.6091 6.3909 22.1727 12 22.1727C17.6091 22.1727 22.1727 17.6091 22.1727 12C22.1727 6.3909 17.6091 1.82732 12 1.82732Z" fill="#7256FF" stroke="#7256FF"/>
</g>
<defs>
<clipPath id="clip0_2110_7500">
<rect width="24" height="24" fill="white"/>
</clipPath>
</defs>
</svg>
