<svg width="34" height="34" viewBox="0 0 34 34" fill="none" xmlns="http://www.w3.org/2000/svg">
<mask id="mask0_4028_1307" style="mask-type:alpha" maskUnits="userSpaceOnUse" x="0" y="0" width="34" height="34">
<rect x="0.666626" y="0.743164" width="33" height="33" fill="#D9D9D9"/>
</mask>
<g mask="url(#mask0_4028_1307)">
<path d="M8.02748 13.118C8.02754 12.8461 8.10821 12.5803 8.25931 12.3543C8.4104 12.1282 8.62512 11.952 8.87633 11.848C9.12755 11.7439 9.40397 11.7167 9.67065 11.7697C9.93734 11.8228 10.1823 11.9537 10.3746 12.1459L17.1805 18.951L23.9864 12.1458C24.2442 11.888 24.5939 11.7432 24.9585 11.7432C25.3232 11.7432 25.6729 11.888 25.9307 12.1459C26.1885 12.4037 26.3334 12.7534 26.3334 13.118C26.3334 13.4827 26.1885 13.8324 25.9307 14.0902L18.1526 21.8675C18.025 21.9952 17.8734 22.0966 17.7066 22.1657C17.5398 22.2348 17.361 22.2704 17.1805 22.2704C16.9999 22.2704 16.8211 22.2348 16.6543 22.1657C16.4875 22.0966 16.3359 21.9952 16.2083 21.8675L8.43032 14.0902C8.30243 13.9627 8.20101 13.8111 8.13188 13.6443C8.06275 13.4775 8.02727 13.2986 8.02748 13.118Z" fill="#7B61FF"/>
</g>
</svg>
