<svg width="55" height="56" viewBox="0 0 55 56" fill="none" xmlns="http://www.w3.org/2000/svg">
<path d="M47.4771 13.2295H43.5797L50.3271 31.1153C48.2927 35.7373 42.3148 36.1104 42.3148 36.1104C35.9972 36.1104 33.8184 30.9004 33.8184 30.9004L40.5112 13.2295H31.0097C30.3449 13.6321 29.3031 14.3257 28.4948 15.1519V46.9693C28.7773 47.1522 29.0642 47.3282 29.3552 47.4971C30.1931 47.9709 33.5496 48.0342 33.5496 48.0342C36.5521 48.3973 37.0449 49.753 37.0449 49.753H17.9013C17.9013 49.753 18.3943 48.3973 21.3966 48.0342C21.3966 48.0342 24.753 47.9709 25.591 47.4971C25.591 47.4971 25.9977 47.2637 26.4514 46.9693V15.138C25.6379 14.3179 24.6216 13.6298 23.9746 13.2295H15.5559L14.8494 14.3306L21.1816 31.1153C19.1471 35.7373 13.1692 36.1104 13.1692 36.1104C6.85158 36.1104 4.67285 30.9004 4.67285 30.9004L10.9959 14.2056L10.2556 13.2295H7.4691C7.19844 13.2295 6.93887 13.122 6.74749 12.9306C6.55611 12.7393 6.44859 12.4797 6.44859 12.209C6.44859 11.9384 6.55611 11.6788 6.74749 11.4874C6.93887 11.296 7.19844 11.1885 7.4691 11.1885H26.4514V7.26763C26.4534 6.99794 26.5619 6.73996 26.7533 6.54994C26.9447 6.35993 27.2034 6.2533 27.4731 6.2533C27.7428 6.2533 28.0016 6.35993 28.193 6.54994C28.3844 6.73996 28.4929 6.99794 28.4948 7.26763V11.1885H47.4771C47.7478 11.1885 48.0074 11.296 48.1987 11.4874C48.3901 11.6788 48.4976 11.9384 48.4976 12.209C48.4976 12.4797 48.3901 12.7393 48.1987 12.9306C48.0074 13.122 47.7478 13.2295 47.4771 13.2295ZM12.2012 13.9815L6.6087 29.7188H19.1381L13.6533 13.9815H12.2012ZM41.3467 13.9815L35.7544 29.7188H48.2837L42.7988 13.9815H41.3467Z" fill="white"/>
</svg>
