<svg width="375" height="307" viewBox="0 0 375 307" fill="none" xmlns="http://www.w3.org/2000/svg">
<path style="mix-blend-mode:screen" opacity="0.3" d="M432.442 125.401C426.101 128.664 421.563 134.627 420.049 141.53C414.074 137.143 406.397 135.094 398.518 136.469C386.871 138.502 378.158 147.41 375.808 158.295C373.119 157.927 370.329 157.955 367.518 158.445C364.895 158.902 362.44 159.731 360.174 160.856C357.351 158.562 353.588 157.454 349.724 158.133C344.384 159.063 340.376 163.127 339.256 168.105C336.445 166.551 333.11 165.911 329.697 166.507C322.147 167.821 316.975 174.725 317.676 182.23C315.872 181.679 313.957 181.378 311.975 181.378C301.241 181.378 292.544 190.08 292.544 200.809C292.544 203.844 293.24 206.716 294.481 209.278C293.93 210.853 293.758 212.585 294.064 214.344C295.022 219.834 300.244 223.508 305.734 222.551C307.61 222.222 309.258 221.393 310.6 220.235C314.759 223.998 320.544 225.886 326.501 224.85C331.868 223.915 336.306 220.791 339.067 216.56C342.541 218.876 346.879 219.917 351.316 219.143C356.689 218.208 361.015 214.829 363.37 210.347C367.535 211.789 372.111 212.228 376.76 211.416C377.005 211.371 377.244 211.321 377.484 211.271C380.463 224.834 393.63 233.764 407.438 231.353C417.966 229.522 425.906 221.61 428.294 211.855C432.331 212.997 436.679 213.27 441.089 212.501C443.243 212.123 445.303 211.51 447.241 210.703C448.215 211.321 449.234 211.867 450.292 212.334V100.597C438.633 102.752 430.794 113.72 432.442 125.401Z" fill="url(#paint0_linear_4028_89)"/>
<path style="mix-blend-mode:screen" opacity="0.2" d="M449.043 166.507C449.444 166.379 449.861 166.273 450.29 166.179V239.299C447.924 239.382 384.241 216.232 375.199 215.937C372.437 215.842 364.843 216.777 362.772 215.263C358.006 211.778 364.348 208.793 367.054 207.162C371.647 204.389 374.614 199.874 379.726 197.703C382.743 196.422 386.423 194.763 389.697 194.1C393.088 193.416 397.085 193.198 400.047 191.517C402.124 190.337 403.511 188.355 405.648 187.102C407.887 185.788 410.526 185.047 412.608 183.516C413.683 182.72 416.388 178.311 417.073 178.144C421.266 177.108 425.347 178.127 429.701 176.574C436.683 174.079 441.71 168.829 449.037 166.518L449.043 166.507Z" fill="url(#paint1_linear_4028_89)"/>
<path style="mix-blend-mode:screen" opacity="0.3" d="M163.15 282.367C161.532 282.11 160.104 281.38 158.986 280.344C156.95 290.599 147.151 297.49 136.744 295.817C127.395 294.319 120.672 286.415 120.324 277.309C117.73 278.026 114.946 278.21 112.113 277.755C105.829 276.75 100.737 272.819 97.9956 267.576C93.355 270.72 87.5522 272.172 81.5786 271.212C70.7399 269.474 62.9111 260.37 62.3826 249.826C59.7221 250.221 56.9551 250.226 54.1618 249.775C40.4691 247.577 30.8744 235.378 31.6377 221.833C25.6834 226.392 17.9507 228.594 9.96061 227.315C0.365525 225.771 -7.32025 219.567 -11.1601 211.384C-15.5458 213.495 -20.5931 214.338 -25.7602 213.505C-31.0164 212.661 -35.6123 210.216 -39.1405 206.752C-43.05 210.361 -48.1044 212.68 -53.5663 213.168L-26.3946 107.847C-23.5838 107.583 -20.6857 107.739 -17.7748 108.357C-3.82335 111.336 5.57357 123.989 4.88119 137.794C12.2256 142.156 16.7333 150.426 16.0199 159.298C17.9006 158.627 19.9779 158.398 22.0927 158.737C28.1325 159.709 32.4157 164.948 32.3847 170.885C34.3977 169.502 36.9184 168.847 39.5242 169.266C44.8909 170.127 48.5382 175.179 47.6769 180.546C47.6597 180.68 47.6223 180.802 47.5943 180.933C48.628 180.849 49.6812 180.868 50.7521 181.04C55.5389 181.81 59.2871 185.111 60.8541 189.356C64.9731 184.088 71.7552 181.158 78.8281 182.292C88.4569 183.839 95.2191 192.374 94.7763 201.891C96.4682 201.73 98.2085 201.782 99.9646 202.063C111.134 203.857 118.739 214.364 116.942 225.538C116.897 225.826 116.839 226.116 116.783 226.4C123.228 228.097 127.57 234.203 127.044 240.875C129.574 240.096 132.324 239.868 135.117 240.318C142.997 241.581 148.839 247.82 149.964 255.315C151.67 254.588 153.593 254.308 155.564 254.627C161.125 255.515 164.914 260.753 164.019 266.318C164.01 266.351 164.002 266.383 163.994 266.415C164.548 266.386 165.116 266.412 165.691 266.502C170.074 267.208 173.053 271.329 172.349 275.707C171.649 280.092 167.528 283.071 163.145 282.365L163.15 282.367Z" fill="url(#paint2_linear_4028_89)"/>
<path style="mix-blend-mode:screen" opacity="0.2" d="M89.3162 265.048L58.959 242.534L14.4799 233.583L-19.9891 234.994L-69.0857 209.166L-32.2207 135.559C-29.4784 137.966 -26.234 141.608 -23.7749 146.806C-18.5235 157.892 -17.8179 163.906 -10.2988 168.438C-2.77978 172.969 -3.2567 171.236 2.44295 174.676C8.14258 178.128 11.2131 192.512 19.6477 198.125C28.0749 203.74 29.9412 205.41 38.9591 206.277C47.9796 207.14 60.4664 218.612 70.1963 230.876C79.9188 243.143 89.3137 265.041 89.3137 265.041L89.3162 265.048Z" fill="url(#paint3_linear_4028_89)"/>
<path d="M467.973 284.805H-12.0513L43.3979 234.944C43.3979 234.944 105.989 186.656 129.239 165.143C152.489 143.621 154.279 138.369 161.791 128.403C169.179 118.589 173.111 109.278 178.349 106.492C178.437 106.448 178.516 106.404 178.604 106.36C183.965 103.734 191.124 128.925 201.131 140.473C201.361 140.738 201.581 140.986 201.801 141.234C211.359 151.906 215.803 149.395 215.803 149.395C215.803 149.395 216.102 148.935 216.614 148.184C218.289 145.761 222.256 140.376 225.818 138.369C230.465 135.751 233.683 125.247 238.338 125.247C239.255 125.247 240.825 123.478 242.879 120.64C249.827 111.011 262.267 89.0643 273.024 81.9021C273.377 81.6722 273.729 81.5042 274.082 81.4069C276.656 80.6465 279.266 83.1577 279.707 87.1809C279.707 87.1809 289.661 113.177 292.35 118.686C295.031 124.203 303.971 127.086 303.971 127.086C303.971 127.086 313.449 121.745 315.415 120.879C317.381 120.003 324.206 108.199 330.272 108.853C330.695 108.8 331.153 108.836 331.691 108.977C335.624 110.029 351.203 145.195 361.475 156.212C371.244 166.69 432.08 255.767 463.291 281.313C464.94 282.665 466.501 283.833 467.973 284.805Z" fill="url(#paint4_linear_4028_89)"/>
<path style="mix-blend-mode:multiply" opacity="0.2" d="M465.06 281.503C433.723 255.929 372.643 166.752 362.834 156.262C352.521 145.232 336.88 110.027 332.931 108.974C332.391 108.832 331.931 108.797 331.506 108.85C325.416 108.195 318.564 120.012 316.59 120.889C314.616 121.756 305.1 127.103 305.1 127.103C305.1 127.103 296.124 124.217 293.433 118.693C290.733 113.179 280.739 87.153 280.739 87.153C280.296 83.1253 277.676 80.6113 275.091 81.3726C276.454 92.8981 278.508 110.187 279.207 115.454C280.278 123.571 285.519 137.558 285.519 137.558C285.519 137.558 291.379 150.19 296.23 157.413C301.081 164.628 307.951 190.529 307.951 190.529L311.093 202.648L306.074 223.079L282.846 254.876L260.919 285H466.016C465.706 283.867 465.387 282.698 465.06 281.503Z" fill="url(#paint5_linear_4028_89)"/>
<path style="mix-blend-mode:multiply" opacity="0.2" d="M251.632 227.877C251.632 227.877 224.066 214.598 216.365 205.206C208.663 195.805 198.43 175.056 198.43 175.056C198.43 175.056 189.542 159.715 186.002 149.535C183.213 141.532 180.159 116.719 178.973 106.486C179.061 106.442 179.141 106.398 179.23 106.353C184.612 103.724 191.8 128.944 201.847 140.505C202.077 140.771 202.298 141.019 202.52 141.267C212.116 151.951 216.577 149.437 216.577 149.437C216.577 149.437 216.878 148.977 217.392 148.224C219.073 145.799 223.057 140.408 226.633 138.398C231.298 135.778 234.529 125.262 239.203 125.262C240.124 125.262 241.7 123.491 243.762 120.65L237.495 138.62L228.784 160.75L234.246 193.796L251.632 227.877Z" fill="url(#paint6_linear_4028_89)"/>
<g opacity="0.5" filter="url(#filter0_f_4028_89)">
<ellipse cx="285.86" cy="122.995" rx="52.1967" ry="52.0069" fill="white" fill-opacity="0.1"/>
<ellipse cx="285.86" cy="122.995" rx="52.1967" ry="52.0069" fill="url(#paint7_radial_4028_89)" fill-opacity="0.2"/>
</g>
<circle opacity="0.3" cx="306.517" cy="127.47" r="31.4657" fill="url(#paint8_radial_4028_89)" fill-opacity="0.2"/>
<path d="M157.074 251.225H317.113V227.118H319.887V254H154.299V226.523H157.074V251.225ZM319.887 111.86H317.113V91.0413H157.074V133.774H154.299V88.2668H319.887V111.86Z" fill="#FA48E8"/>
<mask id="mask0_4028_89" style="mask-type:alpha" maskUnits="userSpaceOnUse" x="77" y="3" width="241" height="241">
<circle cx="197.455" cy="123.608" r="120.125" transform="rotate(-1.68636 197.455 123.608)" fill="white"/>
</mask>
<g mask="url(#mask0_4028_89)">
<g filter="url(#filter1_f_4028_89)">
<path d="M313.729 129.814C315.367 129.712 315.931 131.953 314.44 132.638L86.4758 237.338C85.634 237.725 84.6479 237.252 84.4218 236.354L62.02 147.361C61.7939 146.463 62.4388 145.58 63.3632 145.522L313.729 129.814Z" fill="url(#paint9_radial_4028_89)" fill-opacity="0.2"/>
</g>
<g filter="url(#filter2_f_4028_89)">
<path d="M311.504 129.456C313.081 129.805 313.04 132.067 311.451 132.358L80.2448 174.749C79.3245 174.918 78.4803 174.202 78.4973 173.266L80.1863 80.1285C80.2033 79.193 81.0729 78.5075 81.9865 78.7095L311.504 129.456Z" fill="url(#paint10_radial_4028_89)" fill-opacity="0.2"/>
</g>
<g filter="url(#filter3_f_4028_89)">
<path d="M311.897 129.24C313.514 129.974 312.706 132.414 310.97 132.036L59.3228 77.2318C58.4634 77.0446 57.9556 76.1539 58.2324 75.319L75.3265 23.7528C75.6032 22.9179 76.5425 22.5069 77.3436 22.8702L311.897 129.24Z" fill="url(#paint11_radial_4028_89)" fill-opacity="0.2"/>
</g>
</g>
<path d="M343.328 224.488L342.432 218.373L342.058 215.81C341.59 213.753 339.758 212.285 337.646 212.285C335.761 212.285 334.196 210.816 334.076 208.933L330.319 149.889C330.132 146.952 332.472 144.455 335.426 144.455L335.453 140.863C335.453 138.433 333.501 136.457 331.068 136.457C330.506 136.457 330.038 136.003 330.038 135.442L329.945 126.309C329.932 124.654 331.255 123.305 332.913 123.305H334.464C335.079 123.305 335.346 122.517 334.838 122.157L320.279 111.675C319.998 111.475 319.704 111.315 319.383 111.208C319.062 111.088 318.728 111.021 318.393 111.008C317.591 110.954 316.762 111.181 316.08 111.675L301.521 122.157C301.026 122.517 301.28 123.305 301.895 123.305H303.446C305.104 123.305 306.428 124.654 306.414 126.309L306.321 135.442C306.321 136.003 305.853 136.457 305.291 136.457H303.887C302.229 136.457 300.892 137.806 300.892 139.461L300.919 144.455C303.754 144.455 306.04 146.765 306.04 149.569C306.04 149.676 306.04 149.783 306.04 149.889L302.283 208.933C302.163 210.816 300.598 212.285 298.713 212.285C297.657 212.285 296.668 212.645 295.879 213.273C295.103 213.9 294.528 214.781 294.288 215.81L293.913 218.373L293.512 221.124L293.298 222.579L293.018 224.488C292.871 225.517 293.673 226.438 294.716 226.438H341.63C342.673 226.438 343.475 225.517 343.328 224.488ZM326.95 131.45C326.95 133.733 325.105 135.576 322.819 135.576H313.513C311.227 135.576 309.382 133.733 309.382 131.45V126.016C309.382 124.934 310.011 123.999 310.933 123.572C311.281 123.399 311.668 123.305 312.096 123.305H322.819C325.105 123.305 326.95 125.148 326.95 127.431V131.45Z" fill="#D7D0FF"/>
<path d="M474.847 250.756V300H250.992C250.992 300 270.152 268.631 286.172 253.922C302.192 239.219 320.093 223.592 330.775 213.48C341.457 203.367 348.802 190.957 355.964 182.687L359.358 184.985C359.358 184.985 364.069 179.008 366.272 180.388C368.47 181.763 374.751 199.233 380.716 205.204C386.687 211.181 389.511 205.66 397.679 209.338C405.847 213.017 432.86 236.826 439.768 240.08C445.233 242.664 462.658 246.362 474.847 250.743V250.756Z" fill="url(#paint12_linear_4028_89)"/>
<path style="mix-blend-mode:multiply" opacity="0.2" d="M474.847 250.36V299.604H393.442C387.205 285.376 380.74 269.768 378.777 261.973C374.649 245.567 380.683 236.848 380.683 236.848C373.389 222.297 366.234 211.456 366.234 211.456L359.357 184.596C359.357 184.596 364.068 178.619 366.272 179.999C368.469 181.373 374.75 198.843 380.715 204.814C386.686 210.792 389.51 205.27 397.679 208.949C405.847 212.628 432.859 236.436 439.767 239.691C445.232 242.274 462.658 245.972 474.847 250.354V250.36Z" fill="url(#paint13_linear_4028_89)"/>
<defs>
<filter id="filter0_f_4028_89" x="227.969" y="65.2935" width="115.782" height="115.402" filterUnits="userSpaceOnUse" color-interpolation-filters="sRGB">
<feFlood flood-opacity="0" result="BackgroundImageFix"/>
<feBlend mode="normal" in="SourceGraphic" in2="BackgroundImageFix" result="shape"/>
<feGaussianBlur stdDeviation="2.84709" result="effect1_foregroundBlur_4028_89"/>
</filter>
<filter id="filter1_f_4028_89" x="54.3824" y="122.219" width="268.515" height="122.847" filterUnits="userSpaceOnUse" color-interpolation-filters="sRGB">
<feFlood flood-opacity="0" result="BackgroundImageFix"/>
<feBlend mode="normal" in="SourceGraphic" in2="BackgroundImageFix" result="shape"/>
<feGaussianBlur stdDeviation="3.79612" result="effect1_foregroundBlur_4028_89"/>
</filter>
<filter id="filter2_f_4028_89" x="70.9048" y="71.0818" width="249.352" height="111.285" filterUnits="userSpaceOnUse" color-interpolation-filters="sRGB">
<feFlood flood-opacity="0" result="BackgroundImageFix"/>
<feBlend mode="normal" in="SourceGraphic" in2="BackgroundImageFix" result="shape"/>
<feGaussianBlur stdDeviation="3.79612" result="effect1_foregroundBlur_4028_89"/>
</filter>
<filter id="filter3_f_4028_89" x="50.5643" y="15.1452" width="269.8" height="124.522" filterUnits="userSpaceOnUse" color-interpolation-filters="sRGB">
<feFlood flood-opacity="0" result="BackgroundImageFix"/>
<feBlend mode="normal" in="SourceGraphic" in2="BackgroundImageFix" result="shape"/>
<feGaussianBlur stdDeviation="3.79612" result="effect1_foregroundBlur_4028_89"/>
</filter>
<linearGradient id="paint0_linear_4028_89" x1="361.421" y1="136.586" x2="407.627" y2="228.391" gradientUnits="userSpaceOnUse">
<stop stop-color="#65D0B6"/>
<stop offset="0.06" stop-color="#54BCA3" stop-opacity="0.84"/>
<stop offset="0.16" stop-color="#3EA18B" stop-opacity="0.62"/>
<stop offset="0.26" stop-color="#2B8A75" stop-opacity="0.43"/>
<stop offset="0.36" stop-color="#1B7764" stop-opacity="0.27"/>
<stop offset="0.47" stop-color="#0F6957" stop-opacity="0.15"/>
<stop offset="0.58" stop-color="#065F4D" stop-opacity="0.07"/>
<stop offset="0.69" stop-color="#015847" stop-opacity="0.02"/>
<stop offset="0.83" stop-color="#005746" stop-opacity="0"/>
</linearGradient>
<linearGradient id="paint1_linear_4028_89" x1="401.111" y1="182.102" x2="441.51" y2="249.599" gradientUnits="userSpaceOnUse">
<stop stop-color="#65D0B6"/>
<stop offset="0.07" stop-color="#54BCA3" stop-opacity="0.84"/>
<stop offset="0.19" stop-color="#3EA18B" stop-opacity="0.62"/>
<stop offset="0.31" stop-color="#2B8A75" stop-opacity="0.43"/>
<stop offset="0.44" stop-color="#1B7764" stop-opacity="0.27"/>
<stop offset="0.56" stop-color="#0F6957" stop-opacity="0.15"/>
<stop offset="0.7" stop-color="#065F4D" stop-opacity="0.07"/>
<stop offset="0.84" stop-color="#015847" stop-opacity="0.02"/>
<stop offset="1" stop-color="#005746" stop-opacity="0"/>
</linearGradient>
<linearGradient id="paint2_linear_4028_89" x1="85.9148" y1="171.873" x2="38.485" y2="247.088" gradientUnits="userSpaceOnUse">
<stop stop-color="#65D0B6"/>
<stop offset="0.07" stop-color="#54BCA3" stop-opacity="0.84"/>
<stop offset="0.19" stop-color="#3EA18B" stop-opacity="0.62"/>
<stop offset="0.31" stop-color="#2B8A75" stop-opacity="0.43"/>
<stop offset="0.44" stop-color="#1B7764" stop-opacity="0.27"/>
<stop offset="0.56" stop-color="#0F6957" stop-opacity="0.15"/>
<stop offset="0.7" stop-color="#065F4D" stop-opacity="0.07"/>
<stop offset="0.84" stop-color="#015847" stop-opacity="0.02"/>
<stop offset="1" stop-color="#005746" stop-opacity="0"/>
</linearGradient>
<linearGradient id="paint3_linear_4028_89" x1="34.2039" y1="194.263" x2="-16.5594" y2="248.425" gradientUnits="userSpaceOnUse">
<stop stop-color="#65D0B6"/>
<stop offset="0.07" stop-color="#54BCA3" stop-opacity="0.84"/>
<stop offset="0.19" stop-color="#3EA18B" stop-opacity="0.62"/>
<stop offset="0.31" stop-color="#2B8A75" stop-opacity="0.43"/>
<stop offset="0.44" stop-color="#1B7764" stop-opacity="0.27"/>
<stop offset="0.56" stop-color="#0F6957" stop-opacity="0.15"/>
<stop offset="0.7" stop-color="#065F4D" stop-opacity="0.07"/>
<stop offset="0.84" stop-color="#015847" stop-opacity="0.02"/>
<stop offset="1" stop-color="#005746" stop-opacity="0"/>
</linearGradient>
<linearGradient id="paint4_linear_4028_89" x1="253.811" y1="-9.13033" x2="160.335" y2="341.976" gradientUnits="userSpaceOnUse">
<stop stop-color="#3952FF"/>
<stop offset="0.28" stop-color="#DED7FF"/>
<stop offset="0.58" stop-color="#7B61FF"/>
<stop offset="0.594011" stop-color="#755AFF"/>
<stop offset="1" stop-color="#7B61FF"/>
</linearGradient>
<linearGradient id="paint5_linear_4028_89" x1="449.676" y1="155.23" x2="305.213" y2="204.559" gradientUnits="userSpaceOnUse">
<stop stop-color="#DED7FF"/>
<stop offset="0.04" stop-color="#7B61FF"/>
<stop offset="0.194086" stop-color="#7060F8"/>
<stop offset="0.35" stop-color="#7B61FF"/>
<stop offset="0.35059" stop-color="#7B61FF"/>
<stop offset="0.62" stop-color="#7B61FF"/>
<stop offset="0.85" stop-color="#755AFF"/>
<stop offset="1" stop-color="#7B61FF"/>
</linearGradient>
<linearGradient id="paint6_linear_4028_89" x1="244.94" y1="152.022" x2="197.164" y2="176.454" gradientUnits="userSpaceOnUse">
<stop stop-color="#DEEDF9" stop-opacity="0.1"/>
<stop offset="0.04" stop-color="#188AFC" stop-opacity="0.06"/>
<stop offset="0.35" stop-color="#6F6BFE"/>
<stop offset="0.62" stop-color="#3952FF"/>
<stop offset="0.85" stop-color="#5865F2"/>
<stop offset="1" stop-color="#7B61FF"/>
</linearGradient>
<radialGradient id="paint7_radial_4028_89" cx="0" cy="0" r="1" gradientUnits="userSpaceOnUse" gradientTransform="translate(238.847 158.259) rotate(-20.1065) scale(59.5817 59.4164)">
<stop stop-color="white" stop-opacity="0.25"/>
<stop offset="1" stop-color="#7B61FF"/>
</radialGradient>
<radialGradient id="paint8_radial_4028_89" cx="0" cy="0" r="1" gradientUnits="userSpaceOnUse" gradientTransform="translate(278.176 148.806) rotate(-20.1739) scale(35.9332)">
<stop stop-color="white" stop-opacity="0.1"/>
<stop offset="1" stop-color="white"/>
</radialGradient>
<radialGradient id="paint9_radial_4028_89" cx="0" cy="0" r="1" gradientUnits="userSpaceOnUse" gradientTransform="translate(30.2826 199.033) rotate(-12.996) scale(275.492 314.422)">
<stop stop-color="#FA48E8" stop-opacity="0.1"/>
<stop offset="1" stop-color="#FFD15B"/>
</radialGradient>
<radialGradient id="paint10_radial_4028_89" cx="0" cy="0" r="1" gradientUnits="userSpaceOnUse" gradientTransform="translate(38.8759 122.387) rotate(2.27025) scale(257.383 319.162)">
<stop stop-color="#FA48E8" stop-opacity="0.1"/>
<stop offset="1" stop-color="#FFD15B"/>
</radialGradient>
<radialGradient id="paint11_radial_4028_89" cx="0" cy="0" r="1" gradientUnits="userSpaceOnUse" gradientTransform="translate(23.7824 33.0393) rotate(18.9863) scale(292.043 190.058)">
<stop stop-color="#FA48E8" stop-opacity="0.1"/>
<stop offset="1" stop-color="#FFD15B"/>
</radialGradient>
<linearGradient id="paint12_linear_4028_89" x1="158.11" y1="234.154" x2="636.033" y2="384.827" gradientUnits="userSpaceOnUse">
<stop stop-color="#7B61FF"/>
<stop offset="0.28" stop-color="#7B61FF"/>
<stop offset="0.58" stop-color="#7B61FF"/>
<stop offset="0.83" stop-color="#7B61FF"/>
<stop offset="1" stop-color="#5E40F6"/>
</linearGradient>
<linearGradient id="paint13_linear_4028_89" x1="478.884" y1="-0.490369" x2="376.257" y2="262.011" gradientUnits="userSpaceOnUse">
<stop stop-color="#7B61FF" stop-opacity="0"/>
<stop offset="0.04" stop-color="#7B61FF" stop-opacity="0.06"/>
<stop offset="0.35" stop-color="#7B61FF" stop-opacity="0.46"/>
<stop offset="0.62" stop-color="#7B61FF" stop-opacity="0.76"/>
<stop offset="0.85" stop-color="#5D3EF9" stop-opacity="0.94"/>
<stop offset="1" stop-color="#9640FF"/>
</linearGradient>
</defs>
</svg>
