<svg width="55" height="56" viewBox="0 0 55 56" fill="none" xmlns="http://www.w3.org/2000/svg">
<path d="M50.8903 31.9985C50.579 31.6128 50.1923 31.2948 49.7537 31.0639C49.3152 30.833 48.8341 30.6941 48.3399 30.6558C47.8458 30.6175 47.349 30.6805 46.8801 30.841C46.4112 31.0015 45.98 31.2561 45.6131 31.5893C44.9952 31.0626 44.2382 30.7261 43.4333 30.6203C42.6284 30.5145 41.8101 30.644 41.0771 30.9931L35.7559 33.5667C35.5853 33.5171 17.9093 31.458 17.9093 31.458C16.3268 31.2764 14.7239 31.4555 13.2205 31.9817L4.60074 35.0067C4.26095 35.1259 3.96655 35.3476 3.75818 35.6413C3.54981 35.935 3.43776 36.2861 3.43751 36.6462V45.7145C3.43649 46.044 3.52943 46.3669 3.70543 46.6454C3.88144 46.924 4.13321 47.1465 4.43122 47.287C4.72923 47.4275 5.06113 47.4802 5.38799 47.4387C5.71484 47.3973 6.02311 47.2635 6.27663 47.0531C7.27243 46.1835 8.4888 45.6054 9.79193 45.3824C11.0951 45.1594 12.4344 45.3002 13.6627 45.7892L26.2596 50.1339C27.5871 50.5916 29.0069 50.7154 30.3935 50.4944C31.7802 50.2734 33.0911 49.7143 34.2106 48.8667L50.1929 36.8069C50.9126 36.2542 51.3882 35.4424 51.5184 34.5444C51.6487 33.6463 51.4233 32.7329 50.8903 31.9985ZM41.824 32.5411C42.1828 32.3702 42.5775 32.2882 42.9746 32.302C43.3718 32.3158 43.7598 32.425 44.1058 32.6204L38.0575 36.7586C38.0609 36.6961 38.0626 36.6328 38.0626 36.5694C38.0462 35.8856 37.8098 35.2254 37.3884 34.6866L41.824 32.5411ZM49.1581 35.4343L33.1749 47.495C32.28 48.1723 31.2322 48.6191 30.1238 48.796C29.0155 48.9728 27.8807 48.8743 26.8194 48.5092L14.2359 44.1691C12.7193 43.6117 11.0831 43.4612 9.49021 43.7323C7.8973 44.0035 6.40313 44.6869 5.1563 45.7147L5.16885 36.6285L13.7895 33.6035C15.0473 33.1641 16.3882 33.0142 17.712 33.165L35.0363 35.1662C35.4075 35.2164 35.746 35.4051 35.984 35.6944C36.2219 35.9836 36.3418 36.3522 36.3195 36.7261C36.2972 37.1 36.1344 37.4517 35.8637 37.7106C35.5931 37.9695 35.2346 38.1166 34.86 38.1224H21.1411C20.9132 38.1224 20.6946 38.2129 20.5335 38.3741C20.3723 38.5353 20.2818 38.7538 20.2818 38.9818C20.2818 39.2097 20.3723 39.4283 20.5335 39.5894C20.6946 39.7506 20.9132 39.8411 21.1411 39.8411H26.3279L29.2926 41.8507C29.936 42.2953 30.6998 42.5327 31.4819 42.5311C32.2639 42.5295 33.0268 42.289 33.6684 41.8419C33.6752 41.8407 47.0293 32.7038 47.0315 32.7014C47.2108 32.5608 47.4162 32.4569 47.6358 32.3959C47.8553 32.3348 48.0848 32.3177 48.311 32.3455C48.5372 32.3733 48.7557 32.4455 48.9539 32.5579C49.1522 32.6704 49.3263 32.8208 49.4662 33.0007C49.6062 33.1806 49.7093 33.3863 49.7695 33.6061C49.8298 33.8259 49.8461 34.0554 49.8175 34.2815C49.7889 34.5076 49.7159 34.7258 49.6027 34.9236C49.4896 35.1215 49.3385 35.295 49.1581 35.4343ZM33.5492 39.8411L32.6941 40.4257C32.3374 40.6748 31.9129 40.8088 31.4779 40.8095C31.0428 40.8103 30.6179 40.6778 30.2603 40.4299L29.3917 39.8412L33.5492 39.8411Z" fill="white"/>
<path d="M29.1532 28.7906C29.6274 29.2632 30.2697 29.5285 30.9393 29.5284C31.6088 29.5282 32.251 29.2626 32.725 28.7897L42.2209 19.2942C43.7172 17.7828 44.5661 15.7481 44.5875 13.6214C44.609 11.4947 43.8013 9.44327 42.3358 7.90201C39.4521 4.77883 34.085 4.73338 30.95 7.57987C22.9188 0.646952 12.4459 11.486 19.6497 19.2943L29.1532 28.7906ZM20.8649 8.99892C22.0734 7.80287 23.7049 7.13198 25.4052 7.13199C27.1054 7.132 28.737 7.80292 29.9454 8.99899L30.3323 9.3858C30.4344 9.47848 30.5557 9.54735 30.6876 9.58747C30.8195 9.62759 30.9587 9.63794 31.0951 9.61779C31.2315 9.59764 31.3617 9.54748 31.4763 9.47093C31.591 9.39438 31.6872 9.29335 31.7581 9.17512C35.7463 5.13102 42.9257 7.70745 42.8847 13.5393C42.8871 14.3826 42.7223 15.2181 42.3998 15.9973C42.0773 16.7766 41.6034 17.4841 41.0057 18.079L31.5097 27.5745C31.3583 27.7257 31.153 27.8105 30.9391 27.8105C30.7251 27.8105 30.5198 27.7257 30.3684 27.5745L20.8658 18.0798C19.6668 16.8729 18.9939 15.2408 18.9937 13.5396C18.9936 11.8383 19.6662 10.2061 20.8649 8.99892Z" fill="white"/>
</svg>
