<svg width="100" height="100" viewBox="0 0 100 100" fill="none" xmlns="http://www.w3.org/2000/svg">
<g clip-path="url(#clip0_2110_7588)">
<path d="M82.6903 60.6525C84.155 62.0719 84.4723 63.5001 84.4858 64.4657L84.4864 64.4665C84.5056 66.3428 83.4501 68.0034 81.45 69.4404C79.4532 70.8748 76.4808 72.1141 72.5717 73.1566C71.9405 73.3248 71.2676 73.2352 70.7024 72.9079C70.1373 72.5805 69.7252 72.042 69.557 71.4109C69.3888 70.7798 69.4789 70.1077 69.8063 69.5424C70.1336 68.9772 70.6715 68.5645 71.3026 68.3963L71.9381 68.2225C75.0333 67.3521 76.9413 66.4845 78.0809 65.7889C78.6885 65.418 79.0726 65.099 79.301 64.8596C79.4153 64.7398 79.4878 64.643 79.5293 64.5738C79.539 64.5577 79.5446 64.5431 79.5502 64.532C79.5462 64.5251 79.5419 64.5174 79.5368 64.5092C79.4924 64.4392 79.4089 64.3289 79.2619 64.1853L79.2621 64.1839C78.5944 63.5351 77.3554 62.8583 75.5777 62.2151C73.8077 61.5747 71.5324 60.9781 68.8191 60.4763C63.3926 59.4727 56.2343 58.8509 47.9072 59.001C37.5624 59.1822 29.6156 60.4577 24.2657 61.9157C21.5895 62.6451 19.571 63.4175 18.2293 64.1173C17.5575 64.4677 17.0663 64.7945 16.7485 65.0803C16.4519 65.347 16.3537 65.5359 16.3363 65.6423C16.3418 65.6541 16.3494 65.6737 16.3653 65.6995C16.4072 65.7678 16.488 65.8757 16.6346 66.0189C17.3016 66.6671 18.5391 67.3442 20.3172 67.9867C22.087 68.6262 24.3627 69.2218 27.0763 69.7228C32.5027 70.7245 39.661 71.3447 47.988 71.1945L47.9894 71.1948C51.6242 71.1392 55.1996 70.9277 58.6236 70.5704L58.6328 70.5699L58.6406 70.5692C59.2709 70.5411 59.8886 70.7551 60.3662 71.1674C60.8438 71.5798 61.1453 72.1596 61.2094 72.7873C61.2735 73.4151 61.0959 74.044 60.7115 74.5444C60.327 75.0448 59.7649 75.3789 59.1418 75.4787L59.1245 75.4812C55.4524 75.8488 51.7665 76.0635 48.0765 76.1243L48.0767 76.1229C41.2213 76.2463 33.7765 75.8298 27.4192 74.7742C24.2406 74.2464 21.3265 73.5583 18.892 72.6954C16.4625 71.8344 14.4852 70.791 13.2014 69.5397L13.2017 69.5383C12.8815 69.2435 12.5958 68.9136 12.3497 68.5546C11.6049 67.4819 11.4143 66.4664 11.4063 65.7321L11.4057 65.7313C11.3836 63.4542 12.9605 61.6192 15.3956 60.1547C17.8377 58.6861 21.2158 57.5432 24.9644 56.6641C32.4666 54.9048 41.5412 54.1835 47.8211 54.0745C54.6748 53.9523 62.1184 54.3679 68.4747 55.4211C71.6525 55.9477 74.5653 56.6345 76.9997 57.4967C79.4287 58.3569 81.4058 59.4006 82.6903 60.6525Z" fill="#7B61FF" stroke="#7B61FF" stroke-width="0.587031"/>
<path d="M82.1943 74.9631C82.0698 77.2461 80.7475 79.0415 78.6502 80.437C76.5586 81.8286 73.6704 82.8427 70.3387 83.574C63.6722 85.0374 55.1358 85.3879 47.3889 85.295C40.2565 85.2103 32.5266 84.3659 26.1311 82.902C22.9337 82.1701 20.0612 81.2817 17.7609 80.2516C15.4697 79.2256 13.7079 78.043 12.7765 76.7018C12.7334 76.6399 12.6887 76.5723 12.6451 76.4887C11.8345 75.1854 11.7159 73.7231 12.3547 72.3912L12.4816 72.1271L12.7452 72.2532L16.4711 74.0232L16.8202 73.889C16.9037 74.0808 17.1475 74.3459 17.6107 74.6645C18.0635 74.9758 18.6893 75.3137 19.4786 75.6644C21.056 76.3652 23.2592 77.1054 25.9766 77.7863C31.4101 79.1478 38.8743 80.2661 47.4457 80.3655C58.3568 80.4999 65.8247 79.6488 70.5729 78.4548C72.9484 77.8574 74.6293 77.178 75.7173 76.5028C76.8222 75.8172 77.246 75.182 77.2727 74.6986L77.2883 74.4061L77.5809 74.4216L81.9167 74.6541L82.2107 74.6699L82.1943 74.9631Z" fill="#7B61FF" stroke="#7B61FF" stroke-width="0.587031"/>
<path d="M15.5125 63.5565C15.9398 63.9359 16.2205 64.4502 16.3099 65.0096L16.337 65.2524L16.3362 65.2529L16.8525 74.1015L16.8563 74.3022C16.845 74.7688 16.7009 75.2242 16.4394 75.6142C16.1405 76.0598 15.704 76.396 15.1968 76.571C14.6895 76.746 14.1385 76.7509 13.6283 76.5842C13.1186 76.4177 12.6782 76.0885 12.372 75.6483L12.3717 75.6497L12.3714 75.6475L12.3701 75.6473L12.3709 75.6467C12.1099 75.2774 11.9578 74.8423 11.935 74.3907L11.9358 74.3901L11.419 65.5443C11.3803 64.8924 11.6021 64.2515 12.0356 63.7631C12.4693 63.2746 13.08 62.978 13.7321 62.9393C14.3838 62.9006 15.0241 63.1231 15.5125 63.5565ZM84.0817 63.5817C84.4325 64.1329 84.5494 64.8017 84.4076 65.4395L82.0755 75.9202C81.9723 76.3878 81.7349 76.8157 81.3926 77.1505C81.0503 77.4854 80.6179 77.7138 80.1481 77.8067C79.6783 77.8996 79.191 77.8534 78.747 77.674C78.3031 77.4946 77.922 77.189 77.6486 76.796C77.4533 76.5169 77.318 76.2004 77.2536 75.8659C77.1891 75.5309 77.1962 75.1851 77.2742 74.8529L77.275 74.8524L79.5981 64.3708C79.7399 63.733 80.1288 63.1773 80.68 62.8265C81.2313 62.4757 81.8995 62.358 82.5373 62.4998C83.1751 62.6415 83.7309 63.0306 84.0817 63.5817Z" fill="#7B61FF" stroke="#7B61FF" stroke-width="0.587031"/>
<ellipse cx="28.5759" cy="60.0775" rx="11.2524" ry="20.8426" transform="rotate(32.1307 28.5759 60.0775)" fill="white"/>
<ellipse cx="35.3352" cy="59.6897" rx="6.67784" ry="20.8426" transform="rotate(32.1307 35.3352 59.6897)" fill="white"/>
<path d="M48.525 14.5168C50.5263 14.1233 51.8804 14.6774 52.6812 15.217H52.6822C54.2344 16.2714 54.9963 18.0857 55.0357 20.5481C55.075 23.0064 54.3975 26.1547 53.024 29.9602C52.8021 30.5746 52.3448 31.0762 51.7535 31.3538C51.1623 31.6312 50.4849 31.6624 49.8707 31.4407C49.2563 31.2188 48.7557 30.7615 48.4781 30.1702C48.2006 29.5789 48.1684 28.9017 48.3902 28.2874L48.6099 27.6663C49.6605 24.6275 50.0362 22.5654 50.1148 21.2327C50.1567 20.522 50.1137 20.0246 50.0474 19.7004C50.0142 19.5381 49.9761 19.4234 49.9429 19.3499C49.9352 19.3327 49.9264 19.3198 49.9205 19.3088C49.9125 19.3082 49.9038 19.3073 49.8941 19.3069C49.8113 19.3034 49.6731 19.309 49.4713 19.3479L49.4703 19.3469C48.5565 19.5254 47.2939 20.157 45.7515 21.2502C44.216 22.3388 42.4281 23.8674 40.4683 25.8098C36.5488 29.6946 31.955 35.2195 27.3287 42.1448C21.5769 50.7451 18.0918 57.9999 16.2379 63.2258C15.3105 65.84 14.7936 67.9385 14.6031 69.4397C14.5077 70.1914 14.4959 70.7812 14.5494 71.2053C14.5993 71.601 14.6985 71.7894 14.776 71.8645C14.7888 71.8667 14.8092 71.8716 14.8394 71.8733C14.9195 71.8778 15.0542 71.873 15.2554 71.8342C16.1683 71.6561 17.4303 71.0259 18.9722 69.9319C20.507 68.8429 22.2942 67.3135 24.2535 65.3704C28.1715 61.4846 32.7639 55.9587 37.3902 49.0334L37.3912 49.0325C39.4188 46.0152 41.2844 42.9579 42.9439 39.9417L42.9488 39.9338L42.9527 39.927C43.2892 39.3933 43.8173 39.008 44.4283 38.8508C45.0395 38.6938 45.6876 38.7769 46.2398 39.0823C46.792 39.3877 47.2073 39.8922 47.399 40.4934C47.5907 41.0947 47.5445 41.7469 47.2711 42.3157L47.2633 42.3313C45.4707 45.5572 43.5446 48.7071 41.4898 51.7727L41.4888 51.7717C37.6799 57.4729 33.0913 63.3503 28.5982 67.97C26.3517 70.2797 24.1243 72.2808 22.0269 73.7883C19.934 75.2927 17.9491 76.3216 16.189 76.6624L16.1881 76.6614C15.7633 76.7562 15.3294 76.8027 14.8941 76.8C13.5882 76.8 12.6454 76.3774 12.0377 75.9651H12.0367C10.1538 74.6844 9.5459 72.3425 9.73201 69.5071C9.91868 66.6635 10.9067 63.2369 12.3228 59.6565C15.157 52.4909 19.7406 44.6258 23.233 39.4055C27.0419 33.7063 31.629 27.8294 36.1197 23.2092C38.3648 20.8994 40.5904 18.8987 42.6871 17.3909C44.7792 15.8864 46.7641 14.8578 48.525 14.5168Z" fill="#7B61FF" stroke="#7B61FF" stroke-width="0.587031"/>
<path d="M59.9967 23.0867C61.8009 24.4911 62.5214 26.6012 62.4713 29.1199C62.4214 31.6317 61.6069 34.5824 60.3073 37.7361C57.7067 44.0465 53.1256 51.258 48.6305 57.5681C44.4927 63.3781 39.39 69.2457 34.5397 73.6638C32.1148 75.8726 29.7466 77.7253 27.5885 79.0271C25.4388 80.3238 23.4626 81.0964 21.8297 81.0964C21.7543 81.0964 21.6733 81.0946 21.5797 81.0828C20.0469 81.0052 18.7781 80.2685 18.0485 78.9841L17.9039 78.7292L18.1578 78.5847L21.7369 76.5339L21.8258 76.1707C22.031 76.2115 22.3878 76.1624 22.9137 75.9636C23.4276 75.7693 24.0622 75.448 24.8004 74.9998C26.2758 74.1039 28.1404 72.7164 30.2496 70.8728C34.4672 67.1864 39.6432 61.6934 44.6139 54.7097C50.9479 45.8244 54.5084 39.2049 56.236 34.6238C57.1003 32.3318 57.501 30.5637 57.567 29.2849C57.6341 27.9864 57.354 27.276 56.9723 26.9783L56.7408 26.7986L56.9205 26.5671L59.5846 23.1384L59.7653 22.906L59.9967 23.0867Z" fill="#7B61FF" stroke="#7B61FF" stroke-width="0.587031"/>
<path d="M12.5932 71.3507C13.1485 71.2161 13.7312 71.2789 14.2416 71.5245L14.4565 71.6407V71.6417L22.019 76.2648L22.186 76.3761C22.5628 76.6516 22.8546 77.0297 23.0258 77.4669C23.2214 77.9666 23.2485 78.5169 23.103 79.0333C22.9573 79.5499 22.647 80.0052 22.2192 80.3292C21.7916 80.6529 21.27 80.8269 20.7338 80.8273L20.7348 80.8282L20.7328 80.8273L20.7319 80.8282V80.8273C20.2797 80.8309 19.8356 80.7078 19.4516 80.4689V80.4679L11.891 75.8468C11.3335 75.5067 10.9336 74.959 10.7797 74.3243C10.6258 73.6895 10.7306 73.0187 11.0707 72.4611C11.4107 71.9036 11.9587 71.5046 12.5932 71.3507ZM51.725 15.0441C52.3779 15.0704 52.9939 15.3558 53.4369 15.8361L60.7153 23.7296C61.0404 24.0811 61.2565 24.5202 61.3363 24.9923C61.4162 25.4645 61.3571 25.9499 61.1655 26.3888C60.9738 26.8277 60.6578 27.2016 60.2572 27.464C59.8568 27.7262 59.3883 27.865 58.9096 27.8654C58.569 27.8666 58.2318 27.7971 57.9203 27.6593C57.6084 27.5212 57.3283 27.3181 57.1 27.0646V27.0636L49.8158 19.1769C49.3728 18.6967 49.1382 18.0602 49.1645 17.4073C49.1908 16.7545 49.4753 16.1385 49.9555 15.6954C50.4356 15.2524 51.0723 15.0179 51.725 15.0441Z" fill="#7B61FF" stroke="#7B61FF" stroke-width="0.587031"/>
</g>
<defs>
<clipPath id="clip0_2110_7588">
<rect width="100" height="100" fill="white"/>
</clipPath>
</defs>
</svg>
