<svg width="1440" height="638" viewBox="0 0 1440 638" fill="none" xmlns="http://www.w3.org/2000/svg">
<path style="mix-blend-mode:screen" opacity="0.3" d="M1407.16 189.339C1390.46 197.934 1378.5 213.642 1374.51 231.829C1358.78 220.271 1338.55 214.874 1317.8 218.497C1287.11 223.85 1264.16 247.317 1257.97 275.99C1250.89 275.022 1243.54 275.095 1236.13 276.386C1229.23 277.589 1222.76 279.774 1216.79 282.737C1209.35 276.694 1199.44 273.775 1189.26 275.565C1175.19 278.014 1164.63 288.721 1161.69 301.833C1154.28 297.741 1145.49 296.054 1136.5 297.623C1116.61 301.085 1102.99 319.271 1104.84 339.042C1100.09 337.59 1095.04 336.798 1089.82 336.798C1061.54 336.798 1038.63 359.722 1038.63 387.985C1038.63 395.978 1040.47 403.546 1043.74 410.293C1042.28 414.443 1041.83 419.005 1042.64 423.639C1045.16 438.101 1058.92 447.781 1073.38 445.258C1078.32 444.393 1082.66 442.207 1086.2 439.157C1097.15 449.071 1112.39 454.043 1128.08 451.315C1142.22 448.851 1153.91 440.623 1161.19 429.477C1170.34 435.578 1181.76 438.321 1193.45 436.282C1207.61 433.818 1219 424.915 1225.21 413.109C1236.18 416.907 1248.23 418.066 1260.48 415.925C1261.13 415.807 1261.76 415.675 1262.39 415.543C1270.23 451.271 1304.92 474.797 1341.29 468.446C1369.03 463.621 1389.94 442.779 1396.23 417.083C1406.87 420.09 1418.32 420.809 1429.94 418.785C1435.61 417.787 1441.04 416.174 1446.15 414.047C1448.71 415.675 1451.4 417.113 1454.18 418.345V123.999C1423.47 129.675 1402.82 158.569 1407.16 189.339Z" fill="url(#paint0_linear_4028_723)"/>
<path style="mix-blend-mode:screen" opacity="0.2" d="M1450.89 297.624C1451.95 297.286 1453.05 297.008 1454.18 296.758V489.376C1447.94 489.596 1280.19 428.612 1256.37 427.834C1249.09 427.585 1229.09 430.049 1223.63 426.06C1211.08 416.878 1227.78 409.017 1234.91 404.72C1247.01 397.416 1254.83 385.521 1268.29 379.801C1276.24 376.428 1285.94 372.057 1294.56 370.312C1303.49 368.508 1314.02 367.936 1321.83 363.506C1327.3 360.397 1330.95 355.176 1336.58 351.876C1342.48 348.414 1349.43 346.464 1354.91 342.43C1357.74 340.333 1364.87 328.717 1366.68 328.277C1377.72 325.549 1388.47 328.233 1399.94 324.141C1418.33 317.57 1431.58 303.74 1450.88 297.653L1450.89 297.624Z" fill="url(#paint1_linear_4028_723)"/>
<path style="mix-blend-mode:screen" opacity="0.3" d="M582.493 576.736C578.196 577.147 574.074 576.223 570.54 574.316C572.094 601.816 551.634 625.84 523.988 628.421C499.157 630.753 476.805 615.016 469.926 592.019C463.781 595.553 456.8 597.856 449.276 598.56C432.585 600.129 417.009 593.456 406.566 581.884C396.798 592.957 382.953 600.481 367.084 601.963C338.293 604.661 312.333 586.592 304.046 560.045C297.52 562.803 290.465 564.636 283.044 565.325C246.67 568.728 214.169 543.927 207.202 508.873C195.014 524.42 176.74 535.127 155.517 537.121C130.026 539.497 106.34 528.732 91.1596 510.384C81.3623 518.656 69.0423 524.127 55.3143 525.403C41.3516 526.708 28.0196 523.496 16.7409 516.984C9.14359 528.761 -2.22307 538.001 -15.8337 542.841V256.313C-8.83774 253.791 -1.34307 252.28 6.48893 251.943C44.0356 250.359 76.3316 276.451 83.6503 312.12C105.254 318.412 122.194 336.54 126.213 359.64C130.569 356.692 135.717 354.741 141.334 354.213C157.38 352.717 171.753 363.263 175.581 378.428C179.805 373.573 185.804 370.244 192.726 369.599C206.982 368.264 219.61 378.751 220.945 393.007C220.989 393.359 220.974 393.696 220.989 394.048C223.57 393.153 226.269 392.508 229.114 392.244C241.83 391.056 253.564 397.011 260.354 406.808C267.394 390.66 282.765 378.721 301.553 376.961C327.132 374.571 349.997 391.892 355.13 416.459C359.34 414.933 363.813 413.921 368.477 413.481C398.148 410.709 424.46 432.504 427.232 462.189C427.305 462.952 427.349 463.729 427.393 464.492C444.949 464.58 460.041 477.296 463.092 494.661C469.032 491.009 475.896 488.619 483.317 487.929C504.246 485.964 523.254 498.035 531.057 516.412C534.929 513.435 539.652 511.455 544.888 510.971C559.657 509.577 572.769 520.445 574.148 535.229C574.148 535.317 574.148 535.405 574.148 535.493C575.541 535.053 577.008 534.745 578.533 534.599C590.178 533.513 600.489 542.064 601.574 553.695C602.674 565.34 594.124 575.651 582.478 576.736H582.493Z" fill="url(#paint2_linear_4028_723)"/>
<path style="mix-blend-mode:screen" opacity="0.2" d="M382.764 581.149L290.515 543.698L171.169 550.137L84.1765 576.419L-58.0533 542.847L-12.4587 330.833C-3.8798 335.168 6.79291 342.324 16.4861 353.965C37.1764 378.787 42.9337 393.662 65.095 400.273C87.2564 406.884 84.8993 402.777 101.701 407.8C118.512 412.856 135.809 447.525 161.017 456.291C186.208 465.069 192.067 468.099 215.641 464.378C239.217 460.642 278.617 481.687 311.507 506.567C344.379 531.459 382.753 581.132 382.753 581.132L382.764 581.149Z" fill="url(#paint3_linear_4028_723)"/>
<path d="M1508.67 564.083H350.666L484.43 443.798C484.43 443.798 635.423 327.31 691.511 275.413C747.599 223.493 751.916 210.823 770.038 186.783C787.862 163.106 797.348 140.644 809.982 133.925C810.195 133.818 810.386 133.712 810.599 133.605C823.531 127.27 840.802 188.041 864.943 215.9C865.496 216.539 866.027 217.137 866.559 217.734C889.615 243.48 900.335 237.422 900.335 237.422C900.335 237.422 901.058 236.313 902.292 234.5C906.333 228.655 915.905 215.665 924.498 210.823C935.707 204.509 943.47 179.168 954.7 179.168C956.912 179.168 960.698 174.902 965.654 168.054C982.414 144.825 1012.43 91.882 1038.37 74.6041C1039.23 74.0495 1040.08 73.6442 1040.93 73.4095C1047.14 71.5751 1053.43 77.6331 1054.5 87.3386C1054.5 87.3386 1078.51 150.051 1085 163.34C1091.46 176.651 1113.03 183.605 1113.03 183.605C1113.03 183.605 1135.9 170.721 1140.64 168.63C1145.38 166.519 1161.84 138.042 1176.48 139.62C1177.5 139.492 1178.6 139.578 1179.9 139.919C1189.39 142.457 1226.97 227.29 1251.75 253.868C1275.32 279.145 1422.08 494.032 1497.37 555.657C1501.35 558.921 1505.11 561.736 1508.67 564.083Z" fill="url(#paint4_linear_4028_723)"/>
<path style="mix-blend-mode:multiply" opacity="0.2" d="M1501.64 556.118C1426.04 494.423 1278.69 279.294 1255.03 253.989C1230.15 227.381 1192.42 142.452 1182.89 139.911C1181.59 139.569 1180.48 139.484 1179.46 139.612C1164.76 138.032 1148.24 166.541 1143.47 168.655C1138.71 170.748 1115.76 183.646 1115.76 183.646C1115.76 183.646 1094.1 176.684 1087.61 163.359C1081.1 150.055 1056.99 87.2714 1056.99 87.2714C1055.92 77.5549 1049.6 71.4901 1043.36 73.3267C1046.65 101.131 1051.6 142.837 1053.29 155.543C1055.88 175.125 1068.52 208.866 1068.52 208.866C1068.52 208.866 1082.66 239.339 1094.36 256.765C1106.06 274.169 1122.63 336.654 1122.63 336.654L1130.21 365.888L1118.1 415.175L1062.07 491.882L1009.17 564.553H1503.94C1503.2 561.819 1502.43 559.001 1501.64 556.118Z" fill="url(#paint5_linear_4028_723)"/>
<path style="mix-blend-mode:multiply" opacity="0.2" d="M986.77 426.75C986.77 426.75 920.271 394.717 901.692 372.06C883.114 349.381 858.427 299.325 858.427 299.325C858.427 299.325 836.987 262.317 828.445 237.759C821.718 218.454 814.351 158.597 811.489 133.91C811.703 133.804 811.895 133.697 812.109 133.59C825.092 127.248 842.433 188.088 866.67 215.977C867.226 216.618 867.759 217.216 868.293 217.814C891.442 243.589 902.205 237.524 902.205 237.524C902.205 237.524 902.931 236.414 904.169 234.599C908.227 228.747 917.837 215.742 926.464 210.895C937.718 204.574 945.512 179.204 956.788 179.204C959.009 179.204 962.81 174.933 967.786 168.078L952.666 211.429L931.653 264.816L944.829 344.533L986.77 426.75Z" fill="url(#paint6_linear_4028_723)"/>
<g opacity="0.5" filter="url(#filter0_f_4028_723)">
<ellipse cx="1021.03" cy="183" rx="137.5" ry="137" fill="white" fill-opacity="0.1"/>
<ellipse cx="1021.03" cy="183" rx="137.5" ry="137" fill="url(#paint7_radial_4028_723)" fill-opacity="0.2"/>
</g>
<circle opacity="0.3" cx="1075.44" cy="194.788" r="82.8892" fill="url(#paint8_radial_4028_723)" fill-opacity="0.2"/>
<path d="M667.564 534H1117.56V468.534H1125.37V541.802H659.763V407.043H667.564V534ZM1125.37 155.534H1117.56V99.0004H667.564V215.043H659.763V91.1987H1125.37V155.534Z" fill="#FA48E8"/>
<mask id="mask0_4028_723" style="mask-type:alpha" maskUnits="userSpaceOnUse" x="471" y="-132" width="634" height="634">
<circle cx="788.143" cy="184.617" r="316.442" transform="rotate(-1.68636 788.143 184.617)" fill="white"/>
</mask>
<g mask="url(#mask0_4028_723)">
<g filter="url(#filter1_f_4028_723)">
<path d="M1094.44 200.965C1098.75 200.694 1100.24 206.598 1096.31 208.402L495.794 484.211C493.576 485.229 490.979 483.985 490.383 481.619L431.371 247.187C430.775 244.821 432.474 242.495 434.909 242.342L1094.44 200.965Z" fill="url(#paint9_radial_4028_723)" fill-opacity="0.2"/>
</g>
<g filter="url(#filter2_f_4028_723)">
<path d="M1088.58 200.021C1092.73 200.939 1092.62 206.899 1088.44 207.666L479.38 319.336C476.955 319.78 474.731 317.893 474.776 315.428L479.226 70.0789C479.27 67.6145 481.561 65.8088 483.968 66.3409L1088.58 200.021Z" fill="url(#paint10_radial_4028_723)" fill-opacity="0.2"/>
</g>
<g filter="url(#filter3_f_4028_723)">
<path d="M1089.61 199.453C1093.87 201.386 1091.74 207.813 1087.17 206.817L424.266 62.4485C422.002 61.9555 420.665 59.6092 421.394 57.4098L466.424 -78.4294C467.153 -80.6288 469.627 -81.7114 471.738 -80.7544L1089.61 199.453Z" fill="url(#paint11_radial_4028_723)" fill-opacity="0.2"/>
</g>
</g>
<path d="M1187.89 450.493L1185.53 434.384L1184.54 427.63C1183.31 422.214 1178.49 418.345 1172.92 418.345C1167.96 418.345 1163.83 414.475 1163.52 409.516L1153.62 253.979C1153.13 246.241 1159.29 239.664 1167.07 239.664L1167.14 230.202C1167.14 223.8 1162 218.595 1155.59 218.595C1154.11 218.595 1152.88 217.399 1152.88 215.921L1152.63 191.863C1152.6 187.501 1156.09 183.949 1160.45 183.949H1164.54C1166.16 183.949 1166.86 181.874 1165.52 180.924L1127.17 153.313C1126.43 152.785 1125.66 152.363 1124.81 152.082C1123.97 151.765 1123.09 151.589 1122.2 151.554C1120.09 151.413 1117.91 152.011 1116.11 153.313L1077.76 180.924C1076.45 181.874 1077.12 183.949 1078.74 183.949H1082.83C1087.2 183.949 1090.68 187.501 1090.65 191.863L1090.4 215.921C1090.4 217.399 1089.17 218.595 1087.69 218.595H1083.99C1079.62 218.595 1076.1 222.147 1076.1 226.509L1076.17 239.664C1083.64 239.664 1089.66 245.749 1089.66 253.135C1089.66 253.416 1089.66 253.698 1089.66 253.979L1079.77 409.516C1079.45 414.475 1075.33 418.345 1070.36 418.345C1067.58 418.345 1064.97 419.294 1062.9 420.947C1060.85 422.601 1059.34 424.922 1058.7 427.63L1057.72 434.384L1056.66 441.629L1056.1 445.463L1055.36 450.493C1054.97 453.201 1057.08 455.628 1059.83 455.628H1183.42C1186.16 455.628 1188.28 453.201 1187.89 450.493ZM1144.75 205.405C1144.75 211.419 1139.89 216.273 1133.86 216.273H1109.35C1103.33 216.273 1098.47 211.419 1098.47 205.405V191.089C1098.47 188.24 1100.12 185.778 1102.55 184.652C1103.47 184.195 1104.49 183.949 1105.62 183.949H1133.86C1139.89 183.949 1144.75 188.803 1144.75 194.817V205.405Z" fill="#D7D0FF"/>
<path d="M1516.18 486.455V600.518H997.666C997.666 600.518 1042.05 527.859 1079.15 493.788C1116.26 459.732 1157.72 423.535 1182.47 400.112C1207.21 376.69 1224.22 347.943 1240.81 328.788L1248.67 334.112C1248.67 334.112 1259.58 320.267 1264.69 323.464C1269.78 326.647 1284.33 367.112 1298.14 380.943C1311.97 394.788 1318.51 381.999 1337.43 390.52C1356.35 399.042 1418.92 454.188 1434.92 461.727C1447.58 467.711 1487.94 476.276 1516.18 486.426V486.455Z" fill="url(#paint12_linear_4028_723)"/>
<path style="mix-blend-mode:multiply" opacity="0.2" d="M1516.18 485.538V599.601H1327.62C1313.18 566.645 1298.2 530.492 1293.65 512.437C1284.09 474.436 1298.07 454.24 1298.07 454.24C1281.17 420.536 1264.6 395.427 1264.6 395.427L1248.67 333.211C1248.67 333.211 1259.58 319.365 1264.69 322.563C1269.78 325.745 1284.33 366.211 1298.14 380.041C1311.97 393.887 1318.51 381.097 1337.43 389.619C1356.35 398.14 1418.92 453.287 1434.92 460.825C1447.58 466.809 1487.94 475.375 1516.18 485.524V485.538Z" fill="url(#paint13_linear_4028_723)"/>
<defs>
<filter id="filter0_f_4028_723" x="868.526" y="31" width="305" height="304" filterUnits="userSpaceOnUse" color-interpolation-filters="sRGB">
<feFlood flood-opacity="0" result="BackgroundImageFix"/>
<feBlend mode="normal" in="SourceGraphic" in2="BackgroundImageFix" result="shape"/>
<feGaussianBlur stdDeviation="7.5" result="effect1_foregroundBlur_4028_723"/>
</filter>
<filter id="filter1_f_4028_723" x="411.251" y="180.956" width="707.341" height="323.613" filterUnits="userSpaceOnUse" color-interpolation-filters="sRGB">
<feFlood flood-opacity="0" result="BackgroundImageFix"/>
<feBlend mode="normal" in="SourceGraphic" in2="BackgroundImageFix" result="shape"/>
<feGaussianBlur stdDeviation="10" result="effect1_foregroundBlur_4028_723"/>
</filter>
<filter id="filter2_f_4028_723" x="454.775" y="46.2474" width="656.861" height="293.154" filterUnits="userSpaceOnUse" color-interpolation-filters="sRGB">
<feFlood flood-opacity="0" result="BackgroundImageFix"/>
<feBlend mode="normal" in="SourceGraphic" in2="BackgroundImageFix" result="shape"/>
<feGaussianBlur stdDeviation="10" result="effect1_foregroundBlur_4028_723"/>
</filter>
<filter id="filter3_f_4028_723" x="401.194" y="-101.104" width="710.726" height="328.025" filterUnits="userSpaceOnUse" color-interpolation-filters="sRGB">
<feFlood flood-opacity="0" result="BackgroundImageFix"/>
<feBlend mode="normal" in="SourceGraphic" in2="BackgroundImageFix" result="shape"/>
<feGaussianBlur stdDeviation="10" result="effect1_foregroundBlur_4028_723"/>
</filter>
<linearGradient id="paint0_linear_4028_723" x1="1220.07" y1="218.805" x2="1341.79" y2="460.643" gradientUnits="userSpaceOnUse">
<stop stop-color="#65D0B6"/>
<stop offset="0.06" stop-color="#54BCA3" stop-opacity="0.84"/>
<stop offset="0.16" stop-color="#3EA18B" stop-opacity="0.62"/>
<stop offset="0.26" stop-color="#2B8A75" stop-opacity="0.43"/>
<stop offset="0.36" stop-color="#1B7764" stop-opacity="0.27"/>
<stop offset="0.47" stop-color="#0F6957" stop-opacity="0.15"/>
<stop offset="0.58" stop-color="#065F4D" stop-opacity="0.07"/>
<stop offset="0.69" stop-color="#015847" stop-opacity="0.02"/>
<stop offset="0.83" stop-color="#005746" stop-opacity="0"/>
</linearGradient>
<linearGradient id="paint1_linear_4028_723" x1="1324.63" y1="338.705" x2="1431.05" y2="516.509" gradientUnits="userSpaceOnUse">
<stop stop-color="#65D0B6"/>
<stop offset="0.07" stop-color="#54BCA3" stop-opacity="0.84"/>
<stop offset="0.19" stop-color="#3EA18B" stop-opacity="0.62"/>
<stop offset="0.31" stop-color="#2B8A75" stop-opacity="0.43"/>
<stop offset="0.44" stop-color="#1B7764" stop-opacity="0.27"/>
<stop offset="0.56" stop-color="#0F6957" stop-opacity="0.15"/>
<stop offset="0.7" stop-color="#065F4D" stop-opacity="0.07"/>
<stop offset="0.84" stop-color="#015847" stop-opacity="0.02"/>
<stop offset="1" stop-color="#005746" stop-opacity="0"/>
</linearGradient>
<linearGradient id="paint2_linear_4028_723" x1="312.773" y1="345.721" x2="241.288" y2="568.787" gradientUnits="userSpaceOnUse">
<stop stop-color="#65D0B6"/>
<stop offset="0.07" stop-color="#54BCA3" stop-opacity="0.84"/>
<stop offset="0.19" stop-color="#3EA18B" stop-opacity="0.62"/>
<stop offset="0.31" stop-color="#2B8A75" stop-opacity="0.43"/>
<stop offset="0.44" stop-color="#1B7764" stop-opacity="0.27"/>
<stop offset="0.56" stop-color="#0F6957" stop-opacity="0.15"/>
<stop offset="0.7" stop-color="#065F4D" stop-opacity="0.07"/>
<stop offset="0.84" stop-color="#015847" stop-opacity="0.02"/>
<stop offset="1" stop-color="#005746" stop-opacity="0"/>
</linearGradient>
<linearGradient id="paint3_linear_4028_723" x1="195.605" y1="436.861" x2="101.763" y2="608.42" gradientUnits="userSpaceOnUse">
<stop stop-color="#65D0B6"/>
<stop offset="0.07" stop-color="#54BCA3" stop-opacity="0.84"/>
<stop offset="0.19" stop-color="#3EA18B" stop-opacity="0.62"/>
<stop offset="0.31" stop-color="#2B8A75" stop-opacity="0.43"/>
<stop offset="0.44" stop-color="#1B7764" stop-opacity="0.27"/>
<stop offset="0.56" stop-color="#0F6957" stop-opacity="0.15"/>
<stop offset="0.7" stop-color="#065F4D" stop-opacity="0.07"/>
<stop offset="0.84" stop-color="#015847" stop-opacity="0.02"/>
<stop offset="1" stop-color="#005746" stop-opacity="0"/>
</linearGradient>
<linearGradient id="paint4_linear_4028_723" x1="992.026" y1="-145" x2="766.526" y2="702" gradientUnits="userSpaceOnUse">
<stop stop-color="#3952FF"/>
<stop offset="0.28" stop-color="#DED7FF"/>
<stop offset="0.58" stop-color="#7B61FF"/>
<stop offset="0.594011" stop-color="#755AFF"/>
<stop offset="1" stop-color="#7B61FF"/>
</linearGradient>
<linearGradient id="paint5_linear_4028_723" x1="1464.53" y1="251.5" x2="1116.03" y2="370.5" gradientUnits="userSpaceOnUse">
<stop stop-color="#DED7FF"/>
<stop offset="0.04" stop-color="#7B61FF"/>
<stop offset="0.194086" stop-color="#7060F8"/>
<stop offset="0.35" stop-color="#7B61FF"/>
<stop offset="0.35059" stop-color="#7B61FF"/>
<stop offset="0.62" stop-color="#7B61FF"/>
<stop offset="0.85" stop-color="#755AFF"/>
<stop offset="1" stop-color="#7B61FF"/>
</linearGradient>
<linearGradient id="paint6_linear_4028_723" x1="970.626" y1="243.76" x2="855.374" y2="302.699" gradientUnits="userSpaceOnUse">
<stop stop-color="#DEEDF9" stop-opacity="0.1"/>
<stop offset="0.04" stop-color="#188AFC" stop-opacity="0.06"/>
<stop offset="0.35" stop-color="#6F6BFE"/>
<stop offset="0.62" stop-color="#3952FF"/>
<stop offset="0.85" stop-color="#5865F2"/>
<stop offset="1" stop-color="#7B61FF"/>
</linearGradient>
<radialGradient id="paint7_radial_4028_723" cx="0" cy="0" r="1" gradientUnits="userSpaceOnUse" gradientTransform="translate(897.182 275.897) rotate(-20.1065) scale(156.954 156.519)">
<stop stop-color="white" stop-opacity="0.25"/>
<stop offset="1" stop-color="#7B61FF"/>
</radialGradient>
<radialGradient id="paint8_radial_4028_723" cx="0" cy="0" r="1" gradientUnits="userSpaceOnUse" gradientTransform="translate(1000.79 250.994) rotate(-20.1739) scale(94.6576)">
<stop stop-color="white" stop-opacity="0.1"/>
<stop offset="1" stop-color="white"/>
</radialGradient>
<radialGradient id="paint9_radial_4028_723" cx="0" cy="0" r="1" gradientUnits="userSpaceOnUse" gradientTransform="translate(347.766 383.305) rotate(-12.996) scale(725.718 828.271)">
<stop stop-color="#FA48E8" stop-opacity="0.1"/>
<stop offset="1" stop-color="#FFD15B"/>
</radialGradient>
<radialGradient id="paint10_radial_4028_723" cx="0" cy="0" r="1" gradientUnits="userSpaceOnUse" gradientTransform="translate(370.403 181.398) rotate(2.27025) scale(678.017 840.757)">
<stop stop-color="#FA48E8" stop-opacity="0.1"/>
<stop offset="1" stop-color="#FFD15B"/>
</radialGradient>
<radialGradient id="paint11_radial_4028_723" cx="0" cy="0" r="1" gradientUnits="userSpaceOnUse" gradientTransform="translate(330.643 -53.9665) rotate(18.9863) scale(769.318 500.664)">
<stop stop-color="#FA48E8" stop-opacity="0.1"/>
<stop offset="1" stop-color="#FFD15B"/>
</radialGradient>
<linearGradient id="paint12_linear_4028_723" x1="782.526" y1="448" x2="1889.53" y2="797" gradientUnits="userSpaceOnUse">
<stop stop-color="#7B61FF"/>
<stop offset="0.28" stop-color="#7B61FF"/>
<stop offset="0.58" stop-color="#7B61FF"/>
<stop offset="0.83" stop-color="#7B61FF"/>
<stop offset="1" stop-color="#5E40F6"/>
</linearGradient>
<linearGradient id="paint13_linear_4028_723" x1="1525.53" y1="-95.5" x2="1287.82" y2="512.525" gradientUnits="userSpaceOnUse">
<stop stop-color="#7B61FF" stop-opacity="0"/>
<stop offset="0.04" stop-color="#7B61FF" stop-opacity="0.06"/>
<stop offset="0.35" stop-color="#7B61FF" stop-opacity="0.46"/>
<stop offset="0.62" stop-color="#7B61FF" stop-opacity="0.76"/>
<stop offset="0.85" stop-color="#5D3EF9" stop-opacity="0.94"/>
<stop offset="1" stop-color="#9640FF"/>
</linearGradient>
</defs>
</svg>
