<svg width="100" height="100" viewBox="0 0 100 100" fill="none" xmlns="http://www.w3.org/2000/svg">
<path d="M27.1801 39.0625H32.3041C32.7989 39.0625 33.2001 39.4637 33.2001 39.9585V45.0825C33.2001 45.24 33.3576 45.3626 33.5501 45.3626H37.7501C37.9426 45.3626 38.1001 45.2401 38.1001 45.0738V39.9586C38.1001 39.4637 38.5012 39.0625 38.9961 39.0625H44.1201C44.2776 39.0625 44.4001 38.905 44.4001 38.7125V34.5125C44.4001 34.32 44.2776 34.1625 44.1113 34.1625H38.9961C38.5012 34.1625 38.1001 33.7614 38.1001 33.2665V28.1425C38.1001 27.985 37.9426 27.8625 37.7501 27.8625H33.5501C33.3576 27.8625 33.2001 27.985 33.2001 28.1425V33.2666C33.2001 33.7614 32.7989 34.1625 32.3041 34.1625H27.1801C27.0226 34.1625 26.9001 34.32 26.9001 34.5125V38.7125C26.9001 38.905 27.0226 39.0625 27.1801 39.0625ZM55.8801 39.0625H72.8201C72.9776 39.0625 73.1001 38.905 73.1001 38.7125V34.5125C73.1001 34.32 72.9776 34.1625 72.8113 34.1625H55.8801C55.7226 34.1625 55.6001 34.32 55.6001 34.5125V38.7125C55.6001 38.905 55.7226 39.0625 55.8801 39.0625ZM55.8801 62.25H72.8201C72.9776 62.25 73.1001 62.0926 73.1001 61.9001V57.7001C73.1001 57.5076 72.9776 57.35 72.8113 57.35H55.8801C55.7226 57.35 55.6001 57.5076 55.6001 57.7001V61.9001C55.6001 62.0926 55.7226 62.25 55.8801 62.25ZM55.8801 71.3501H72.8201C72.9776 71.3501 73.1001 71.1926 73.1001 71.0001V66.8001C73.1001 66.6076 72.9776 66.4501 72.8113 66.4501H55.8801C55.7226 66.4501 55.6001 66.6076 55.6001 66.8001V71.0001C55.6001 71.1926 55.7226 71.3501 55.8801 71.3501ZM39.2175 64.8293C38.949 64.4993 38.9495 64.0261 39.2186 63.6968L44.1113 57.7088C44.4876 57.2538 44.1726 56.5626 43.5951 56.5626H39.1501C38.9488 56.5626 38.7563 56.6501 38.6338 56.8163L36.3526 59.6075C35.9941 60.0461 35.3236 60.0461 34.965 59.6075L32.6838 56.8163C32.5526 56.6588 32.3601 56.5626 32.1676 56.5626H27.7138C27.1363 56.5626 26.8213 57.2538 27.1976 57.7088L32.0895 63.6959C32.359 64.0256 32.3591 64.4995 32.0898 64.8294L27.0663 70.9826C26.6813 71.4375 26.9963 72.1288 27.5738 72.1288H32.0188C32.2201 72.1288 32.4126 72.0413 32.5351 71.8751L34.9471 68.9194C35.3057 68.4801 35.977 68.4801 36.3355 68.9194L38.7476 71.8751C38.8788 72.0326 39.0713 72.1288 39.2638 72.1288H43.7088C44.2863 72.1288 44.6013 71.4375 44.2251 70.9826L39.2175 64.8293Z" fill="#7B61FF"/>
<path d="M82.2 15H17.8C16.2512 15 15 16.2512 15 17.8V82.2C15 83.7487 16.2512 85 17.8 85H82.2C83.7487 85 85 83.7487 85 82.2V17.8C85 16.2512 83.7487 15 82.2 15ZM79.05 79.05H20.95V20.95H79.05V79.05Z" fill="#7B61FF"/>
</svg>
