<svg width="100" height="100" viewBox="0 0 100 100" fill="none" xmlns="http://www.w3.org/2000/svg">
<g clip-path="url(#clip0_2110_7620)">
<path d="M28.4323 66.0529H14.7059C14.0233 66.0529 13.3687 66.324 12.8861 66.8067C12.4035 67.2893 12.1323 67.9439 12.1323 68.6264V82.3529C12.1323 83.7735 13.2853 84.9264 14.7059 84.9264H28.4323C29.1149 84.9264 29.7695 84.6553 30.2521 84.1727C30.7347 83.69 31.0059 83.0354 31.0059 82.3529V68.6264C31.0059 67.9439 30.7347 67.2893 30.2521 66.8067C29.7695 66.324 29.1149 66.0529 28.4323 66.0529ZM25.8559 71.1999V79.7794H17.2794V71.1999H25.8559ZM76.4706 18.0146H21.5676C20.8851 18.0146 20.2305 18.2858 19.7479 18.7684C19.2652 19.251 18.9941 19.9056 18.9941 20.5882V41.1764C18.9941 42.597 20.147 43.7499 21.5676 43.7499H76.4706C77.1531 43.7499 77.8077 43.4788 78.2903 42.9962C78.773 42.5135 79.0441 41.859 79.0441 41.1764V20.5882C79.0441 19.9056 78.773 19.251 78.2903 18.7684C77.8077 18.2858 77.1531 18.0146 76.4706 18.0146ZM73.897 23.1617V38.6029H24.1411V23.1617H73.897Z" fill="#7B61FF"/>
<path d="M49.0206 38.6029C50.3323 38.6029 51.4147 39.5853 51.5735 40.8529L51.5941 41.1764V68.6264C51.6001 69.285 51.3535 69.9208 50.9049 70.403C50.4563 70.8851 49.8399 71.177 49.1827 71.2184C48.5254 71.2599 47.8772 71.0478 47.3716 70.6258C46.866 70.2038 46.5414 69.604 46.4647 68.95L46.447 68.6264V41.1764C46.447 39.7558 47.597 38.6029 49.0206 38.6029Z" fill="#7B61FF"/>
<path d="M76.4706 52.3295C77.7824 52.3295 78.8647 53.3089 79.0236 54.5795L79.0441 54.903V68.6265C79.0438 69.2808 78.7943 69.9103 78.3463 70.3872C77.8984 70.864 77.2857 71.1524 76.6327 71.1936C75.9798 71.2348 75.3356 71.0258 74.8313 70.609C74.3269 70.1923 74.0003 69.5991 73.9177 68.9501L73.8971 68.6265V57.4736H24.1412V68.6265C24.1419 69.2535 23.9136 69.8592 23.4993 70.3298C23.0851 70.8004 22.5132 71.1036 21.8912 71.1824L21.5677 71.2001C20.9412 71.2 20.3362 70.9715 19.8662 70.5572C19.3962 70.143 19.0935 69.5716 19.0147 68.9501L18.9941 68.6265V54.903C18.9941 53.5912 19.9765 52.5059 21.2471 52.3471L21.5706 52.3295H76.4706Z" fill="#7B61FF"/>
<path d="M83.3323 66.053H69.6088C68.9263 66.053 68.2717 66.3241 67.789 66.8067C67.3064 67.2894 67.0353 67.9439 67.0353 68.6265V82.353C67.0353 83.7735 68.1853 84.9265 69.6088 84.9265H83.3323C84.0149 84.9265 84.6695 84.6553 85.1521 84.1727C85.6347 83.6901 85.9058 83.0355 85.9058 82.353V68.6265C85.9058 67.9439 85.6347 67.2894 85.1521 66.8067C84.6695 66.3241 84.0149 66.053 83.3323 66.053ZM80.7588 71.2V79.7794H72.1794V71.2H80.7588ZM55.8823 66.053H42.1559C41.4733 66.053 40.8187 66.3241 40.3361 66.8067C39.8535 67.2894 39.5823 67.9439 39.5823 68.6265V82.353C39.5823 83.7735 40.7353 84.9265 42.1559 84.9265H55.8823C56.5649 84.9265 57.2195 84.6553 57.7021 84.1727C58.1847 83.6901 58.4559 83.0355 58.4559 82.353V68.6265C58.4559 67.9439 58.1847 67.2894 57.7021 66.8067C57.2195 66.3241 56.5649 66.053 55.8823 66.053ZM53.3088 71.2V79.7794H44.7294V71.2H53.3088ZM35.2941 28.3088C35.9483 28.3092 36.5779 28.5587 37.0548 29.0066C37.5316 29.4546 37.82 30.0673 37.8612 30.7203C37.9024 31.3732 37.6933 32.0174 37.2766 32.5217C36.8598 33.026 36.2666 33.3527 35.6176 33.4353L35.2941 33.4559H31.8617C31.2075 33.4556 30.5779 33.206 30.1011 32.7581C29.6242 32.3102 29.3359 31.6974 29.2947 31.0445C29.2535 30.3915 29.4625 29.7474 29.8792 29.243C30.296 28.7387 30.8892 28.412 31.5382 28.3294L31.8617 28.3088H35.2941Z" fill="#7B61FF"/>
</g>
<defs>
<clipPath id="clip0_2110_7620">
<rect width="100" height="100" fill="white"/>
</clipPath>
</defs>
</svg>
