<svg width="45" height="46" viewBox="0 0 45 46" fill="none" xmlns="http://www.w3.org/2000/svg">
<g clip-path="url(#clip0_2110_7552)">
<path d="M40.0909 0.5C37.3835 0.5 35.1818 2.70173 35.1818 5.40909C35.1818 6.25591 35.397 7.05282 35.7758 7.74909L27.7339 15.791C26.5904 14.8952 25.1796 14.4084 23.727 14.4082C22.2744 14.4081 20.8636 14.8946 19.7198 15.7902L13.4452 9.51555C13.7459 9.01682 13.9062 8.44603 13.9091 7.86364C13.9091 6.05873 12.4413 4.59091 10.6364 4.59091C8.83145 4.59091 7.36364 6.05873 7.36364 7.86364C7.36364 9.66854 8.83145 11.1364 10.6364 11.1364C11.2418 11.1364 11.8015 10.9605 12.2883 10.6725L18.5629 16.9471C17.6686 18.0913 17.1828 19.5019 17.1828 20.9541C17.1828 22.4064 17.6686 23.8169 18.5629 24.9612L8.20146 35.3235C7.30177 34.5018 6.12752 34.046 4.90909 34.0455C2.20173 34.0455 0 36.2472 0 38.9545C0 41.6619 2.20173 43.8636 4.90909 43.8636C7.61645 43.8636 9.81818 41.6619 9.81818 38.9545C9.81924 38.1371 9.61499 37.3325 9.22418 36.6145L19.7206 26.1181C20.645 26.8388 21.7469 27.2965 22.9099 27.4427V35.7555C20.592 36.1465 18.819 38.1625 18.819 40.5909C18.819 43.2983 21.0207 45.5 23.7281 45.5C26.4355 45.5 28.6372 43.2983 28.6372 40.5909C28.6372 38.1634 26.8642 36.1474 24.5463 35.7555V27.4427C25.7093 27.2965 26.8112 26.8388 27.7355 26.1181L34.0102 32.3927C33.7089 32.8916 33.5483 33.4627 33.5455 34.0455C33.5455 35.8504 35.0133 37.3182 36.8182 37.3182C38.6231 37.3182 40.0909 35.8504 40.0909 34.0455C40.0909 32.2405 38.6231 30.7727 36.8182 30.7727C36.2127 30.7727 35.6531 30.9486 35.1663 31.2366L28.8916 24.962C29.786 23.8178 30.2718 22.4072 30.2718 20.955C30.2718 19.5027 29.786 18.0922 28.8916 16.9479L36.7994 9.04018C37.6987 9.86192 38.8727 10.3178 40.0909 10.3182C42.7983 10.3182 45 8.11645 45 5.40909C45 2.70173 42.7983 0.5 40.0909 0.5ZM9 7.86364C9 6.96118 9.73391 6.22727 10.6364 6.22727C11.5388 6.22727 12.2727 6.96118 12.2727 7.86364C12.2727 8.76609 11.5388 9.5 10.6364 9.5C9.73391 9.5 9 8.76609 9 7.86364ZM4.90909 42.2273C3.10418 42.2273 1.63636 40.7595 1.63636 38.9545C1.63636 37.1496 3.10418 35.6818 4.90909 35.6818C6.714 35.6818 8.18182 37.1496 8.18182 38.9545C8.18182 40.7595 6.714 42.2273 4.90909 42.2273ZM27 40.5909C27 42.3958 25.5322 43.8636 23.7273 43.8636C21.9224 43.8636 20.4545 42.3958 20.4545 40.5909C20.4545 38.786 21.9224 37.3182 23.7273 37.3182C25.5322 37.3182 27 38.786 27 40.5909ZM23.7273 25.8636C21.0199 25.8636 18.8182 23.6619 18.8182 20.9545C18.8182 18.2472 21.0199 16.0455 23.7273 16.0455C26.4346 16.0455 28.6364 18.2472 28.6364 20.9545C28.6364 23.6619 26.4346 25.8636 23.7273 25.8636ZM38.4545 34.0455C38.4545 34.9479 37.7206 35.6818 36.8182 35.6818C35.9157 35.6818 35.1818 34.9479 35.1818 34.0455C35.1818 33.143 35.9157 32.4091 36.8182 32.4091C37.7206 32.4091 38.4545 33.143 38.4545 34.0455ZM40.0909 8.68182C38.286 8.68182 36.8182 7.214 36.8182 5.40909C36.8182 3.60418 38.286 2.13636 40.0909 2.13636C41.8958 2.13636 43.3636 3.60418 43.3636 5.40909C43.3636 7.214 41.8958 8.68182 40.0909 8.68182Z" fill="white"/>
</g>
<defs>
<clipPath id="clip0_2110_7552">
<rect width="45" height="45" fill="white" transform="translate(0 0.5)"/>
</clipPath>
</defs>
</svg>
