<svg width="100" height="100" viewBox="0 0 100 100" fill="none" xmlns="http://www.w3.org/2000/svg">
<path d="M99.6667 74.2261C99.6087 75.8614 98.1954 77.1581 96.5014 77.1231C94.4804 77.1231 93.336 75.9314 93.336 74.2261C93.336 65.3954 85.989 57.8847 76.784 57.8847C75.0554 58.0137 73.7594 56.8341 73.7594 54.9887C73.7594 53.5401 75.0564 52.0917 76.9247 52.0917C82.543 52.0917 87.0047 47.6067 87.0047 42.0697C87.0047 36.5334 82.543 32.0481 76.9247 32.0481C75.348 32.0481 73.7594 30.8681 73.7594 29.1514C73.7594 27.3057 75.0564 27.0487 76.644 27.0487C85.4287 27.0487 92.7637 34.1624 92.7637 42.4674C92.7637 47.2101 90.4624 51.6954 86.713 54.5921C94.4807 58.4097 99.6667 65.7927 99.6667 74.2261ZM82.3914 85.4747H76.2587C76.2587 70.6754 64.4377 59.0524 50.0007 59.0524C35.5517 59.0524 23.7427 71.0954 23.7427 85.4747H17.61C17.61 72.3337 25.7867 60.5711 37.596 55.8757C31.3234 51.7287 27.095 44.6737 27.095 36.9291C27.095 25.0384 37.304 14.5254 49.709 14.5254C62.114 14.5254 72.323 24.4894 72.323 36.9291C72.323 44.9537 67.6504 51.8691 61.53 55.8757C73.3387 60.5827 82.099 72.0647 82.3914 85.4747ZM65.898 36.9291C65.898 28.2147 58.5974 20.7511 49.5564 20.7511C40.5154 20.7511 33.2154 27.9464 33.2154 36.9291C33.2154 46.2037 40.8077 53.2584 49.5564 53.3874C58.457 53.3877 65.898 45.9114 65.898 36.9291ZM23.076 52.0904C24.7694 52.0557 26.1827 53.3517 26.241 54.9874C26.241 56.8327 24.9447 58.0124 23.216 57.8834C14 57.8834 6.66437 65.3941 6.66437 74.2247C6.66437 75.9417 5.50804 77.1214 3.49904 77.1214C1.63004 77.1214 0.333374 75.6724 0.333374 74.2247C0.333374 65.7914 5.52004 58.4091 13.2874 54.5894C9.53771 51.6931 7.23671 47.2074 7.23671 42.4647C7.23671 34.1594 14.584 27.0461 23.356 27.0461C24.9447 27.0461 26.2407 27.3147 26.2407 29.1487C26.2407 30.8657 24.6524 32.0454 23.0757 32.0454C17.4574 32.0454 12.995 36.5307 12.995 42.0671C12.9957 47.6051 17.4694 52.0904 23.076 52.0904Z" fill="#7B61FF"/>
</svg>
