<svg width="43" height="44" viewBox="0 0 43 44" fill="none" xmlns="http://www.w3.org/2000/svg">
<g clip-path="url(#clip0_2110_7560)">
<path d="M41.7684 41.3818H40.8798V15.6111C40.8798 15.3755 40.7862 15.1494 40.6195 14.9828C40.4529 14.8162 40.2269 14.7225 39.9912 14.7225H34.6597C34.543 14.7225 34.4274 14.7454 34.3195 14.79C34.2116 14.8346 34.1136 14.9001 34.031 14.9826C33.9484 15.0651 33.8829 15.1631 33.8382 15.2709C33.7936 15.3788 33.7705 15.4944 33.7705 15.6111V41.3818H30.2162V26.2747C30.2162 26.039 30.1226 25.813 29.956 25.6464C29.7893 25.4797 29.5633 25.3861 29.3276 25.3861H23.9956C23.7599 25.3861 23.5339 25.4797 23.3672 25.6464C23.2006 25.813 23.107 26.039 23.107 26.2747V41.3818H19.5526V22.7204C19.5526 22.4847 19.459 22.2587 19.2924 22.092C19.1257 21.9254 18.8997 21.8318 18.6641 21.8318H13.332C13.0963 21.8318 12.8703 21.9254 12.7037 22.092C12.537 22.2587 12.4434 22.4847 12.4434 22.7204V41.3818H8.88906V31.6068C8.88906 31.49 8.86606 31.3744 8.82136 31.2666C8.77667 31.1587 8.71117 31.0608 8.6286 30.9782C8.54602 30.8957 8.448 30.8303 8.34012 30.7857C8.23225 30.741 8.11664 30.7181 7.9999 30.7182H2.6684C2.43273 30.7182 2.20672 30.8118 2.04008 30.9784C1.87343 31.1451 1.77982 31.3711 1.77982 31.6068V41.3818H0.890659C0.654992 41.3818 0.428977 41.4754 0.262335 41.642C0.0956936 41.8087 0.0020752 42.0347 0.0020752 42.2703C0.0020752 42.506 0.0956936 42.732 0.262335 42.8987C0.428977 43.0653 0.654992 43.1589 0.890659 43.1589H41.7684C42.004 43.1589 42.23 43.0652 42.3966 42.8985C42.5632 42.7318 42.6567 42.5057 42.6567 42.2701C42.6566 42.0344 42.5629 41.8084 42.3962 41.6418C42.2295 41.4752 42.0035 41.3817 41.7678 41.3818H41.7684ZM35.5483 16.4997H39.1026V41.3818H35.5483V16.4997ZM24.8836 27.1633H28.4379V41.3818H24.8836V27.1633ZM14.22 23.6089H17.7743V41.3818H14.22V23.6089ZM7.11074 41.3818H3.55641V32.4954H7.11074V41.3818Z" fill="white"/>
<path d="M5.3333 23.609C7.29392 23.609 8.88821 22.0153 8.88821 20.0547C8.88821 19.4298 8.7254 18.8428 8.44105 18.3325L13.8666 14.006C14.4799 14.4705 15.2281 14.7222 15.9975 14.7226C16.6167 14.7219 17.2249 14.5593 17.7619 14.251C18.2989 13.9427 18.746 13.4993 19.0588 12.9649L23.1594 14.1344C23.1255 14.3285 23.1079 14.525 23.1067 14.722C23.1067 16.6826 24.7004 18.2764 26.661 18.2764C28.6216 18.2764 30.2154 16.6826 30.2154 14.722C30.2154 14.0639 30.0331 13.4493 29.7201 12.9202L35.5222 7.11632C36.0675 7.44065 36.6902 7.61196 37.3246 7.61221C39.2852 7.61221 40.8789 6.01849 40.8789 4.05788C40.8789 2.09726 39.2852 0.50354 37.3246 0.50354C35.364 0.50354 33.7703 2.09726 33.7703 4.05788C33.7703 4.71657 33.9526 5.33113 34.2656 5.86027L28.4634 11.6642C27.9182 11.3396 27.2955 11.1681 26.661 11.1677C26.13 11.1679 25.6058 11.2872 25.127 11.517C24.6483 11.7468 24.2272 12.0812 23.895 12.4954L19.5478 11.2554C19.5483 11.2262 19.5524 11.1975 19.5524 11.1677C19.5524 9.20708 17.9586 7.61336 15.998 7.61336C14.0374 7.61336 12.4431 9.20708 12.4431 11.1677C12.4431 11.6848 12.5561 12.1744 12.7556 12.6181L7.20907 17.0398C6.64719 16.6871 5.99728 16.5 5.33388 16.4998C3.37326 16.4998 1.77954 18.0935 1.77954 20.0541C1.77954 22.0147 3.37326 23.609 5.33388 23.609H5.3333ZM37.3258 2.28185C38.3066 2.28185 39.1029 3.07986 39.1029 4.05902C39.1029 5.03818 38.3066 5.83619 37.3258 5.83619C36.859 5.83627 36.4111 5.65208 36.0794 5.32368C36.076 5.32081 36.0737 5.3168 36.0708 5.31336C36.0674 5.30992 36.0634 5.30763 36.0594 5.30476C35.7314 4.97288 35.5477 4.52502 35.548 4.05845C35.548 3.07929 36.3449 2.28128 37.3252 2.28128L37.3258 2.28185ZM26.661 12.9443C27.6425 12.9443 28.4382 13.7429 28.4382 14.7215C28.4382 15.7012 27.6425 16.4992 26.661 16.4992C26.1898 16.4987 25.7381 16.3114 25.4049 15.9782C25.0717 15.645 24.8843 15.1932 24.8839 14.722C24.8839 13.7423 25.6802 12.9449 26.661 12.9449V12.9443ZM15.9975 9.38995C16.9783 9.38995 17.7746 10.188 17.7746 11.1671C17.7746 12.1469 16.9783 12.9443 15.9975 12.9443C15.734 12.9444 15.4738 12.8858 15.2358 12.7727C14.9978 12.6597 14.788 12.495 14.6216 12.2907C14.6176 12.285 14.6153 12.2793 14.6113 12.2747L14.6044 12.2672C14.3558 11.9545 14.2204 11.5667 14.2203 11.1671C14.2203 10.188 15.0166 9.38995 15.9975 9.38995ZM5.33388 18.2775C6.31476 18.2775 7.11104 19.0755 7.11104 20.0547C7.11104 21.0333 6.31476 21.8318 5.33388 21.8318C4.86268 21.8314 4.41092 21.644 4.07773 21.3108C3.74455 20.9776 3.55716 20.5259 3.55671 20.0547C3.55671 19.0749 4.35242 18.2775 5.33388 18.2775Z" fill="white"/>
</g>
<defs>
<clipPath id="clip0_2110_7560">
<rect width="43" height="43" fill="white" transform="translate(0 0.5)"/>
</clipPath>
</defs>
</svg>
