<svg width="110" height="33" viewBox="0 0 110 33" fill="none" xmlns="http://www.w3.org/2000/svg">
<path d="M29.0955 16.85V27.15C29.0955 28.1833 28.9122 28.95 28.5455 29.45C28.1789 29.95 27.5955 30.4333 26.7955 30.9C25.8622 31.4333 24.4955 31.9 22.6955 32.3C20.9289 32.7 19.1622 32.9 17.3955 32.9C14.1955 32.9 11.2789 32.35 8.64552 31.25C6.04552 30.15 3.97886 28.4167 2.44552 26.05C0.91219 23.6833 0.145523 20.6333 0.145523 16.9C0.145523 13.4 0.91219 10.45 2.44552 8.05C4.01219 5.65 6.09552 3.83333 8.69552 2.6C11.3289 1.36667 14.2622 0.75 17.4955 0.75C19.5955 0.75 21.4122 0.983333 22.9455 1.45C24.5122 1.88333 25.7122 2.51666 26.5455 3.35C27.3789 4.15 27.7955 5.1 27.7955 6.2C27.7955 7.03333 27.5789 7.78333 27.1455 8.45C26.7122 9.08333 26.2122 9.58333 25.6455 9.95C24.8122 9.45 23.7622 8.96667 22.4955 8.5C21.2289 8.03333 19.7789 7.8 18.1455 7.8C16.3789 7.8 14.8122 8.18333 13.4455 8.95C12.0789 9.68333 11.0122 10.7333 10.2455 12.1C9.51219 13.4333 9.14552 15.0167 9.14552 16.85C9.14552 18.85 9.49552 20.5333 10.1955 21.9C10.9289 23.2333 11.9289 24.2333 13.1955 24.9C14.4622 25.5667 15.9122 25.9 17.5455 25.9C18.2789 25.9 18.9122 25.8333 19.4455 25.7C20.0122 25.5333 20.4455 25.3833 20.7455 25.25V20.45H15.3955C15.1955 20.0833 14.9955 19.6 14.7955 19C14.6289 18.4 14.5455 17.7667 14.5455 17.1C14.5455 15.9 14.8122 15.0333 15.3455 14.5C15.9122 13.9667 16.6289 13.7 17.4955 13.7H25.9455C26.9455 13.7 27.7122 13.9833 28.2455 14.55C28.8122 15.0833 29.0955 15.85 29.0955 16.85ZM48.0869 9.05H47.7869C47.4869 9.98333 47.1536 11 46.7869 12.1C46.4203 13.2 46.0369 14.3667 45.6369 15.6C45.2369 16.8 44.8536 18.05 44.4869 19.35L43.3869 25C43.1869 25.6667 43.0036 26.3167 42.8369 26.95C42.7036 27.5833 42.5536 28.1833 42.3869 28.75C42.2536 29.3167 42.1203 29.8667 41.9869 30.4C41.8536 30.9333 41.7203 31.45 41.5869 31.95C41.1536 32.0833 40.6703 32.2167 40.1369 32.35C39.6036 32.4833 38.9703 32.55 38.2369 32.55C36.5703 32.55 35.3203 32.2667 34.4869 31.7C33.6536 31.1 33.2369 30.2833 33.2369 29.25C33.2369 28.7833 33.3036 28.3167 33.4369 27.85C33.5703 27.3833 33.7203 26.8333 33.8869 26.2C34.1536 25.1333 34.5536 23.7667 35.0869 22.1C35.6203 20.4 36.2036 18.5833 36.8369 16.65C37.5036 14.6833 38.1536 12.7667 38.7869 10.9C39.4536 9.03333 40.0536 7.36667 40.5869 5.9C41.1203 4.4 41.5203 3.3 41.7869 2.6C42.3536 2.26667 43.2203 1.95 44.3869 1.65C45.5536 1.35 46.7036 1.2 47.8369 1.2C49.5036 1.2 50.9869 1.45 52.2869 1.95C53.5869 2.41667 54.4036 3.18333 54.7369 4.25C55.3369 5.95 55.9703 7.95 56.6369 10.25C57.3369 12.5167 58.0369 14.9 58.7369 17.4C59.4703 19.8667 60.1703 22.2833 60.8369 24.65C61.5036 26.9833 62.0869 29.0833 62.5869 30.95C62.1869 31.3833 61.5869 31.75 60.7869 32.05C59.9869 32.35 59.0369 32.5 57.9369 32.5C56.3036 32.5 55.1703 32.2333 54.5369 31.7C53.9036 31.1333 53.4369 30.2833 53.1369 29.15L51.8869 24.35L50.8869 19.2C50.5536 17.9 50.2203 16.65 49.8869 15.45C49.5536 14.25 49.2369 13.1167 48.9369 12.05C48.6369 10.95 48.3536 9.95 48.0869 9.05ZM39.6369 25.7L43.0869 18.95H54.0869L55.1369 25.7H39.6369ZM66.6846 9.9H75.4346V31.95C75.0679 32.05 74.5013 32.15 73.7346 32.25C72.9679 32.35 72.1846 32.4 71.3846 32.4C69.6513 32.4 68.4346 32.1 67.7346 31.5C67.0346 30.8667 66.6846 29.7833 66.6846 28.25V9.9ZM75.4346 21.45H66.6846V1.6C67.0846 1.53333 67.6679 1.45 68.4346 1.35C69.2346 1.21666 70.0013 1.15 70.7346 1.15C72.4013 1.15 73.6013 1.43333 74.3346 2C75.0679 2.56667 75.4346 3.66667 75.4346 5.3V21.45ZM81.919 12H89.969C90.1023 13.5333 90.1856 15 90.219 16.4C90.2856 17.8 90.319 19.1333 90.319 20.4C90.319 21.6333 90.319 22.85 90.319 24.05V32C89.9856 32.0667 89.4356 32.15 88.669 32.25C87.9356 32.35 87.1856 32.4 86.419 32.4C84.7523 32.4 83.5856 32.1167 82.919 31.55C82.2523 30.95 81.919 29.9 81.919 28.4V12ZM109.369 21.5H101.319C101.119 19.1667 101.002 17.0167 100.969 15.05C100.969 13.0833 100.969 11.2167 100.969 9.45V1.55C101.336 1.48333 101.886 1.4 102.619 1.3C103.352 1.2 104.102 1.15 104.869 1.15C106.536 1.15 107.702 1.45 108.369 2.05C109.036 2.61667 109.369 3.65 109.369 5.15V21.5ZM109.369 18.8V30.95C108.902 31.3833 108.219 31.7333 107.319 32C106.452 32.2667 105.402 32.4 104.169 32.4C102.936 32.4 101.769 32.2167 100.669 31.85C99.569 31.4833 98.669 30.6 97.969 29.2L93.019 19.1C92.6856 18.4 92.369 17.75 92.069 17.15C91.8023 16.5167 91.5356 15.8667 91.269 15.2C91.0023 14.5333 90.7023 13.8 90.369 13L81.919 14.85V3.25C82.3856 2.58333 83.1023 2.08333 84.069 1.75C85.0356 1.41667 86.069 1.25 87.169 1.25C88.4023 1.25 89.569 1.45 90.669 1.85C91.8023 2.21667 92.7023 3.08333 93.369 4.45L98.369 14.55C98.7023 15.2167 99.0023 15.8667 99.269 16.5C99.569 17.1333 99.8523 17.7833 100.119 18.45C100.419 19.1167 100.719 19.85 101.019 20.65L109.369 18.8Z" fill="#3370FF"/>
</svg>
