<svg width="110" height="33" viewBox="0 0 110 33" fill="none" xmlns="http://www.w3.org/2000/svg">
<path d="M9.45588 15.75H11.8559C13.2225 15.75 14.3225 15.4167 15.1559 14.75C16.0225 14.05 16.4559 13.0667 16.4559 11.8C16.4559 10.5333 16.0559 9.56667 15.2559 8.9C14.4892 8.2 13.3559 7.85 11.8559 7.85C11.3225 7.85 10.8725 7.86667 10.5059 7.9C10.1725 7.9 9.82254 7.93333 9.45588 8V15.75ZM12.4059 22.6H0.755875V4.55C0.755875 3.85 0.955875 3.31666 1.35587 2.95C1.75587 2.55 2.27254 2.23333 2.90587 2C4.03921 1.6 5.38921 1.31666 6.95588 1.15C8.52254 0.949998 9.92254 0.849999 11.1559 0.849999C15.7225 0.849999 19.2225 1.83333 21.6559 3.8C24.1225 5.76667 25.3559 8.43333 25.3559 11.8C25.3559 13.9667 24.8225 15.8667 23.7559 17.5C22.6892 19.1 21.1892 20.35 19.2559 21.25C17.3225 22.15 15.0392 22.6 12.4059 22.6ZM0.755875 18.8H9.50588V31.95C9.13921 32.05 8.57254 32.15 7.80588 32.25C7.03921 32.35 6.25588 32.4 5.45588 32.4C3.72254 32.4 2.50587 32.1 1.80587 31.5C1.10587 30.8667 0.755875 29.7833 0.755875 28.25V18.8ZM29.8086 9.9H38.5586V31.7L34.4586 32.15C33.0253 32.15 31.8919 31.7333 31.0586 30.9C30.2253 30.0667 29.8086 28.9333 29.8086 27.5V9.9ZM34.4586 32.15V25.1H50.0086C50.2419 25.4667 50.4586 25.95 50.6586 26.55C50.8586 27.15 50.9586 27.8 50.9586 28.5C50.9586 29.7333 50.6919 30.65 50.1586 31.25C49.6253 31.85 48.8919 32.15 47.9586 32.15H34.4586ZM38.5586 21.45H29.8086V1.6C30.2086 1.53333 30.7919 1.45 31.5586 1.35C32.3586 1.21666 33.1253 1.15 33.8586 1.15C35.5253 1.15 36.7253 1.43333 37.4586 2C38.1919 2.56667 38.5586 3.66667 38.5586 5.3V21.45ZM68.6817 9.05H68.3817C68.0817 9.98333 67.7483 11 67.3817 12.1C67.015 13.2 66.6317 14.3667 66.2317 15.6C65.8317 16.8 65.4483 18.05 65.0817 19.35L63.9817 25C63.7817 25.6667 63.5983 26.3167 63.4317 26.95C63.2983 27.5833 63.1483 28.1833 62.9817 28.75C62.8483 29.3167 62.715 29.8667 62.5817 30.4C62.4483 30.9333 62.315 31.45 62.1817 31.95C61.7483 32.0833 61.265 32.2167 60.7317 32.35C60.1983 32.4833 59.565 32.55 58.8317 32.55C57.165 32.55 55.915 32.2667 55.0817 31.7C54.2483 31.1 53.8317 30.2833 53.8317 29.25C53.8317 28.7833 53.8983 28.3167 54.0317 27.85C54.165 27.3833 54.315 26.8333 54.4817 26.2C54.7483 25.1333 55.1483 23.7667 55.6817 22.1C56.215 20.4 56.7983 18.5833 57.4317 16.65C58.0983 14.6833 58.7483 12.7667 59.3817 10.9C60.0483 9.03333 60.6483 7.36667 61.1817 5.9C61.715 4.4 62.115 3.3 62.3817 2.6C62.9483 2.26667 63.815 1.95 64.9817 1.65C66.1483 1.35 67.2983 1.2 68.4317 1.2C70.0983 1.2 71.5817 1.45 72.8817 1.95C74.1817 2.41667 74.9983 3.18333 75.3317 4.25C75.9317 5.95 76.565 7.95 77.2317 10.25C77.9317 12.5167 78.6317 14.9 79.3317 17.4C80.065 19.8667 80.765 22.2833 81.4317 24.65C82.0983 26.9833 82.6817 29.0833 83.1817 30.95C82.7817 31.3833 82.1817 31.75 81.3817 32.05C80.5817 32.35 79.6317 32.5 78.5317 32.5C76.8983 32.5 75.765 32.2333 75.1317 31.7C74.4983 31.1333 74.0317 30.2833 73.7317 29.15L72.4817 24.35L71.4817 19.2C71.1483 17.9 70.815 16.65 70.4817 15.45C70.1483 14.25 69.8317 13.1167 69.5317 12.05C69.2317 10.95 68.9483 9.95 68.6817 9.05ZM60.2317 25.7L63.6817 18.95H74.6817L75.7317 25.7H60.2317ZM100.633 22.6H92.7832C91.9499 21.3667 91.0166 19.95 89.9832 18.35C88.9499 16.7167 87.9166 15.0333 86.8832 13.3C85.8832 11.5667 84.9499 9.9 84.0832 8.3C83.2166 6.66667 82.5332 5.21667 82.0332 3.95C82.4666 3.35 83.0499 2.8 83.7832 2.3C84.5499 1.8 85.4832 1.55 86.5832 1.55C87.8832 1.55 88.9332 1.81666 89.7332 2.35C90.5666 2.88333 91.3499 3.88333 92.0832 5.35C92.4499 6.08333 92.8166 6.81667 93.1832 7.55C93.5499 8.28333 93.9166 9.03333 94.2832 9.8C94.6499 10.5333 95.0166 11.2667 95.3832 12C95.7499 12.7333 96.1166 13.4667 96.4832 14.2H96.7832C97.4166 12.8 97.9666 11.5167 98.4332 10.35C98.9332 9.18333 99.4166 7.98333 99.8832 6.75C100.383 5.48333 100.95 4.06666 101.583 2.5C102.183 2.2 102.85 1.96666 103.583 1.8C104.317 1.63333 105.017 1.55 105.683 1.55C106.85 1.55 107.833 1.86667 108.633 2.5C109.467 3.1 109.883 4.01667 109.883 5.25C109.883 5.65 109.767 6.2 109.533 6.9C109.3 7.56667 108.85 8.53333 108.183 9.8C107.55 11.0333 106.617 12.6833 105.383 14.75C104.183 16.8167 102.6 19.4333 100.633 22.6ZM92.3832 19.6H100.933V31.95C100.567 32.05 99.9999 32.15 99.2332 32.25C98.4999 32.35 97.7499 32.4 96.9832 32.4C95.2499 32.4 94.0499 32.1 93.3832 31.5C92.7166 30.9 92.3832 29.85 92.3832 28.35V19.6Z" fill="#7B61FF"/>
</svg>
