<svg width="119" height="33" viewBox="0 0 119 33" fill="none" xmlns="http://www.w3.org/2000/svg">
<path d="M21.524 31C21.0574 31.4 20.324 31.75 19.324 32.05C18.3574 32.35 17.2907 32.5 16.124 32.5C14.7574 32.5 13.5574 32.3 12.524 31.9C11.524 31.4667 10.8407 30.8833 10.474 30.15C10.0074 29.2167 9.45737 27.9833 8.82404 26.45C8.19071 24.9167 7.50737 23.1833 6.77404 21.25C6.04071 19.3167 5.30737 17.3167 4.57404 15.25C3.84071 13.1833 3.15737 11.1333 2.52404 9.1C1.92404 7.03333 1.40737 5.13333 0.974039 3.4C1.44071 2.93333 2.10737 2.51667 2.97404 2.15C3.87404 1.75 4.82404 1.55 5.82404 1.55C7.05737 1.55 8.05737 1.81666 8.82404 2.35C9.62404 2.88333 10.2074 3.83333 10.574 5.2C11.474 8.46667 12.374 11.6 13.274 14.6C14.2074 17.5667 15.174 20.6667 16.174 23.9H16.474C17.074 21.8333 17.674 19.6167 18.274 17.25C18.9074 14.8833 19.5407 12.4667 20.174 10C20.8074 7.5 21.4074 5.03333 21.974 2.6C22.574 2.3 23.224 2.05 23.924 1.85C24.624 1.65 25.3907 1.55 26.224 1.55C27.4574 1.55 28.5074 1.83333 29.374 2.4C30.2407 2.93333 30.674 3.83333 30.674 5.1C30.674 5.8 30.5074 6.85 30.174 8.25C29.8407 9.65 29.3907 11.25 28.824 13.05C28.2574 14.8167 27.624 16.65 26.924 18.55C26.2574 20.4167 25.574 22.2 24.874 23.9C24.2074 25.6 23.574 27.0833 22.974 28.35C22.374 29.6167 21.8907 30.5 21.524 31ZM64.8717 16.8C64.8717 20.2667 64.1717 23.2 62.7717 25.6C61.405 28 59.5217 29.8167 57.1217 31.05C54.755 32.2833 52.055 32.9 49.0217 32.9C45.9884 32.9 43.2717 32.2833 40.8717 31.05C38.505 29.8167 36.6384 28 35.2717 25.6C33.905 23.2 33.2217 20.2667 33.2217 16.8C33.2217 13.3333 33.9217 10.4167 35.3217 8.05C36.7217 5.65 38.605 3.83333 40.9717 2.6C43.3717 1.36667 46.055 0.75 49.0217 0.75C51.9884 0.75 54.6717 1.36667 57.0717 2.6C59.4717 3.83333 61.3717 5.65 62.7717 8.05C64.1717 10.4167 64.8717 13.3333 64.8717 16.8ZM55.8717 16.8C55.8717 13.8333 55.255 11.6 54.0217 10.1C52.7884 8.56667 51.1217 7.8 49.0217 7.8C46.9884 7.8 45.3384 8.55 44.0717 10.05C42.8384 11.55 42.2217 13.8 42.2217 16.8C42.2217 19.8333 42.8384 22.1 44.0717 23.6C45.3384 25.1 47.005 25.85 49.0717 25.85C51.1384 25.85 52.7884 25.1 54.0217 23.6C55.255 22.1 55.8717 19.8333 55.8717 16.8ZM74.9502 8.7V1.7H91.6002C91.8335 2.06667 92.0335 2.55 92.2002 3.15C92.4002 3.75 92.5002 4.4 92.5002 5.1C92.5002 6.33333 92.2169 7.25 91.6502 7.85C91.1169 8.41667 90.3835 8.7 89.4502 8.7H74.9502ZM84.1502 1.7V8.7H67.5002C67.2669 8.33333 67.0502 7.85 66.8502 7.25C66.6835 6.65 66.6002 6 66.6002 5.3C66.6002 4.03333 66.8669 3.11667 67.4002 2.55C67.9669 1.98333 68.7169 1.7 69.6502 1.7H84.1502ZM75.0502 7.35H83.8002V31.95C83.4335 32.05 82.8669 32.15 82.1002 32.25C81.3335 32.35 80.5502 32.4 79.7502 32.4C78.0169 32.4 76.8002 32.1 76.1002 31.5C75.4002 30.8667 75.0502 29.7833 75.0502 28.25V7.35ZM96.7334 9.9H105.233V31.7C104.867 31.8 104.333 31.9 103.633 32C102.933 32.1 102.183 32.15 101.383 32.15C99.9501 32.15 98.8167 31.7333 97.9834 30.9C97.1501 30.0667 96.7334 28.9333 96.7334 27.5V9.9ZM105.233 23.95H96.7334V6.35C96.7334 4.91666 97.1501 3.78333 97.9834 2.95C98.8167 2.11667 99.9501 1.7 101.383 1.7C102.183 1.7 102.933 1.75 103.633 1.85C104.333 1.95 104.867 2.05 105.233 2.15V23.95ZM101.383 20V13.2H116.483C116.717 13.5667 116.917 14.0333 117.083 14.6C117.283 15.1667 117.383 15.8 117.383 16.5C117.383 17.7333 117.117 18.6333 116.583 19.2C116.05 19.7333 115.317 20 114.383 20H101.383ZM101.383 32.15V25.25H118.083C118.317 25.6167 118.517 26.1 118.683 26.7C118.883 27.3 118.983 27.95 118.983 28.65C118.983 29.8833 118.717 30.7833 118.183 31.35C117.65 31.8833 116.917 32.15 115.983 32.15H101.383ZM101.383 8.55V1.7H117.883C118.117 2.06667 118.317 2.53333 118.483 3.1C118.683 3.66666 118.783 4.3 118.783 5C118.783 6.23333 118.517 7.13333 117.983 7.7C117.45 8.26667 116.717 8.55 115.783 8.55H101.383Z" fill="#00C27A"/>
</svg>
